<mxfile host="app.diagrams.net" modified="2021-04-13T08:43:33.777Z" agent="5.0 (Windows NT 10.0; WOW64) AppleWebKit/537.36 (KHTML, like Gecko) Chrome/89.0.4389.114 Safari/537.36" etag="7LTkTGB9SlleWoQLxUrm" version="14.2.9" type="github">
  <diagram id="lIZeGUzi_etZbqiLRwK1" name="Page-1">
    <mxGraphModel dx="1831" dy="550" grid="1" gridSize="10" guides="1" tooltips="1" connect="1" arrows="1" fold="1" page="1" pageScale="1" pageWidth="850" pageHeight="1100" background="#FFFFFF" math="0" shadow="0">
      <root>
        <mxCell id="0" />
        <mxCell id="1" parent="0" />
        <mxCell id="ImLfmbIOM0FkZJiw0mNa-1" value="" style="rounded=1;whiteSpace=wrap;html=1;" parent="1" vertex="1">
          <mxGeometry x="320" y="160" width="480" height="150" as="geometry" />
        </mxCell>
        <mxCell id="ImLfmbIOM0FkZJiw0mNa-4" value="Ingress Gateway&amp;nbsp;" style="rounded=1;whiteSpace=wrap;html=1;shadow=1;strokeColor=#82b366;fillColor=#EAFFE9;align=right;" parent="1" vertex="1">
          <mxGeometry x="143" y="402" width="130" height="40" as="geometry" />
        </mxCell>
        <mxCell id="ImLfmbIOM0FkZJiw0mNa-5" value="" style="rounded=1;whiteSpace=wrap;html=1;" parent="1" vertex="1">
          <mxGeometry x="320" y="479" width="480" height="150" as="geometry" />
        </mxCell>
        <mxCell id="ImLfmbIOM0FkZJiw0mNa-7" value="" style="shape=cylinder3;whiteSpace=wrap;html=1;boundedLbl=1;backgroundOutline=1;size=15;" parent="1" vertex="1">
          <mxGeometry x="177.5" y="180" width="60" height="80" as="geometry" />
        </mxCell>
        <mxCell id="lHOtrKICiSRHSmNMq4-3-6" value="Virtual Service Route" style="text;html=1;strokeColor=none;fillColor=none;align=center;verticalAlign=middle;whiteSpace=wrap;rounded=0;fontSize=14;" parent="1" vertex="1">
          <mxGeometry x="157.5" y="449" width="95" height="59" as="geometry" />
        </mxCell>
        <mxCell id="lHOtrKICiSRHSmNMq4-3-7" value="Flow Control Policies" style="text;html=1;strokeColor=none;fillColor=none;align=center;verticalAlign=middle;whiteSpace=wrap;rounded=0;fontSize=14;" parent="1" vertex="1">
          <mxGeometry x="162.5" y="150" width="90" height="20" as="geometry" />
        </mxCell>
        <mxCell id="lHOtrKICiSRHSmNMq4-3-9" value="" style="endArrow=classic;html=1;exitX=0.5;exitY=1;exitDx=0;exitDy=0;exitPerimeter=0;entryX=0.5;entryY=0;entryDx=0;entryDy=0;" parent="1" source="ImLfmbIOM0FkZJiw0mNa-7" target="ImLfmbIOM0FkZJiw0mNa-4" edge="1">
          <mxGeometry width="50" height="50" relative="1" as="geometry">
            <mxPoint x="120" y="270" as="sourcePoint" />
            <mxPoint x="120" y="330" as="targetPoint" />
          </mxGeometry>
        </mxCell>
        <mxCell id="lHOtrKICiSRHSmNMq4-3-18" value="&lt;b&gt;&lt;i&gt;Service Group 2&lt;/i&gt;&lt;/b&gt;" style="text;html=1;strokeColor=none;fillColor=none;align=center;verticalAlign=middle;whiteSpace=wrap;rounded=0;" parent="1" vertex="1">
          <mxGeometry x="340" y="485" width="110" height="20" as="geometry" />
        </mxCell>
        <mxCell id="bF2_etVDXhsBuvM0KvUb-136" style="edgeStyle=none;rounded=0;orthogonalLoop=1;jettySize=auto;html=1;entryX=0.5;entryY=0;entryDx=0;entryDy=0;exitX=0.5;exitY=1;exitDx=0;exitDy=0;" edge="1" parent="1" source="ImLfmbIOM0FkZJiw0mNa-1" target="lHOtrKICiSRHSmNMq4-3-25">
          <mxGeometry relative="1" as="geometry">
            <mxPoint x="410" y="330" as="sourcePoint" />
          </mxGeometry>
        </mxCell>
        <mxCell id="bF2_etVDXhsBuvM0KvUb-137" style="edgeStyle=none;rounded=0;orthogonalLoop=1;jettySize=auto;html=1;exitX=0.5;exitY=0;exitDx=0;exitDy=0;entryX=0.5;entryY=1;entryDx=0;entryDy=0;" edge="1" parent="1" source="ImLfmbIOM0FkZJiw0mNa-5" target="lHOtrKICiSRHSmNMq4-3-25">
          <mxGeometry relative="1" as="geometry">
            <mxPoint x="560" y="440" as="targetPoint" />
          </mxGeometry>
        </mxCell>
        <mxCell id="lHOtrKICiSRHSmNMq4-3-25" value="&#xa;Status Monitor" style="shape=module;align=left;spacingLeft=20;align=center;verticalAlign=top;" parent="1" vertex="1">
          <mxGeometry x="341.5" y="370" width="120" height="50" as="geometry" />
        </mxCell>
        <mxCell id="lHOtrKICiSRHSmNMq4-3-29" value="" style="endArrow=classic;html=1;exitX=1;exitY=0.5;exitDx=0;exitDy=0;entryX=0;entryY=0.5;entryDx=0;entryDy=0;" parent="1" source="lHOtrKICiSRHSmNMq4-3-25" edge="1" target="lHOtrKICiSRHSmNMq4-3-33">
          <mxGeometry width="50" height="50" relative="1" as="geometry">
            <mxPoint x="460" y="670" as="sourcePoint" />
            <mxPoint x="570" y="790" as="targetPoint" />
          </mxGeometry>
        </mxCell>
        <mxCell id="lHOtrKICiSRHSmNMq4-3-33" value="Go / No go ?" style="rhombus;whiteSpace=wrap;html=1;" parent="1" vertex="1">
          <mxGeometry x="670" y="370" width="150" height="50" as="geometry" />
        </mxCell>
        <mxCell id="bF2_etVDXhsBuvM0KvUb-28" value="" style="group" vertex="1" connectable="0" parent="1">
          <mxGeometry x="352.38" y="194" width="105" height="100" as="geometry" />
        </mxCell>
        <mxCell id="bF2_etVDXhsBuvM0KvUb-9" value="" style="rounded=1;whiteSpace=wrap;html=1;fillColor=#f5f5f5;strokeColor=#666666;fontColor=#333333;shadow=1;" vertex="1" parent="bF2_etVDXhsBuvM0KvUb-28">
          <mxGeometry width="105" height="100" as="geometry" />
        </mxCell>
        <mxCell id="bF2_etVDXhsBuvM0KvUb-16" value="" style="group" vertex="1" connectable="0" parent="bF2_etVDXhsBuvM0KvUb-28">
          <mxGeometry x="9.370000000000005" y="10" width="86.25" height="80" as="geometry" />
        </mxCell>
        <mxCell id="bF2_etVDXhsBuvM0KvUb-3" value="" style="shape=image;verticalLabelPosition=bottom;labelBackgroundColor=#ffffff;verticalAlign=top;aspect=fixed;imageAspect=0;image=data:image/png,iVBORw0KGgoAAAANSUhEUgAAAE8AAABJCAYAAAB8bXubAAAEc0lEQVR4Ae2cvWsVQRTF8z/aap1aW9PG1jQWviYWT/DbREiQCIEQMIUpFFRsAmohItjZr5wh57EMszv3ztdOcYvHfbs7OzP3N/eenX2Zydavf38H+6Qx2DJwaeDAzeBlZF7X8H78+T3g02t2dAnv25er4c3O8+HRjQfug+9X3392B7EreIiy09W7DTTCo8W1niKxG3gXr98P61urSXAEiDIo20MqLw7v84evw9Pt/Sg0wqN9eefxgHuXhLgYPGjYWNcIRWuP7h0upofN4UGzztdn6kiLQUWdrfWwKbzLt5ciXSOow7vPBnx4HLPQQ7TRKpWbwIM2QaNizvP6k+394ePZpw0EfMc5Xo/ZVnpYFR50DZoUc5bX1zdXLqWnIgepiTIsH7Mne8dV9bAKvBRdO7l/LNIsDAjKxsDxOlK5lh4WhwfN0Uw9oGl4o5iKtqnzkAKNHqJPpfWwGDw4o5l6QMNKOIM6NHqIPqYMVmgQs+G5NNpTpNG1rpWcVlAmtHqY24cseE7ABa9U1B9oFWCHRrHEOfeA2j1Q62Fq20nwMHXQ6NqL221fpSAhaJODFrPwZTw1ksJUwfN/Kop1CmlUQtekzvjl0LYmlbV6KIaH0ZT86kGgtaYHPqDYMfWQ/YpZ+Ch9oIjhSdP0aPegqq7FYE1dhx5KpzZ4Q5mqZ3xeDC82Yq11beyE5jsySDK1kdSZDQ+acvGqjx8nJQ6zDPo8p4csN2ez4eXOleY6V/sa+j6VUZK2s+FJGum5jMHL+NurwTN46csecmTBIs8izyJPNDPPSbPS91raWtpa2lrahnQlRxtC9fVyLscvez27XgPoQ5QMrsEzeOkPGz/ieGyRJ5jCEJZvDZ7BS09JSfT4Ecdjyb32wLAHRnp0MtJ8a5FnmpceVZLo8SOOx5J7TfNM89Kjk5HmW4s807z0qJJEjx9xPJbca5pnmpcenYw03zaJvFYbRiTOaMpgtdTcsjlJXdlpyxFbcgOdxFGWceuWBRtrWH7OiuFJ1rQBZC8rQn2nNStE4at/f+hYDA/rexllMdt6A13IsfE5tzZZsWpfuo5aDA+d0W6gwwJpaMvYkZbf0XbOhsFYX1XwUBnDf25VpR+ZtTfQ+U5KdY39hC+QG7+e2LEaHitEB3vZQMc+bQZWkaI5G2uS4bHDSA3pKnOMNKYHUk1hGxKLOuemHowyWvQ5V1Ky4dExJ8qKvbDaDSNsx7cAgLoIJWbxJC01eMXgwSmmTcyB8XXoIe7zocSOcQ/uHdc19526ltLWVF+KwmMjTrArbqDTbhistbGmCjxCREqV3EDX24bBqvAIMUUPEb28v9cNg03gAQK05vTh9P+JCukV/neURtdQR8vXw2bwGEWIKM3UJgQ1dA51jqOV7dW0zeHRGeih9MeGECyeQx258zX2SWsXg8eOxjbQEZJvMfVYesPg4vAA0c3ZFP8rBdpZcr7GgdTaLuCx03iqzunhErrGvoVsV/DYQf+nL+hayj9QYH21bJfw6CweBEs9DNiHOfsfnWSCDIjRNowAAAAASUVORK5CYII=;" vertex="1" parent="bF2_etVDXhsBuvM0KvUb-16">
          <mxGeometry x="11.25" y="56.22000000000003" width="19" height="17.56" as="geometry" />
        </mxCell>
        <mxCell id="bF2_etVDXhsBuvM0KvUb-19" value="" style="group" vertex="1" connectable="0" parent="bF2_etVDXhsBuvM0KvUb-16">
          <mxGeometry width="86.25" height="80" as="geometry" />
        </mxCell>
        <mxCell id="bF2_etVDXhsBuvM0KvUb-18" value="" style="group" vertex="1" connectable="0" parent="bF2_etVDXhsBuvM0KvUb-19">
          <mxGeometry width="86.25" height="80" as="geometry" />
        </mxCell>
        <mxCell id="XTH5G1iNW0wC6O9VaFi9-4" value="&lt;font style=&quot;font-size: 11px&quot;&gt;Service 1&amp;nbsp;&lt;/font&gt;" style="rounded=1;whiteSpace=wrap;html=1;align=right;" parent="bF2_etVDXhsBuvM0KvUb-18" vertex="1">
          <mxGeometry width="85.5" height="30" as="geometry" />
        </mxCell>
        <mxCell id="XTH5G1iNW0wC6O9VaFi9-6" value="&lt;span style=&quot;font-size: 11px&quot;&gt;Proxy&amp;nbsp; &amp;nbsp;&amp;nbsp;&lt;/span&gt;" style="rounded=1;whiteSpace=wrap;html=1;strokeColor=#82b366;fillColor=#EBFFEA;align=right;" parent="bF2_etVDXhsBuvM0KvUb-18" vertex="1">
          <mxGeometry x="0.75" y="50" width="85.5" height="30" as="geometry" />
        </mxCell>
        <mxCell id="XTH5G1iNW0wC6O9VaFi9-9" value="" style="edgeStyle=none;rounded=0;orthogonalLoop=1;jettySize=auto;html=1;entryX=0.25;entryY=1;entryDx=0;entryDy=0;" parent="bF2_etVDXhsBuvM0KvUb-18" target="XTH5G1iNW0wC6O9VaFi9-4" edge="1">
          <mxGeometry relative="1" as="geometry">
            <mxPoint x="21.25" y="50" as="sourcePoint" />
            <mxPoint x="21.25" y="40" as="targetPoint" />
          </mxGeometry>
        </mxCell>
        <mxCell id="XTH5G1iNW0wC6O9VaFi9-10" value="" style="edgeStyle=none;rounded=0;orthogonalLoop=1;jettySize=auto;html=1;exitX=0.75;exitY=1;exitDx=0;exitDy=0;" parent="bF2_etVDXhsBuvM0KvUb-18" source="XTH5G1iNW0wC6O9VaFi9-4" edge="1">
          <mxGeometry relative="1" as="geometry">
            <mxPoint x="31.25" y="60" as="sourcePoint" />
            <mxPoint x="64.25" y="50" as="targetPoint" />
          </mxGeometry>
        </mxCell>
        <mxCell id="bF2_etVDXhsBuvM0KvUb-27" value="" style="shape=image;verticalLabelPosition=bottom;labelBackgroundColor=#ffffff;verticalAlign=top;aspect=fixed;imageAspect=0;image=data:image/png,iVBORw0KGgoAAAANSUhEUgAAAE8AAABJCAYAAAB8bXubAAAEc0lEQVR4Ae2cvWsVQRTF8z/aap1aW9PG1jQWviYWT/DbREiQCIEQMIUpFFRsAmohItjZr5wh57EMszv3ztdOcYvHfbs7OzP3N/eenX2Zydavf38H+6Qx2DJwaeDAzeBlZF7X8H78+T3g02t2dAnv25er4c3O8+HRjQfug+9X3392B7EreIiy09W7DTTCo8W1niKxG3gXr98P61urSXAEiDIo20MqLw7v84evw9Pt/Sg0wqN9eefxgHuXhLgYPGjYWNcIRWuP7h0upofN4UGzztdn6kiLQUWdrfWwKbzLt5ciXSOow7vPBnx4HLPQQ7TRKpWbwIM2QaNizvP6k+394ePZpw0EfMc5Xo/ZVnpYFR50DZoUc5bX1zdXLqWnIgepiTIsH7Mne8dV9bAKvBRdO7l/LNIsDAjKxsDxOlK5lh4WhwfN0Uw9oGl4o5iKtqnzkAKNHqJPpfWwGDw4o5l6QMNKOIM6NHqIPqYMVmgQs+G5NNpTpNG1rpWcVlAmtHqY24cseE7ABa9U1B9oFWCHRrHEOfeA2j1Q62Fq20nwMHXQ6NqL221fpSAhaJODFrPwZTw1ksJUwfN/Kop1CmlUQtekzvjl0LYmlbV6KIaH0ZT86kGgtaYHPqDYMfWQ/YpZ+Ch9oIjhSdP0aPegqq7FYE1dhx5KpzZ4Q5mqZ3xeDC82Yq11beyE5jsySDK1kdSZDQ+acvGqjx8nJQ6zDPo8p4csN2ez4eXOleY6V/sa+j6VUZK2s+FJGum5jMHL+NurwTN46csecmTBIs8izyJPNDPPSbPS91raWtpa2lrahnQlRxtC9fVyLscvez27XgPoQ5QMrsEzeOkPGz/ieGyRJ5jCEJZvDZ7BS09JSfT4Ecdjyb32wLAHRnp0MtJ8a5FnmpceVZLo8SOOx5J7TfNM89Kjk5HmW4s807z0qJJEjx9xPJbca5pnmpcenYw03zaJvFYbRiTOaMpgtdTcsjlJXdlpyxFbcgOdxFGWceuWBRtrWH7OiuFJ1rQBZC8rQn2nNStE4at/f+hYDA/rexllMdt6A13IsfE5tzZZsWpfuo5aDA+d0W6gwwJpaMvYkZbf0XbOhsFYX1XwUBnDf25VpR+ZtTfQ+U5KdY39hC+QG7+e2LEaHitEB3vZQMc+bQZWkaI5G2uS4bHDSA3pKnOMNKYHUk1hGxKLOuemHowyWvQ5V1Ky4dExJ8qKvbDaDSNsx7cAgLoIJWbxJC01eMXgwSmmTcyB8XXoIe7zocSOcQ/uHdc19526ltLWVF+KwmMjTrArbqDTbhistbGmCjxCREqV3EDX24bBqvAIMUUPEb28v9cNg03gAQK05vTh9P+JCukV/neURtdQR8vXw2bwGEWIKM3UJgQ1dA51jqOV7dW0zeHRGeih9MeGECyeQx258zX2SWsXg8eOxjbQEZJvMfVYesPg4vAA0c3ZFP8rBdpZcr7GgdTaLuCx03iqzunhErrGvoVsV/DYQf+nL+hayj9QYH21bJfw6CweBEs9DNiHOfsfnWSCDIjRNowAAAAASUVORK5CYII=;" vertex="1" parent="bF2_etVDXhsBuvM0KvUb-18">
          <mxGeometry x="13.25" y="56.97000000000003" width="17.38" height="16.06" as="geometry" />
        </mxCell>
        <mxCell id="bF2_etVDXhsBuvM0KvUb-17" value="" style="shape=image;verticalLabelPosition=bottom;labelBackgroundColor=#ffffff;verticalAlign=top;aspect=fixed;imageAspect=0;image=data:image/png,iVBORw0KGgoAAAANSUhEUgAAAEoAAABCCAYAAADwg0AcAAAHyElEQVR4Ae2ciVPVOhSH/aefKOCKPMENQZ8gPFBZ5OGCICLIprI6gDCsgj4WFxBQFnEFdc6bX9/kelrSJmnae3GGM9NpbtLmnHxJ0+Qkvfu+fftGe4eawT7aEy0Ce6C0MBHtClBfvnyh9fV1Wltdo42NDfr69aum+cm7LKmgPn36RGNjY3S/8T6V/l1KOSdz6EDaAdr/x/4dR3p6Op0+dZquXb1GLS0tNDU1Rdvb28kj49EUO6jND5vU1dlFhYWFO2DIAKniykrLqL+/n7a3kgstNlDzc/NUfb06EjgyeOkH06muro6Wl5c9dR/Pz8hBvXnzhsrLy2MDJIN2+9Ztp4+LB9H/uUYKqvFeY1IBcWjo6x4/ehwbq0hAzc7M0rmz51IGiQMrKS6hd+/eRQ7MGlRPT8+uAMRhHco85Lxdo6RlBaqxMXWPGgfjF+7u7o6MVWhQd2rv7LqWJAP2sONhJLBCgaqvr/8tIAlwnY87rWEZg2pvb/+tIAlYQ0NDVrCMQI2Ojv6WkAArbX8aYYwXVrRBbaxv0NEjR61AVVZUOsY+6XuyI5/2tnZ6+/Yt1d2pc6UdP3acRkdGaW5uznoaVJBfEJaTvvegorzCVQDRpE3O3CtQXf1renPpr0uuAmQdz0rowoRYyOzsbCLeRC+/FhPyMKLVooaHh60NhLFcbt28lciz+HIxT6KTf55MpD16+CiRtri4mIjnhTcNv3r1KpGnbkALFNwdpsbIrudGpRLUlbIr3BStsBJUT3d0I29uUSpBoRKnp6a5OcqwElRubm7o1nQ+7zwNDAzQzL8zzsGtWVlZScQvLizyJHo5/zKRBs+nkK2trUQ8fFxHDh8JbRv8WiYSCGpkZCS0Iai1ifEJE1uMr+3q6rKyD32ergSCunrlqpUhukaEvW5mZsbKPriFdMUXFPzbsg7ZJI4bsba2RgsLC/Tx40daXV0lFJIfcI0gbWlpyRWPa/D4bW5uEt5WyEeILSi8XXXFF9Tg4KARqNLSUsIElB/ciNaWVqP8/CoE+QgBQK6vo6ODLl64aKRHd6jgC6rmnxpthadyTwnbfc99vX3a+flBQvzw0LCvDiRg1TsjPUNbF+DqiC+o3Bz9t53O1GCgf0Db+CBQ42PjynIdO3pMW5fumEoKKkz/1PKgxZmrYb4mDl6ioEcPUxb0F+IImlPyRw/DBaELZ7zFam/XakNChZzIOsHN9A1LQWECGlSrumlcqwwUWi0WNmWCPlL2CHFQtp25KMfnz59lJrjipKCGng4lBZSqI4UPSRRGnOMApeN+kYLCso8wzObMq8TboooKi3iybzgr65cnAbbEAerZs2e++kWCFNSD5gfGoDDLxwYLfgglOHtBYU+Bjpw5fcZlC/xWQr5//+7Sh+FCw90G1/U6FQ3viEqkoEwXMi8UXFDpceZ83OiwoMbH1W89OPu4LlUY81GVSEHBuaXKnKfn5OSo9FBvT68rz7Cg0H8GCd7YBw8cdOnitsrCeHGoRAqqtdV8FI0+p7mp2XVw5d5HD9t+dARbg3jheB+FqRDX2dTURHnn8lzX83v9wpj8q0QKKqrVX67cCwqvfmwgC5L5+fkdheagohoevHjxIsgMJ00KCqNfP/om8Vy7FxTyKSsr891dt7K8Qnl5O1tHHKCgSyVSUGF909iowQ+uXAYKsA4fOuzsqrtedZ3EgcfSr0I4qNevX7v0nT1z1vc+v/wQ/+PHD26qNCwF9fPnT2cdLChznobOUzV47GjvCFUIrgdhvBSCxNTZCLg6IgWFG03cFd7lJpnip4NPIwE1OTEpy94Vl30iW1vXjZobrnv9fviCMtmpkpmR6Tjc/JQgHgNSb+sI8xvumiCZnJw00qMzhoI+X1DPnz83Uog9lRh48oMXCAsMWMzE3gWcZQd8Q7J4xLW1tTlpyEcI5mhcX0FBgZHNqCjMJHTEFxRuNh3heluIjgE219gOD3Tnm7AxEJTt9h6TVY4wwEzd1d6K7O0NfjFwmwJBoWl7Mzf5XVRU5FoM4Iptw6gErBua2MOvxYAXjj9dCQSFTOAq5QpswtyoVK8UNzQ0cHOUYSUoDO9t4PB7uTWpBsVXoLldfmElKNxYUWG/5QfAuKQSFCbPpqIFanlpOZJWxY1LFSgsYOhMWbitCGuBwoVYaOSPUZgwFi2EYOO8yAPbioTAn4QxmUgDUCFRLHlh914Y0QaFzLEDRBQgzBlLQ3fr7zpeA+/9hZcKCR2sbGJbVVVFtbW1LoDe+3V+Y9tjWDEC9WHjA2Vn68+jdIxP1jWoCBsxAgVF+O4lWYWLSg/6pfW1X/uswgAzBgUlUTn2ogIRlA+W13XW7VTwQoFCpmOjY7u+ZaFPVPnJVIBEemhQyACDUduJc1BrsEnD9EbHxStAqM5WoJD5+/fvCbNwm0JFfS9cylF/qG0NStQERrtRF9g0P3zGEeWnZ6JsOEcGCplhQHm56HJKgFVWVsby5aeAFSkokSnW8vPz85MCrKSkhKanzfaMCztNzrGAEgZMTEw4S1Gmj5DqenxoXVNTQ/g2JlkSKyhRCOzo7evrc6BhHU8FQpaOVz3+RwF7pkwcbsIG23NSQHmNxDZCFBiLBjdv3CTsZ0ffhmkGPiDCBg78lwEWIvCNYBxfnXttUv1OCSiVUbsxfQ+UZq38BxMD4kLw9+eBAAAAAElFTkSuQmCC;" vertex="1" parent="bF2_etVDXhsBuvM0KvUb-19">
          <mxGeometry x="8.75" y="4.289999999999964" width="24" height="21.41" as="geometry" />
        </mxCell>
        <mxCell id="bF2_etVDXhsBuvM0KvUb-41" value="" style="group" vertex="1" connectable="0" parent="1">
          <mxGeometry x="657" y="193" width="105" height="100" as="geometry" />
        </mxCell>
        <mxCell id="bF2_etVDXhsBuvM0KvUb-96" value="" style="group" vertex="1" connectable="0" parent="bF2_etVDXhsBuvM0KvUb-41">
          <mxGeometry width="105" height="100" as="geometry" />
        </mxCell>
        <mxCell id="bF2_etVDXhsBuvM0KvUb-42" value="" style="rounded=1;whiteSpace=wrap;html=1;fillColor=#f5f5f5;strokeColor=#666666;fontColor=#333333;shadow=1;" vertex="1" parent="bF2_etVDXhsBuvM0KvUb-96">
          <mxGeometry width="105" height="100" as="geometry" />
        </mxCell>
        <mxCell id="bF2_etVDXhsBuvM0KvUb-43" value="" style="group" vertex="1" connectable="0" parent="bF2_etVDXhsBuvM0KvUb-96">
          <mxGeometry x="9.370000000000005" y="10" width="86.25" height="80" as="geometry" />
        </mxCell>
        <mxCell id="bF2_etVDXhsBuvM0KvUb-44" value="" style="shape=image;verticalLabelPosition=bottom;labelBackgroundColor=#ffffff;verticalAlign=top;aspect=fixed;imageAspect=0;image=data:image/png,iVBORw0KGgoAAAANSUhEUgAAAE8AAABJCAYAAAB8bXubAAAEc0lEQVR4Ae2cvWsVQRTF8z/aap1aW9PG1jQWviYWT/DbREiQCIEQMIUpFFRsAmohItjZr5wh57EMszv3ztdOcYvHfbs7OzP3N/eenX2Zydavf38H+6Qx2DJwaeDAzeBlZF7X8H78+T3g02t2dAnv25er4c3O8+HRjQfug+9X3392B7EreIiy09W7DTTCo8W1niKxG3gXr98P61urSXAEiDIo20MqLw7v84evw9Pt/Sg0wqN9eefxgHuXhLgYPGjYWNcIRWuP7h0upofN4UGzztdn6kiLQUWdrfWwKbzLt5ciXSOow7vPBnx4HLPQQ7TRKpWbwIM2QaNizvP6k+394ePZpw0EfMc5Xo/ZVnpYFR50DZoUc5bX1zdXLqWnIgepiTIsH7Mne8dV9bAKvBRdO7l/LNIsDAjKxsDxOlK5lh4WhwfN0Uw9oGl4o5iKtqnzkAKNHqJPpfWwGDw4o5l6QMNKOIM6NHqIPqYMVmgQs+G5NNpTpNG1rpWcVlAmtHqY24cseE7ABa9U1B9oFWCHRrHEOfeA2j1Q62Fq20nwMHXQ6NqL221fpSAhaJODFrPwZTw1ksJUwfN/Kop1CmlUQtekzvjl0LYmlbV6KIaH0ZT86kGgtaYHPqDYMfWQ/YpZ+Ch9oIjhSdP0aPegqq7FYE1dhx5KpzZ4Q5mqZ3xeDC82Yq11beyE5jsySDK1kdSZDQ+acvGqjx8nJQ6zDPo8p4csN2ez4eXOleY6V/sa+j6VUZK2s+FJGum5jMHL+NurwTN46csecmTBIs8izyJPNDPPSbPS91raWtpa2lrahnQlRxtC9fVyLscvez27XgPoQ5QMrsEzeOkPGz/ieGyRJ5jCEJZvDZ7BS09JSfT4Ecdjyb32wLAHRnp0MtJ8a5FnmpceVZLo8SOOx5J7TfNM89Kjk5HmW4s807z0qJJEjx9xPJbca5pnmpcenYw03zaJvFYbRiTOaMpgtdTcsjlJXdlpyxFbcgOdxFGWceuWBRtrWH7OiuFJ1rQBZC8rQn2nNStE4at/f+hYDA/rexllMdt6A13IsfE5tzZZsWpfuo5aDA+d0W6gwwJpaMvYkZbf0XbOhsFYX1XwUBnDf25VpR+ZtTfQ+U5KdY39hC+QG7+e2LEaHitEB3vZQMc+bQZWkaI5G2uS4bHDSA3pKnOMNKYHUk1hGxKLOuemHowyWvQ5V1Ky4dExJ8qKvbDaDSNsx7cAgLoIJWbxJC01eMXgwSmmTcyB8XXoIe7zocSOcQ/uHdc19526ltLWVF+KwmMjTrArbqDTbhistbGmCjxCREqV3EDX24bBqvAIMUUPEb28v9cNg03gAQK05vTh9P+JCukV/neURtdQR8vXw2bwGEWIKM3UJgQ1dA51jqOV7dW0zeHRGeih9MeGECyeQx258zX2SWsXg8eOxjbQEZJvMfVYesPg4vAA0c3ZFP8rBdpZcr7GgdTaLuCx03iqzunhErrGvoVsV/DYQf+nL+hayj9QYH21bJfw6CweBEs9DNiHOfsfnWSCDIjRNowAAAAASUVORK5CYII=;" vertex="1" parent="bF2_etVDXhsBuvM0KvUb-43">
          <mxGeometry x="11.25" y="56.22000000000003" width="19" height="17.56" as="geometry" />
        </mxCell>
        <mxCell id="bF2_etVDXhsBuvM0KvUb-45" value="" style="group" vertex="1" connectable="0" parent="bF2_etVDXhsBuvM0KvUb-43">
          <mxGeometry width="86.25" height="80" as="geometry" />
        </mxCell>
        <mxCell id="bF2_etVDXhsBuvM0KvUb-46" value="" style="group" vertex="1" connectable="0" parent="bF2_etVDXhsBuvM0KvUb-45">
          <mxGeometry width="86.25" height="80" as="geometry" />
        </mxCell>
        <mxCell id="bF2_etVDXhsBuvM0KvUb-47" value="&lt;font style=&quot;font-size: 11px&quot;&gt;Service N&amp;nbsp;&lt;/font&gt;" style="rounded=1;whiteSpace=wrap;html=1;align=right;" vertex="1" parent="bF2_etVDXhsBuvM0KvUb-46">
          <mxGeometry width="85.5" height="30" as="geometry" />
        </mxCell>
        <mxCell id="bF2_etVDXhsBuvM0KvUb-48" value="&lt;span style=&quot;font-size: 11px&quot;&gt;Proxy&amp;nbsp; &amp;nbsp;&amp;nbsp;&lt;/span&gt;" style="rounded=1;whiteSpace=wrap;html=1;strokeColor=#82b366;fillColor=#EBFFEA;align=right;" vertex="1" parent="bF2_etVDXhsBuvM0KvUb-46">
          <mxGeometry x="0.75" y="50" width="85.5" height="30" as="geometry" />
        </mxCell>
        <mxCell id="bF2_etVDXhsBuvM0KvUb-49" value="" style="edgeStyle=none;rounded=0;orthogonalLoop=1;jettySize=auto;html=1;entryX=0.25;entryY=1;entryDx=0;entryDy=0;" edge="1" parent="bF2_etVDXhsBuvM0KvUb-46" target="bF2_etVDXhsBuvM0KvUb-47">
          <mxGeometry relative="1" as="geometry">
            <mxPoint x="21.25" y="50" as="sourcePoint" />
            <mxPoint x="21.25" y="40" as="targetPoint" />
          </mxGeometry>
        </mxCell>
        <mxCell id="bF2_etVDXhsBuvM0KvUb-50" value="" style="edgeStyle=none;rounded=0;orthogonalLoop=1;jettySize=auto;html=1;exitX=0.75;exitY=1;exitDx=0;exitDy=0;" edge="1" parent="bF2_etVDXhsBuvM0KvUb-46" source="bF2_etVDXhsBuvM0KvUb-47">
          <mxGeometry relative="1" as="geometry">
            <mxPoint x="31.25" y="60" as="sourcePoint" />
            <mxPoint x="64.25" y="50" as="targetPoint" />
          </mxGeometry>
        </mxCell>
        <mxCell id="bF2_etVDXhsBuvM0KvUb-51" value="" style="shape=image;verticalLabelPosition=bottom;labelBackgroundColor=#ffffff;verticalAlign=top;aspect=fixed;imageAspect=0;image=data:image/png,iVBORw0KGgoAAAANSUhEUgAAAE8AAABJCAYAAAB8bXubAAAEc0lEQVR4Ae2cvWsVQRTF8z/aap1aW9PG1jQWviYWT/DbREiQCIEQMIUpFFRsAmohItjZr5wh57EMszv3ztdOcYvHfbs7OzP3N/eenX2Zydavf38H+6Qx2DJwaeDAzeBlZF7X8H78+T3g02t2dAnv25er4c3O8+HRjQfug+9X3392B7EreIiy09W7DTTCo8W1niKxG3gXr98P61urSXAEiDIo20MqLw7v84evw9Pt/Sg0wqN9eefxgHuXhLgYPGjYWNcIRWuP7h0upofN4UGzztdn6kiLQUWdrfWwKbzLt5ciXSOow7vPBnx4HLPQQ7TRKpWbwIM2QaNizvP6k+394ePZpw0EfMc5Xo/ZVnpYFR50DZoUc5bX1zdXLqWnIgepiTIsH7Mne8dV9bAKvBRdO7l/LNIsDAjKxsDxOlK5lh4WhwfN0Uw9oGl4o5iKtqnzkAKNHqJPpfWwGDw4o5l6QMNKOIM6NHqIPqYMVmgQs+G5NNpTpNG1rpWcVlAmtHqY24cseE7ABa9U1B9oFWCHRrHEOfeA2j1Q62Fq20nwMHXQ6NqL221fpSAhaJODFrPwZTw1ksJUwfN/Kop1CmlUQtekzvjl0LYmlbV6KIaH0ZT86kGgtaYHPqDYMfWQ/YpZ+Ch9oIjhSdP0aPegqq7FYE1dhx5KpzZ4Q5mqZ3xeDC82Yq11beyE5jsySDK1kdSZDQ+acvGqjx8nJQ6zDPo8p4csN2ez4eXOleY6V/sa+j6VUZK2s+FJGum5jMHL+NurwTN46csecmTBIs8izyJPNDPPSbPS91raWtpa2lrahnQlRxtC9fVyLscvez27XgPoQ5QMrsEzeOkPGz/ieGyRJ5jCEJZvDZ7BS09JSfT4Ecdjyb32wLAHRnp0MtJ8a5FnmpceVZLo8SOOx5J7TfNM89Kjk5HmW4s807z0qJJEjx9xPJbca5pnmpcenYw03zaJvFYbRiTOaMpgtdTcsjlJXdlpyxFbcgOdxFGWceuWBRtrWH7OiuFJ1rQBZC8rQn2nNStE4at/f+hYDA/rexllMdt6A13IsfE5tzZZsWpfuo5aDA+d0W6gwwJpaMvYkZbf0XbOhsFYX1XwUBnDf25VpR+ZtTfQ+U5KdY39hC+QG7+e2LEaHitEB3vZQMc+bQZWkaI5G2uS4bHDSA3pKnOMNKYHUk1hGxKLOuemHowyWvQ5V1Ky4dExJ8qKvbDaDSNsx7cAgLoIJWbxJC01eMXgwSmmTcyB8XXoIe7zocSOcQ/uHdc19526ltLWVF+KwmMjTrArbqDTbhistbGmCjxCREqV3EDX24bBqvAIMUUPEb28v9cNg03gAQK05vTh9P+JCukV/neURtdQR8vXw2bwGEWIKM3UJgQ1dA51jqOV7dW0zeHRGeih9MeGECyeQx258zX2SWsXg8eOxjbQEZJvMfVYesPg4vAA0c3ZFP8rBdpZcr7GgdTaLuCx03iqzunhErrGvoVsV/DYQf+nL+hayj9QYH21bJfw6CweBEs9DNiHOfsfnWSCDIjRNowAAAAASUVORK5CYII=;" vertex="1" parent="bF2_etVDXhsBuvM0KvUb-46">
          <mxGeometry x="13.25" y="56.97000000000003" width="17.38" height="16.06" as="geometry" />
        </mxCell>
        <mxCell id="bF2_etVDXhsBuvM0KvUb-52" value="" style="shape=image;verticalLabelPosition=bottom;labelBackgroundColor=#ffffff;verticalAlign=top;aspect=fixed;imageAspect=0;image=data:image/png,iVBORw0KGgoAAAANSUhEUgAAAEoAAABCCAYAAADwg0AcAAAHyElEQVR4Ae2ciVPVOhSH/aefKOCKPMENQZ8gPFBZ5OGCICLIprI6gDCsgj4WFxBQFnEFdc6bX9/kelrSJmnae3GGM9NpbtLmnHxJ0+Qkvfu+fftGe4eawT7aEy0Ce6C0MBHtClBfvnyh9fV1Wltdo42NDfr69aum+cm7LKmgPn36RGNjY3S/8T6V/l1KOSdz6EDaAdr/x/4dR3p6Op0+dZquXb1GLS0tNDU1Rdvb28kj49EUO6jND5vU1dlFhYWFO2DIAKniykrLqL+/n7a3kgstNlDzc/NUfb06EjgyeOkH06muro6Wl5c9dR/Pz8hBvXnzhsrLy2MDJIN2+9Ztp4+LB9H/uUYKqvFeY1IBcWjo6x4/ehwbq0hAzc7M0rmz51IGiQMrKS6hd+/eRQ7MGlRPT8+uAMRhHco85Lxdo6RlBaqxMXWPGgfjF+7u7o6MVWhQd2rv7LqWJAP2sONhJLBCgaqvr/8tIAlwnY87rWEZg2pvb/+tIAlYQ0NDVrCMQI2Ojv6WkAArbX8aYYwXVrRBbaxv0NEjR61AVVZUOsY+6XuyI5/2tnZ6+/Yt1d2pc6UdP3acRkdGaW5uznoaVJBfEJaTvvegorzCVQDRpE3O3CtQXf1renPpr0uuAmQdz0rowoRYyOzsbCLeRC+/FhPyMKLVooaHh60NhLFcbt28lciz+HIxT6KTf55MpD16+CiRtri4mIjnhTcNv3r1KpGnbkALFNwdpsbIrudGpRLUlbIr3BStsBJUT3d0I29uUSpBoRKnp6a5OcqwElRubm7o1nQ+7zwNDAzQzL8zzsGtWVlZScQvLizyJHo5/zKRBs+nkK2trUQ8fFxHDh8JbRv8WiYSCGpkZCS0Iai1ifEJE1uMr+3q6rKyD32ergSCunrlqpUhukaEvW5mZsbKPriFdMUXFPzbsg7ZJI4bsba2RgsLC/Tx40daXV0lFJIfcI0gbWlpyRWPa/D4bW5uEt5WyEeILSi8XXXFF9Tg4KARqNLSUsIElB/ciNaWVqP8/CoE+QgBQK6vo6ODLl64aKRHd6jgC6rmnxpthadyTwnbfc99vX3a+flBQvzw0LCvDiRg1TsjPUNbF+DqiC+o3Bz9t53O1GCgf0Db+CBQ42PjynIdO3pMW5fumEoKKkz/1PKgxZmrYb4mDl6ioEcPUxb0F+IImlPyRw/DBaELZ7zFam/XakNChZzIOsHN9A1LQWECGlSrumlcqwwUWi0WNmWCPlL2CHFQtp25KMfnz59lJrjipKCGng4lBZSqI4UPSRRGnOMApeN+kYLCso8wzObMq8TboooKi3iybzgr65cnAbbEAerZs2e++kWCFNSD5gfGoDDLxwYLfgglOHtBYU+Bjpw5fcZlC/xWQr5//+7Sh+FCw90G1/U6FQ3viEqkoEwXMi8UXFDpceZ83OiwoMbH1W89OPu4LlUY81GVSEHBuaXKnKfn5OSo9FBvT68rz7Cg0H8GCd7YBw8cdOnitsrCeHGoRAqqtdV8FI0+p7mp2XVw5d5HD9t+dARbg3jheB+FqRDX2dTURHnn8lzX83v9wpj8q0QKKqrVX67cCwqvfmwgC5L5+fkdheagohoevHjxIsgMJ00KCqNfP/om8Vy7FxTyKSsr891dt7K8Qnl5O1tHHKCgSyVSUGF909iowQ+uXAYKsA4fOuzsqrtedZ3EgcfSr0I4qNevX7v0nT1z1vc+v/wQ/+PHD26qNCwF9fPnT2cdLChznobOUzV47GjvCFUIrgdhvBSCxNTZCLg6IgWFG03cFd7lJpnip4NPIwE1OTEpy94Vl30iW1vXjZobrnv9fviCMtmpkpmR6Tjc/JQgHgNSb+sI8xvumiCZnJw00qMzhoI+X1DPnz83Uog9lRh48oMXCAsMWMzE3gWcZQd8Q7J4xLW1tTlpyEcI5mhcX0FBgZHNqCjMJHTEFxRuNh3heluIjgE219gOD3Tnm7AxEJTt9h6TVY4wwEzd1d6K7O0NfjFwmwJBoWl7Mzf5XVRU5FoM4Iptw6gErBua2MOvxYAXjj9dCQSFTOAq5QpswtyoVK8UNzQ0cHOUYSUoDO9t4PB7uTWpBsVXoLldfmElKNxYUWG/5QfAuKQSFCbPpqIFanlpOZJWxY1LFSgsYOhMWbitCGuBwoVYaOSPUZgwFi2EYOO8yAPbioTAn4QxmUgDUCFRLHlh914Y0QaFzLEDRBQgzBlLQ3fr7zpeA+/9hZcKCR2sbGJbVVVFtbW1LoDe+3V+Y9tjWDEC9WHjA2Vn68+jdIxP1jWoCBsxAgVF+O4lWYWLSg/6pfW1X/uswgAzBgUlUTn2ogIRlA+W13XW7VTwQoFCpmOjY7u+ZaFPVPnJVIBEemhQyACDUduJc1BrsEnD9EbHxStAqM5WoJD5+/fvCbNwm0JFfS9cylF/qG0NStQERrtRF9g0P3zGEeWnZ6JsOEcGCplhQHm56HJKgFVWVsby5aeAFSkokSnW8vPz85MCrKSkhKanzfaMCztNzrGAEgZMTEw4S1Gmj5DqenxoXVNTQ/g2JlkSKyhRCOzo7evrc6BhHU8FQpaOVz3+RwF7pkwcbsIG23NSQHmNxDZCFBiLBjdv3CTsZ0ffhmkGPiDCBg78lwEWIvCNYBxfnXttUv1OCSiVUbsxfQ+UZq38BxMD4kLw9+eBAAAAAElFTkSuQmCC;" vertex="1" parent="bF2_etVDXhsBuvM0KvUb-45">
          <mxGeometry x="8.75" y="4.289999999999964" width="24" height="21.41" as="geometry" />
        </mxCell>
        <mxCell id="bF2_etVDXhsBuvM0KvUb-53" value="&lt;b&gt;&lt;i&gt;Service Group 1&lt;/i&gt;&lt;/b&gt;" style="text;html=1;strokeColor=none;fillColor=none;align=center;verticalAlign=middle;whiteSpace=wrap;rounded=0;" vertex="1" parent="1">
          <mxGeometry x="340" y="165" width="110" height="20" as="geometry" />
        </mxCell>
        <mxCell id="bF2_etVDXhsBuvM0KvUb-57" value="" style="group" vertex="1" connectable="0" parent="1">
          <mxGeometry x="660" y="512.5" width="105" height="100" as="geometry" />
        </mxCell>
        <mxCell id="bF2_etVDXhsBuvM0KvUb-95" value="" style="group" vertex="1" connectable="0" parent="bF2_etVDXhsBuvM0KvUb-57">
          <mxGeometry width="105" height="100" as="geometry" />
        </mxCell>
        <mxCell id="bF2_etVDXhsBuvM0KvUb-58" value="" style="rounded=1;whiteSpace=wrap;html=1;fillColor=#f5f5f5;strokeColor=#666666;fontColor=#333333;shadow=1;" vertex="1" parent="bF2_etVDXhsBuvM0KvUb-95">
          <mxGeometry width="105" height="100" as="geometry" />
        </mxCell>
        <mxCell id="bF2_etVDXhsBuvM0KvUb-59" value="" style="group" vertex="1" connectable="0" parent="bF2_etVDXhsBuvM0KvUb-95">
          <mxGeometry x="9.370000000000005" y="10" width="86.25" height="80" as="geometry" />
        </mxCell>
        <mxCell id="bF2_etVDXhsBuvM0KvUb-60" value="" style="shape=image;verticalLabelPosition=bottom;labelBackgroundColor=#ffffff;verticalAlign=top;aspect=fixed;imageAspect=0;image=data:image/png,iVBORw0KGgoAAAANSUhEUgAAAE8AAABJCAYAAAB8bXubAAAEc0lEQVR4Ae2cvWsVQRTF8z/aap1aW9PG1jQWviYWT/DbREiQCIEQMIUpFFRsAmohItjZr5wh57EMszv3ztdOcYvHfbs7OzP3N/eenX2Zydavf38H+6Qx2DJwaeDAzeBlZF7X8H78+T3g02t2dAnv25er4c3O8+HRjQfug+9X3392B7EreIiy09W7DTTCo8W1niKxG3gXr98P61urSXAEiDIo20MqLw7v84evw9Pt/Sg0wqN9eefxgHuXhLgYPGjYWNcIRWuP7h0upofN4UGzztdn6kiLQUWdrfWwKbzLt5ciXSOow7vPBnx4HLPQQ7TRKpWbwIM2QaNizvP6k+394ePZpw0EfMc5Xo/ZVnpYFR50DZoUc5bX1zdXLqWnIgepiTIsH7Mne8dV9bAKvBRdO7l/LNIsDAjKxsDxOlK5lh4WhwfN0Uw9oGl4o5iKtqnzkAKNHqJPpfWwGDw4o5l6QMNKOIM6NHqIPqYMVmgQs+G5NNpTpNG1rpWcVlAmtHqY24cseE7ABa9U1B9oFWCHRrHEOfeA2j1Q62Fq20nwMHXQ6NqL221fpSAhaJODFrPwZTw1ksJUwfN/Kop1CmlUQtekzvjl0LYmlbV6KIaH0ZT86kGgtaYHPqDYMfWQ/YpZ+Ch9oIjhSdP0aPegqq7FYE1dhx5KpzZ4Q5mqZ3xeDC82Yq11beyE5jsySDK1kdSZDQ+acvGqjx8nJQ6zDPo8p4csN2ez4eXOleY6V/sa+j6VUZK2s+FJGum5jMHL+NurwTN46csecmTBIs8izyJPNDPPSbPS91raWtpa2lrahnQlRxtC9fVyLscvez27XgPoQ5QMrsEzeOkPGz/ieGyRJ5jCEJZvDZ7BS09JSfT4Ecdjyb32wLAHRnp0MtJ8a5FnmpceVZLo8SOOx5J7TfNM89Kjk5HmW4s807z0qJJEjx9xPJbca5pnmpcenYw03zaJvFYbRiTOaMpgtdTcsjlJXdlpyxFbcgOdxFGWceuWBRtrWH7OiuFJ1rQBZC8rQn2nNStE4at/f+hYDA/rexllMdt6A13IsfE5tzZZsWpfuo5aDA+d0W6gwwJpaMvYkZbf0XbOhsFYX1XwUBnDf25VpR+ZtTfQ+U5KdY39hC+QG7+e2LEaHitEB3vZQMc+bQZWkaI5G2uS4bHDSA3pKnOMNKYHUk1hGxKLOuemHowyWvQ5V1Ky4dExJ8qKvbDaDSNsx7cAgLoIJWbxJC01eMXgwSmmTcyB8XXoIe7zocSOcQ/uHdc19526ltLWVF+KwmMjTrArbqDTbhistbGmCjxCREqV3EDX24bBqvAIMUUPEb28v9cNg03gAQK05vTh9P+JCukV/neURtdQR8vXw2bwGEWIKM3UJgQ1dA51jqOV7dW0zeHRGeih9MeGECyeQx258zX2SWsXg8eOxjbQEZJvMfVYesPg4vAA0c3ZFP8rBdpZcr7GgdTaLuCx03iqzunhErrGvoVsV/DYQf+nL+hayj9QYH21bJfw6CweBEs9DNiHOfsfnWSCDIjRNowAAAAASUVORK5CYII=;" vertex="1" parent="bF2_etVDXhsBuvM0KvUb-59">
          <mxGeometry x="11.25" y="56.22000000000003" width="19" height="17.56" as="geometry" />
        </mxCell>
        <mxCell id="bF2_etVDXhsBuvM0KvUb-61" value="" style="group" vertex="1" connectable="0" parent="bF2_etVDXhsBuvM0KvUb-59">
          <mxGeometry width="86.25" height="80" as="geometry" />
        </mxCell>
        <mxCell id="bF2_etVDXhsBuvM0KvUb-62" value="" style="group" vertex="1" connectable="0" parent="bF2_etVDXhsBuvM0KvUb-61">
          <mxGeometry width="86.25" height="80" as="geometry" />
        </mxCell>
        <mxCell id="bF2_etVDXhsBuvM0KvUb-63" value="&lt;font style=&quot;font-size: 11px&quot;&gt;Service N&amp;nbsp;&lt;/font&gt;" style="rounded=1;whiteSpace=wrap;html=1;align=right;" vertex="1" parent="bF2_etVDXhsBuvM0KvUb-62">
          <mxGeometry width="85.5" height="30" as="geometry" />
        </mxCell>
        <mxCell id="bF2_etVDXhsBuvM0KvUb-64" value="&lt;span style=&quot;font-size: 11px&quot;&gt;Proxy&amp;nbsp; &amp;nbsp;&amp;nbsp;&lt;/span&gt;" style="rounded=1;whiteSpace=wrap;html=1;strokeColor=#82b366;fillColor=#EBFFEA;align=right;" vertex="1" parent="bF2_etVDXhsBuvM0KvUb-62">
          <mxGeometry x="0.75" y="50" width="85.5" height="30" as="geometry" />
        </mxCell>
        <mxCell id="bF2_etVDXhsBuvM0KvUb-65" value="" style="edgeStyle=none;rounded=0;orthogonalLoop=1;jettySize=auto;html=1;entryX=0.25;entryY=1;entryDx=0;entryDy=0;" edge="1" parent="bF2_etVDXhsBuvM0KvUb-62" target="bF2_etVDXhsBuvM0KvUb-63">
          <mxGeometry relative="1" as="geometry">
            <mxPoint x="21.25" y="50" as="sourcePoint" />
            <mxPoint x="21.25" y="40" as="targetPoint" />
          </mxGeometry>
        </mxCell>
        <mxCell id="bF2_etVDXhsBuvM0KvUb-66" value="" style="edgeStyle=none;rounded=0;orthogonalLoop=1;jettySize=auto;html=1;exitX=0.75;exitY=1;exitDx=0;exitDy=0;" edge="1" parent="bF2_etVDXhsBuvM0KvUb-62" source="bF2_etVDXhsBuvM0KvUb-63">
          <mxGeometry relative="1" as="geometry">
            <mxPoint x="31.25" y="60" as="sourcePoint" />
            <mxPoint x="64.25" y="50" as="targetPoint" />
          </mxGeometry>
        </mxCell>
        <mxCell id="bF2_etVDXhsBuvM0KvUb-67" value="" style="shape=image;verticalLabelPosition=bottom;labelBackgroundColor=#ffffff;verticalAlign=top;aspect=fixed;imageAspect=0;image=data:image/png,iVBORw0KGgoAAAANSUhEUgAAAE8AAABJCAYAAAB8bXubAAAEc0lEQVR4Ae2cvWsVQRTF8z/aap1aW9PG1jQWviYWT/DbREiQCIEQMIUpFFRsAmohItjZr5wh57EMszv3ztdOcYvHfbs7OzP3N/eenX2Zydavf38H+6Qx2DJwaeDAzeBlZF7X8H78+T3g02t2dAnv25er4c3O8+HRjQfug+9X3392B7EreIiy09W7DTTCo8W1niKxG3gXr98P61urSXAEiDIo20MqLw7v84evw9Pt/Sg0wqN9eefxgHuXhLgYPGjYWNcIRWuP7h0upofN4UGzztdn6kiLQUWdrfWwKbzLt5ciXSOow7vPBnx4HLPQQ7TRKpWbwIM2QaNizvP6k+394ePZpw0EfMc5Xo/ZVnpYFR50DZoUc5bX1zdXLqWnIgepiTIsH7Mne8dV9bAKvBRdO7l/LNIsDAjKxsDxOlK5lh4WhwfN0Uw9oGl4o5iKtqnzkAKNHqJPpfWwGDw4o5l6QMNKOIM6NHqIPqYMVmgQs+G5NNpTpNG1rpWcVlAmtHqY24cseE7ABa9U1B9oFWCHRrHEOfeA2j1Q62Fq20nwMHXQ6NqL221fpSAhaJODFrPwZTw1ksJUwfN/Kop1CmlUQtekzvjl0LYmlbV6KIaH0ZT86kGgtaYHPqDYMfWQ/YpZ+Ch9oIjhSdP0aPegqq7FYE1dhx5KpzZ4Q5mqZ3xeDC82Yq11beyE5jsySDK1kdSZDQ+acvGqjx8nJQ6zDPo8p4csN2ez4eXOleY6V/sa+j6VUZK2s+FJGum5jMHL+NurwTN46csecmTBIs8izyJPNDPPSbPS91raWtpa2lrahnQlRxtC9fVyLscvez27XgPoQ5QMrsEzeOkPGz/ieGyRJ5jCEJZvDZ7BS09JSfT4Ecdjyb32wLAHRnp0MtJ8a5FnmpceVZLo8SOOx5J7TfNM89Kjk5HmW4s807z0qJJEjx9xPJbca5pnmpcenYw03zaJvFYbRiTOaMpgtdTcsjlJXdlpyxFbcgOdxFGWceuWBRtrWH7OiuFJ1rQBZC8rQn2nNStE4at/f+hYDA/rexllMdt6A13IsfE5tzZZsWpfuo5aDA+d0W6gwwJpaMvYkZbf0XbOhsFYX1XwUBnDf25VpR+ZtTfQ+U5KdY39hC+QG7+e2LEaHitEB3vZQMc+bQZWkaI5G2uS4bHDSA3pKnOMNKYHUk1hGxKLOuemHowyWvQ5V1Ky4dExJ8qKvbDaDSNsx7cAgLoIJWbxJC01eMXgwSmmTcyB8XXoIe7zocSOcQ/uHdc19526ltLWVF+KwmMjTrArbqDTbhistbGmCjxCREqV3EDX24bBqvAIMUUPEb28v9cNg03gAQK05vTh9P+JCukV/neURtdQR8vXw2bwGEWIKM3UJgQ1dA51jqOV7dW0zeHRGeih9MeGECyeQx258zX2SWsXg8eOxjbQEZJvMfVYesPg4vAA0c3ZFP8rBdpZcr7GgdTaLuCx03iqzunhErrGvoVsV/DYQf+nL+hayj9QYH21bJfw6CweBEs9DNiHOfsfnWSCDIjRNowAAAAASUVORK5CYII=;" vertex="1" parent="bF2_etVDXhsBuvM0KvUb-62">
          <mxGeometry x="13.25" y="56.97000000000003" width="17.38" height="16.06" as="geometry" />
        </mxCell>
        <mxCell id="bF2_etVDXhsBuvM0KvUb-68" value="" style="shape=image;verticalLabelPosition=bottom;labelBackgroundColor=#ffffff;verticalAlign=top;aspect=fixed;imageAspect=0;image=data:image/png,iVBORw0KGgoAAAANSUhEUgAAAEoAAABCCAYAAADwg0AcAAAHyElEQVR4Ae2ciVPVOhSH/aefKOCKPMENQZ8gPFBZ5OGCICLIprI6gDCsgj4WFxBQFnEFdc6bX9/kelrSJmnae3GGM9NpbtLmnHxJ0+Qkvfu+fftGe4eawT7aEy0Ce6C0MBHtClBfvnyh9fV1Wltdo42NDfr69aum+cm7LKmgPn36RGNjY3S/8T6V/l1KOSdz6EDaAdr/x/4dR3p6Op0+dZquXb1GLS0tNDU1Rdvb28kj49EUO6jND5vU1dlFhYWFO2DIAKniykrLqL+/n7a3kgstNlDzc/NUfb06EjgyeOkH06muro6Wl5c9dR/Pz8hBvXnzhsrLy2MDJIN2+9Ztp4+LB9H/uUYKqvFeY1IBcWjo6x4/ehwbq0hAzc7M0rmz51IGiQMrKS6hd+/eRQ7MGlRPT8+uAMRhHco85Lxdo6RlBaqxMXWPGgfjF+7u7o6MVWhQd2rv7LqWJAP2sONhJLBCgaqvr/8tIAlwnY87rWEZg2pvb/+tIAlYQ0NDVrCMQI2Ojv6WkAArbX8aYYwXVrRBbaxv0NEjR61AVVZUOsY+6XuyI5/2tnZ6+/Yt1d2pc6UdP3acRkdGaW5uznoaVJBfEJaTvvegorzCVQDRpE3O3CtQXf1renPpr0uuAmQdz0rowoRYyOzsbCLeRC+/FhPyMKLVooaHh60NhLFcbt28lciz+HIxT6KTf55MpD16+CiRtri4mIjnhTcNv3r1KpGnbkALFNwdpsbIrudGpRLUlbIr3BStsBJUT3d0I29uUSpBoRKnp6a5OcqwElRubm7o1nQ+7zwNDAzQzL8zzsGtWVlZScQvLizyJHo5/zKRBs+nkK2trUQ8fFxHDh8JbRv8WiYSCGpkZCS0Iai1ifEJE1uMr+3q6rKyD32ergSCunrlqpUhukaEvW5mZsbKPriFdMUXFPzbsg7ZJI4bsba2RgsLC/Tx40daXV0lFJIfcI0gbWlpyRWPa/D4bW5uEt5WyEeILSi8XXXFF9Tg4KARqNLSUsIElB/ciNaWVqP8/CoE+QgBQK6vo6ODLl64aKRHd6jgC6rmnxpthadyTwnbfc99vX3a+flBQvzw0LCvDiRg1TsjPUNbF+DqiC+o3Bz9t53O1GCgf0Db+CBQ42PjynIdO3pMW5fumEoKKkz/1PKgxZmrYb4mDl6ioEcPUxb0F+IImlPyRw/DBaELZ7zFam/XakNChZzIOsHN9A1LQWECGlSrumlcqwwUWi0WNmWCPlL2CHFQtp25KMfnz59lJrjipKCGng4lBZSqI4UPSRRGnOMApeN+kYLCso8wzObMq8TboooKi3iybzgr65cnAbbEAerZs2e++kWCFNSD5gfGoDDLxwYLfgglOHtBYU+Bjpw5fcZlC/xWQr5//+7Sh+FCw90G1/U6FQ3viEqkoEwXMi8UXFDpceZ83OiwoMbH1W89OPu4LlUY81GVSEHBuaXKnKfn5OSo9FBvT68rz7Cg0H8GCd7YBw8cdOnitsrCeHGoRAqqtdV8FI0+p7mp2XVw5d5HD9t+dARbg3jheB+FqRDX2dTURHnn8lzX83v9wpj8q0QKKqrVX67cCwqvfmwgC5L5+fkdheagohoevHjxIsgMJ00KCqNfP/om8Vy7FxTyKSsr891dt7K8Qnl5O1tHHKCgSyVSUGF909iowQ+uXAYKsA4fOuzsqrtedZ3EgcfSr0I4qNevX7v0nT1z1vc+v/wQ/+PHD26qNCwF9fPnT2cdLChznobOUzV47GjvCFUIrgdhvBSCxNTZCLg6IgWFG03cFd7lJpnip4NPIwE1OTEpy94Vl30iW1vXjZobrnv9fviCMtmpkpmR6Tjc/JQgHgNSb+sI8xvumiCZnJw00qMzhoI+X1DPnz83Uog9lRh48oMXCAsMWMzE3gWcZQd8Q7J4xLW1tTlpyEcI5mhcX0FBgZHNqCjMJHTEFxRuNh3heluIjgE219gOD3Tnm7AxEJTt9h6TVY4wwEzd1d6K7O0NfjFwmwJBoWl7Mzf5XVRU5FoM4Iptw6gErBua2MOvxYAXjj9dCQSFTOAq5QpswtyoVK8UNzQ0cHOUYSUoDO9t4PB7uTWpBsVXoLldfmElKNxYUWG/5QfAuKQSFCbPpqIFanlpOZJWxY1LFSgsYOhMWbitCGuBwoVYaOSPUZgwFi2EYOO8yAPbioTAn4QxmUgDUCFRLHlh914Y0QaFzLEDRBQgzBlLQ3fr7zpeA+/9hZcKCR2sbGJbVVVFtbW1LoDe+3V+Y9tjWDEC9WHjA2Vn68+jdIxP1jWoCBsxAgVF+O4lWYWLSg/6pfW1X/uswgAzBgUlUTn2ogIRlA+W13XW7VTwQoFCpmOjY7u+ZaFPVPnJVIBEemhQyACDUduJc1BrsEnD9EbHxStAqM5WoJD5+/fvCbNwm0JFfS9cylF/qG0NStQERrtRF9g0P3zGEeWnZ6JsOEcGCplhQHm56HJKgFVWVsby5aeAFSkokSnW8vPz85MCrKSkhKanzfaMCztNzrGAEgZMTEw4S1Gmj5DqenxoXVNTQ/g2JlkSKyhRCOzo7evrc6BhHU8FQpaOVz3+RwF7pkwcbsIG23NSQHmNxDZCFBiLBjdv3CTsZ0ffhmkGPiDCBg78lwEWIvCNYBxfnXttUv1OCSiVUbsxfQ+UZq38BxMD4kLw9+eBAAAAAElFTkSuQmCC;" vertex="1" parent="bF2_etVDXhsBuvM0KvUb-61">
          <mxGeometry x="8.75" y="4.289999999999964" width="24" height="21.41" as="geometry" />
        </mxCell>
        <mxCell id="bF2_etVDXhsBuvM0KvUb-81" value="" style="rounded=1;whiteSpace=wrap;html=1;fillColor=#f5f5f5;strokeColor=#666666;fontColor=#333333;shadow=1;" vertex="1" parent="1">
          <mxGeometry x="349" y="515" width="105" height="100" as="geometry" />
        </mxCell>
        <mxCell id="bF2_etVDXhsBuvM0KvUb-82" value="" style="group" vertex="1" connectable="0" parent="1">
          <mxGeometry x="357.37" y="525" width="86.25" height="80" as="geometry" />
        </mxCell>
        <mxCell id="bF2_etVDXhsBuvM0KvUb-83" value="" style="shape=image;verticalLabelPosition=bottom;labelBackgroundColor=#ffffff;verticalAlign=top;aspect=fixed;imageAspect=0;image=data:image/png,iVBORw0KGgoAAAANSUhEUgAAAE8AAABJCAYAAAB8bXubAAAEc0lEQVR4Ae2cvWsVQRTF8z/aap1aW9PG1jQWviYWT/DbREiQCIEQMIUpFFRsAmohItjZr5wh57EMszv3ztdOcYvHfbs7OzP3N/eenX2Zydavf38H+6Qx2DJwaeDAzeBlZF7X8H78+T3g02t2dAnv25er4c3O8+HRjQfug+9X3392B7EreIiy09W7DTTCo8W1niKxG3gXr98P61urSXAEiDIo20MqLw7v84evw9Pt/Sg0wqN9eefxgHuXhLgYPGjYWNcIRWuP7h0upofN4UGzztdn6kiLQUWdrfWwKbzLt5ciXSOow7vPBnx4HLPQQ7TRKpWbwIM2QaNizvP6k+394ePZpw0EfMc5Xo/ZVnpYFR50DZoUc5bX1zdXLqWnIgepiTIsH7Mne8dV9bAKvBRdO7l/LNIsDAjKxsDxOlK5lh4WhwfN0Uw9oGl4o5iKtqnzkAKNHqJPpfWwGDw4o5l6QMNKOIM6NHqIPqYMVmgQs+G5NNpTpNG1rpWcVlAmtHqY24cseE7ABa9U1B9oFWCHRrHEOfeA2j1Q62Fq20nwMHXQ6NqL221fpSAhaJODFrPwZTw1ksJUwfN/Kop1CmlUQtekzvjl0LYmlbV6KIaH0ZT86kGgtaYHPqDYMfWQ/YpZ+Ch9oIjhSdP0aPegqq7FYE1dhx5KpzZ4Q5mqZ3xeDC82Yq11beyE5jsySDK1kdSZDQ+acvGqjx8nJQ6zDPo8p4csN2ez4eXOleY6V/sa+j6VUZK2s+FJGum5jMHL+NurwTN46csecmTBIs8izyJPNDPPSbPS91raWtpa2lrahnQlRxtC9fVyLscvez27XgPoQ5QMrsEzeOkPGz/ieGyRJ5jCEJZvDZ7BS09JSfT4Ecdjyb32wLAHRnp0MtJ8a5FnmpceVZLo8SOOx5J7TfNM89Kjk5HmW4s807z0qJJEjx9xPJbca5pnmpcenYw03zaJvFYbRiTOaMpgtdTcsjlJXdlpyxFbcgOdxFGWceuWBRtrWH7OiuFJ1rQBZC8rQn2nNStE4at/f+hYDA/rexllMdt6A13IsfE5tzZZsWpfuo5aDA+d0W6gwwJpaMvYkZbf0XbOhsFYX1XwUBnDf25VpR+ZtTfQ+U5KdY39hC+QG7+e2LEaHitEB3vZQMc+bQZWkaI5G2uS4bHDSA3pKnOMNKYHUk1hGxKLOuemHowyWvQ5V1Ky4dExJ8qKvbDaDSNsx7cAgLoIJWbxJC01eMXgwSmmTcyB8XXoIe7zocSOcQ/uHdc19526ltLWVF+KwmMjTrArbqDTbhistbGmCjxCREqV3EDX24bBqvAIMUUPEb28v9cNg03gAQK05vTh9P+JCukV/neURtdQR8vXw2bwGEWIKM3UJgQ1dA51jqOV7dW0zeHRGeih9MeGECyeQx258zX2SWsXg8eOxjbQEZJvMfVYesPg4vAA0c3ZFP8rBdpZcr7GgdTaLuCx03iqzunhErrGvoVsV/DYQf+nL+hayj9QYH21bJfw6CweBEs9DNiHOfsfnWSCDIjRNowAAAAASUVORK5CYII=;" vertex="1" parent="bF2_etVDXhsBuvM0KvUb-82">
          <mxGeometry x="11.25" y="56.22000000000003" width="19" height="17.56" as="geometry" />
        </mxCell>
        <mxCell id="bF2_etVDXhsBuvM0KvUb-84" value="" style="group" vertex="1" connectable="0" parent="bF2_etVDXhsBuvM0KvUb-82">
          <mxGeometry width="86.25" height="80" as="geometry" />
        </mxCell>
        <mxCell id="bF2_etVDXhsBuvM0KvUb-85" value="" style="group" vertex="1" connectable="0" parent="bF2_etVDXhsBuvM0KvUb-84">
          <mxGeometry width="86.25" height="80" as="geometry" />
        </mxCell>
        <mxCell id="bF2_etVDXhsBuvM0KvUb-86" value="&lt;font&gt;&lt;font style=&quot;font-size: 11px&quot;&gt;Service 1&lt;/font&gt;&lt;span style=&quot;font-size: 11px&quot;&gt;&amp;nbsp;&lt;/span&gt;&lt;br&gt;&lt;div style=&quot;text-align: center&quot;&gt;&lt;span&gt;&lt;b&gt;&lt;font style=&quot;font-size: 10px&quot;&gt;&lt;i&gt;v2&amp;nbsp;&lt;/i&gt;&lt;/font&gt;&lt;/b&gt;&lt;/span&gt;&lt;/div&gt;&lt;/font&gt;" style="rounded=1;whiteSpace=wrap;html=1;align=right;" vertex="1" parent="bF2_etVDXhsBuvM0KvUb-85">
          <mxGeometry width="85.5" height="30" as="geometry" />
        </mxCell>
        <mxCell id="bF2_etVDXhsBuvM0KvUb-87" value="&lt;span style=&quot;font-size: 11px&quot;&gt;Proxy&amp;nbsp; &amp;nbsp;&amp;nbsp;&lt;/span&gt;" style="rounded=1;whiteSpace=wrap;html=1;strokeColor=#82b366;fillColor=#EBFFEA;align=right;" vertex="1" parent="bF2_etVDXhsBuvM0KvUb-85">
          <mxGeometry x="0.75" y="50" width="85.5" height="30" as="geometry" />
        </mxCell>
        <mxCell id="bF2_etVDXhsBuvM0KvUb-88" value="" style="edgeStyle=none;rounded=0;orthogonalLoop=1;jettySize=auto;html=1;entryX=0.25;entryY=1;entryDx=0;entryDy=0;" edge="1" parent="bF2_etVDXhsBuvM0KvUb-85" target="bF2_etVDXhsBuvM0KvUb-86">
          <mxGeometry relative="1" as="geometry">
            <mxPoint x="21.25" y="50" as="sourcePoint" />
            <mxPoint x="21.25" y="40" as="targetPoint" />
          </mxGeometry>
        </mxCell>
        <mxCell id="bF2_etVDXhsBuvM0KvUb-89" value="" style="edgeStyle=none;rounded=0;orthogonalLoop=1;jettySize=auto;html=1;exitX=0.75;exitY=1;exitDx=0;exitDy=0;" edge="1" parent="bF2_etVDXhsBuvM0KvUb-85" source="bF2_etVDXhsBuvM0KvUb-86">
          <mxGeometry relative="1" as="geometry">
            <mxPoint x="31.25" y="60" as="sourcePoint" />
            <mxPoint x="64.25" y="50" as="targetPoint" />
          </mxGeometry>
        </mxCell>
        <mxCell id="bF2_etVDXhsBuvM0KvUb-90" value="" style="shape=image;verticalLabelPosition=bottom;labelBackgroundColor=#ffffff;verticalAlign=top;aspect=fixed;imageAspect=0;image=data:image/png,iVBORw0KGgoAAAANSUhEUgAAAE8AAABJCAYAAAB8bXubAAAEc0lEQVR4Ae2cvWsVQRTF8z/aap1aW9PG1jQWviYWT/DbREiQCIEQMIUpFFRsAmohItjZr5wh57EMszv3ztdOcYvHfbs7OzP3N/eenX2Zydavf38H+6Qx2DJwaeDAzeBlZF7X8H78+T3g02t2dAnv25er4c3O8+HRjQfug+9X3392B7EreIiy09W7DTTCo8W1niKxG3gXr98P61urSXAEiDIo20MqLw7v84evw9Pt/Sg0wqN9eefxgHuXhLgYPGjYWNcIRWuP7h0upofN4UGzztdn6kiLQUWdrfWwKbzLt5ciXSOow7vPBnx4HLPQQ7TRKpWbwIM2QaNizvP6k+394ePZpw0EfMc5Xo/ZVnpYFR50DZoUc5bX1zdXLqWnIgepiTIsH7Mne8dV9bAKvBRdO7l/LNIsDAjKxsDxOlK5lh4WhwfN0Uw9oGl4o5iKtqnzkAKNHqJPpfWwGDw4o5l6QMNKOIM6NHqIPqYMVmgQs+G5NNpTpNG1rpWcVlAmtHqY24cseE7ABa9U1B9oFWCHRrHEOfeA2j1Q62Fq20nwMHXQ6NqL221fpSAhaJODFrPwZTw1ksJUwfN/Kop1CmlUQtekzvjl0LYmlbV6KIaH0ZT86kGgtaYHPqDYMfWQ/YpZ+Ch9oIjhSdP0aPegqq7FYE1dhx5KpzZ4Q5mqZ3xeDC82Yq11beyE5jsySDK1kdSZDQ+acvGqjx8nJQ6zDPo8p4csN2ez4eXOleY6V/sa+j6VUZK2s+FJGum5jMHL+NurwTN46csecmTBIs8izyJPNDPPSbPS91raWtpa2lrahnQlRxtC9fVyLscvez27XgPoQ5QMrsEzeOkPGz/ieGyRJ5jCEJZvDZ7BS09JSfT4Ecdjyb32wLAHRnp0MtJ8a5FnmpceVZLo8SOOx5J7TfNM89Kjk5HmW4s807z0qJJEjx9xPJbca5pnmpcenYw03zaJvFYbRiTOaMpgtdTcsjlJXdlpyxFbcgOdxFGWceuWBRtrWH7OiuFJ1rQBZC8rQn2nNStE4at/f+hYDA/rexllMdt6A13IsfE5tzZZsWpfuo5aDA+d0W6gwwJpaMvYkZbf0XbOhsFYX1XwUBnDf25VpR+ZtTfQ+U5KdY39hC+QG7+e2LEaHitEB3vZQMc+bQZWkaI5G2uS4bHDSA3pKnOMNKYHUk1hGxKLOuemHowyWvQ5V1Ky4dExJ8qKvbDaDSNsx7cAgLoIJWbxJC01eMXgwSmmTcyB8XXoIe7zocSOcQ/uHdc19526ltLWVF+KwmMjTrArbqDTbhistbGmCjxCREqV3EDX24bBqvAIMUUPEb28v9cNg03gAQK05vTh9P+JCukV/neURtdQR8vXw2bwGEWIKM3UJgQ1dA51jqOV7dW0zeHRGeih9MeGECyeQx258zX2SWsXg8eOxjbQEZJvMfVYesPg4vAA0c3ZFP8rBdpZcr7GgdTaLuCx03iqzunhErrGvoVsV/DYQf+nL+hayj9QYH21bJfw6CweBEs9DNiHOfsfnWSCDIjRNowAAAAASUVORK5CYII=;" vertex="1" parent="bF2_etVDXhsBuvM0KvUb-85">
          <mxGeometry x="13.25" y="56.97000000000003" width="17.38" height="16.06" as="geometry" />
        </mxCell>
        <mxCell id="bF2_etVDXhsBuvM0KvUb-91" value="" style="shape=image;verticalLabelPosition=bottom;labelBackgroundColor=#ffffff;verticalAlign=top;aspect=fixed;imageAspect=0;image=data:image/png,iVBORw0KGgoAAAANSUhEUgAAAEoAAABCCAYAAADwg0AcAAAHyElEQVR4Ae2ciVPVOhSH/aefKOCKPMENQZ8gPFBZ5OGCICLIprI6gDCsgj4WFxBQFnEFdc6bX9/kelrSJmnae3GGM9NpbtLmnHxJ0+Qkvfu+fftGe4eawT7aEy0Ce6C0MBHtClBfvnyh9fV1Wltdo42NDfr69aum+cm7LKmgPn36RGNjY3S/8T6V/l1KOSdz6EDaAdr/x/4dR3p6Op0+dZquXb1GLS0tNDU1Rdvb28kj49EUO6jND5vU1dlFhYWFO2DIAKniykrLqL+/n7a3kgstNlDzc/NUfb06EjgyeOkH06muro6Wl5c9dR/Pz8hBvXnzhsrLy2MDJIN2+9Ztp4+LB9H/uUYKqvFeY1IBcWjo6x4/ehwbq0hAzc7M0rmz51IGiQMrKS6hd+/eRQ7MGlRPT8+uAMRhHco85Lxdo6RlBaqxMXWPGgfjF+7u7o6MVWhQd2rv7LqWJAP2sONhJLBCgaqvr/8tIAlwnY87rWEZg2pvb/+tIAlYQ0NDVrCMQI2Ojv6WkAArbX8aYYwXVrRBbaxv0NEjR61AVVZUOsY+6XuyI5/2tnZ6+/Yt1d2pc6UdP3acRkdGaW5uznoaVJBfEJaTvvegorzCVQDRpE3O3CtQXf1renPpr0uuAmQdz0rowoRYyOzsbCLeRC+/FhPyMKLVooaHh60NhLFcbt28lciz+HIxT6KTf55MpD16+CiRtri4mIjnhTcNv3r1KpGnbkALFNwdpsbIrudGpRLUlbIr3BStsBJUT3d0I29uUSpBoRKnp6a5OcqwElRubm7o1nQ+7zwNDAzQzL8zzsGtWVlZScQvLizyJHo5/zKRBs+nkK2trUQ8fFxHDh8JbRv8WiYSCGpkZCS0Iai1ifEJE1uMr+3q6rKyD32ergSCunrlqpUhukaEvW5mZsbKPriFdMUXFPzbsg7ZJI4bsba2RgsLC/Tx40daXV0lFJIfcI0gbWlpyRWPa/D4bW5uEt5WyEeILSi8XXXFF9Tg4KARqNLSUsIElB/ciNaWVqP8/CoE+QgBQK6vo6ODLl64aKRHd6jgC6rmnxpthadyTwnbfc99vX3a+flBQvzw0LCvDiRg1TsjPUNbF+DqiC+o3Bz9t53O1GCgf0Db+CBQ42PjynIdO3pMW5fumEoKKkz/1PKgxZmrYb4mDl6ioEcPUxb0F+IImlPyRw/DBaELZ7zFam/XakNChZzIOsHN9A1LQWECGlSrumlcqwwUWi0WNmWCPlL2CHFQtp25KMfnz59lJrjipKCGng4lBZSqI4UPSRRGnOMApeN+kYLCso8wzObMq8TboooKi3iybzgr65cnAbbEAerZs2e++kWCFNSD5gfGoDDLxwYLfgglOHtBYU+Bjpw5fcZlC/xWQr5//+7Sh+FCw90G1/U6FQ3viEqkoEwXMi8UXFDpceZ83OiwoMbH1W89OPu4LlUY81GVSEHBuaXKnKfn5OSo9FBvT68rz7Cg0H8GCd7YBw8cdOnitsrCeHGoRAqqtdV8FI0+p7mp2XVw5d5HD9t+dARbg3jheB+FqRDX2dTURHnn8lzX83v9wpj8q0QKKqrVX67cCwqvfmwgC5L5+fkdheagohoevHjxIsgMJ00KCqNfP/om8Vy7FxTyKSsr891dt7K8Qnl5O1tHHKCgSyVSUGF909iowQ+uXAYKsA4fOuzsqrtedZ3EgcfSr0I4qNevX7v0nT1z1vc+v/wQ/+PHD26qNCwF9fPnT2cdLChznobOUzV47GjvCFUIrgdhvBSCxNTZCLg6IgWFG03cFd7lJpnip4NPIwE1OTEpy94Vl30iW1vXjZobrnv9fviCMtmpkpmR6Tjc/JQgHgNSb+sI8xvumiCZnJw00qMzhoI+X1DPnz83Uog9lRh48oMXCAsMWMzE3gWcZQd8Q7J4xLW1tTlpyEcI5mhcX0FBgZHNqCjMJHTEFxRuNh3heluIjgE219gOD3Tnm7AxEJTt9h6TVY4wwEzd1d6K7O0NfjFwmwJBoWl7Mzf5XVRU5FoM4Iptw6gErBua2MOvxYAXjj9dCQSFTOAq5QpswtyoVK8UNzQ0cHOUYSUoDO9t4PB7uTWpBsVXoLldfmElKNxYUWG/5QfAuKQSFCbPpqIFanlpOZJWxY1LFSgsYOhMWbitCGuBwoVYaOSPUZgwFi2EYOO8yAPbioTAn4QxmUgDUCFRLHlh914Y0QaFzLEDRBQgzBlLQ3fr7zpeA+/9hZcKCR2sbGJbVVVFtbW1LoDe+3V+Y9tjWDEC9WHjA2Vn68+jdIxP1jWoCBsxAgVF+O4lWYWLSg/6pfW1X/uswgAzBgUlUTn2ogIRlA+W13XW7VTwQoFCpmOjY7u+ZaFPVPnJVIBEemhQyACDUduJc1BrsEnD9EbHxStAqM5WoJD5+/fvCbNwm0JFfS9cylF/qG0NStQERrtRF9g0P3zGEeWnZ6JsOEcGCplhQHm56HJKgFVWVsby5aeAFSkokSnW8vPz85MCrKSkhKanzfaMCztNzrGAEgZMTEw4S1Gmj5DqenxoXVNTQ/g2JlkSKyhRCOzo7evrc6BhHU8FQpaOVz3+RwF7pkwcbsIG23NSQHmNxDZCFBiLBjdv3CTsZ0ffhmkGPiDCBg78lwEWIvCNYBxfnXttUv1OCSiVUbsxfQ+UZq38BxMD4kLw9+eBAAAAAElFTkSuQmCC;" vertex="1" parent="bF2_etVDXhsBuvM0KvUb-84">
          <mxGeometry x="8.75" y="4.289999999999964" width="24" height="21.41" as="geometry" />
        </mxCell>
        <mxCell id="bF2_etVDXhsBuvM0KvUb-94" value="" style="group" vertex="1" connectable="0" parent="1">
          <mxGeometry x="504" y="513" width="105" height="100" as="geometry" />
        </mxCell>
        <mxCell id="bF2_etVDXhsBuvM0KvUb-70" value="" style="rounded=1;whiteSpace=wrap;html=1;fillColor=#f5f5f5;strokeColor=#666666;fontColor=#333333;shadow=1;" vertex="1" parent="bF2_etVDXhsBuvM0KvUb-94">
          <mxGeometry y="1" width="105" height="100" as="geometry" />
        </mxCell>
        <mxCell id="bF2_etVDXhsBuvM0KvUb-71" value="" style="group" vertex="1" connectable="0" parent="bF2_etVDXhsBuvM0KvUb-94">
          <mxGeometry x="9.370000000000005" y="10" width="86.25" height="80" as="geometry" />
        </mxCell>
        <mxCell id="bF2_etVDXhsBuvM0KvUb-72" value="" style="shape=image;verticalLabelPosition=bottom;labelBackgroundColor=#ffffff;verticalAlign=top;aspect=fixed;imageAspect=0;image=data:image/png,iVBORw0KGgoAAAANSUhEUgAAAE8AAABJCAYAAAB8bXubAAAEc0lEQVR4Ae2cvWsVQRTF8z/aap1aW9PG1jQWviYWT/DbREiQCIEQMIUpFFRsAmohItjZr5wh57EMszv3ztdOcYvHfbs7OzP3N/eenX2Zydavf38H+6Qx2DJwaeDAzeBlZF7X8H78+T3g02t2dAnv25er4c3O8+HRjQfug+9X3392B7EreIiy09W7DTTCo8W1niKxG3gXr98P61urSXAEiDIo20MqLw7v84evw9Pt/Sg0wqN9eefxgHuXhLgYPGjYWNcIRWuP7h0upofN4UGzztdn6kiLQUWdrfWwKbzLt5ciXSOow7vPBnx4HLPQQ7TRKpWbwIM2QaNizvP6k+394ePZpw0EfMc5Xo/ZVnpYFR50DZoUc5bX1zdXLqWnIgepiTIsH7Mne8dV9bAKvBRdO7l/LNIsDAjKxsDxOlK5lh4WhwfN0Uw9oGl4o5iKtqnzkAKNHqJPpfWwGDw4o5l6QMNKOIM6NHqIPqYMVmgQs+G5NNpTpNG1rpWcVlAmtHqY24cseE7ABa9U1B9oFWCHRrHEOfeA2j1Q62Fq20nwMHXQ6NqL221fpSAhaJODFrPwZTw1ksJUwfN/Kop1CmlUQtekzvjl0LYmlbV6KIaH0ZT86kGgtaYHPqDYMfWQ/YpZ+Ch9oIjhSdP0aPegqq7FYE1dhx5KpzZ4Q5mqZ3xeDC82Yq11beyE5jsySDK1kdSZDQ+acvGqjx8nJQ6zDPo8p4csN2ez4eXOleY6V/sa+j6VUZK2s+FJGum5jMHL+NurwTN46csecmTBIs8izyJPNDPPSbPS91raWtpa2lrahnQlRxtC9fVyLscvez27XgPoQ5QMrsEzeOkPGz/ieGyRJ5jCEJZvDZ7BS09JSfT4Ecdjyb32wLAHRnp0MtJ8a5FnmpceVZLo8SOOx5J7TfNM89Kjk5HmW4s807z0qJJEjx9xPJbca5pnmpcenYw03zaJvFYbRiTOaMpgtdTcsjlJXdlpyxFbcgOdxFGWceuWBRtrWH7OiuFJ1rQBZC8rQn2nNStE4at/f+hYDA/rexllMdt6A13IsfE5tzZZsWpfuo5aDA+d0W6gwwJpaMvYkZbf0XbOhsFYX1XwUBnDf25VpR+ZtTfQ+U5KdY39hC+QG7+e2LEaHitEB3vZQMc+bQZWkaI5G2uS4bHDSA3pKnOMNKYHUk1hGxKLOuemHowyWvQ5V1Ky4dExJ8qKvbDaDSNsx7cAgLoIJWbxJC01eMXgwSmmTcyB8XXoIe7zocSOcQ/uHdc19526ltLWVF+KwmMjTrArbqDTbhistbGmCjxCREqV3EDX24bBqvAIMUUPEb28v9cNg03gAQK05vTh9P+JCukV/neURtdQR8vXw2bwGEWIKM3UJgQ1dA51jqOV7dW0zeHRGeih9MeGECyeQx258zX2SWsXg8eOxjbQEZJvMfVYesPg4vAA0c3ZFP8rBdpZcr7GgdTaLuCx03iqzunhErrGvoVsV/DYQf+nL+hayj9QYH21bJfw6CweBEs9DNiHOfsfnWSCDIjRNowAAAAASUVORK5CYII=;" vertex="1" parent="bF2_etVDXhsBuvM0KvUb-71">
          <mxGeometry x="11.25" y="56.22000000000003" width="19" height="17.56" as="geometry" />
        </mxCell>
        <mxCell id="bF2_etVDXhsBuvM0KvUb-73" value="" style="group" vertex="1" connectable="0" parent="bF2_etVDXhsBuvM0KvUb-71">
          <mxGeometry width="86.25" height="80" as="geometry" />
        </mxCell>
        <mxCell id="bF2_etVDXhsBuvM0KvUb-74" value="" style="group" vertex="1" connectable="0" parent="bF2_etVDXhsBuvM0KvUb-73">
          <mxGeometry width="86.25" height="80" as="geometry" />
        </mxCell>
        <mxCell id="bF2_etVDXhsBuvM0KvUb-75" value="&lt;font style=&quot;font-size: 11px&quot;&gt;Service 2&amp;nbsp;&lt;/font&gt;" style="rounded=1;whiteSpace=wrap;html=1;align=right;" vertex="1" parent="bF2_etVDXhsBuvM0KvUb-74">
          <mxGeometry width="85.5" height="30" as="geometry" />
        </mxCell>
        <mxCell id="bF2_etVDXhsBuvM0KvUb-76" value="&lt;span style=&quot;font-size: 11px&quot;&gt;Proxy&amp;nbsp; &amp;nbsp;&amp;nbsp;&lt;/span&gt;" style="rounded=1;whiteSpace=wrap;html=1;strokeColor=#82b366;fillColor=#EBFFEA;align=right;" vertex="1" parent="bF2_etVDXhsBuvM0KvUb-74">
          <mxGeometry x="0.75" y="50" width="85.5" height="30" as="geometry" />
        </mxCell>
        <mxCell id="bF2_etVDXhsBuvM0KvUb-77" value="" style="edgeStyle=none;rounded=0;orthogonalLoop=1;jettySize=auto;html=1;entryX=0.25;entryY=1;entryDx=0;entryDy=0;" edge="1" parent="bF2_etVDXhsBuvM0KvUb-74" target="bF2_etVDXhsBuvM0KvUb-75">
          <mxGeometry relative="1" as="geometry">
            <mxPoint x="21.25" y="50" as="sourcePoint" />
            <mxPoint x="21.25" y="40" as="targetPoint" />
          </mxGeometry>
        </mxCell>
        <mxCell id="bF2_etVDXhsBuvM0KvUb-78" value="" style="edgeStyle=none;rounded=0;orthogonalLoop=1;jettySize=auto;html=1;exitX=0.75;exitY=1;exitDx=0;exitDy=0;" edge="1" parent="bF2_etVDXhsBuvM0KvUb-74" source="bF2_etVDXhsBuvM0KvUb-75">
          <mxGeometry relative="1" as="geometry">
            <mxPoint x="31.25" y="60" as="sourcePoint" />
            <mxPoint x="64.25" y="50" as="targetPoint" />
          </mxGeometry>
        </mxCell>
        <mxCell id="bF2_etVDXhsBuvM0KvUb-79" value="" style="shape=image;verticalLabelPosition=bottom;labelBackgroundColor=#ffffff;verticalAlign=top;aspect=fixed;imageAspect=0;image=data:image/png,iVBORw0KGgoAAAANSUhEUgAAAE8AAABJCAYAAAB8bXubAAAEc0lEQVR4Ae2cvWsVQRTF8z/aap1aW9PG1jQWviYWT/DbREiQCIEQMIUpFFRsAmohItjZr5wh57EMszv3ztdOcYvHfbs7OzP3N/eenX2Zydavf38H+6Qx2DJwaeDAzeBlZF7X8H78+T3g02t2dAnv25er4c3O8+HRjQfug+9X3392B7EreIiy09W7DTTCo8W1niKxG3gXr98P61urSXAEiDIo20MqLw7v84evw9Pt/Sg0wqN9eefxgHuXhLgYPGjYWNcIRWuP7h0upofN4UGzztdn6kiLQUWdrfWwKbzLt5ciXSOow7vPBnx4HLPQQ7TRKpWbwIM2QaNizvP6k+394ePZpw0EfMc5Xo/ZVnpYFR50DZoUc5bX1zdXLqWnIgepiTIsH7Mne8dV9bAKvBRdO7l/LNIsDAjKxsDxOlK5lh4WhwfN0Uw9oGl4o5iKtqnzkAKNHqJPpfWwGDw4o5l6QMNKOIM6NHqIPqYMVmgQs+G5NNpTpNG1rpWcVlAmtHqY24cseE7ABa9U1B9oFWCHRrHEOfeA2j1Q62Fq20nwMHXQ6NqL221fpSAhaJODFrPwZTw1ksJUwfN/Kop1CmlUQtekzvjl0LYmlbV6KIaH0ZT86kGgtaYHPqDYMfWQ/YpZ+Ch9oIjhSdP0aPegqq7FYE1dhx5KpzZ4Q5mqZ3xeDC82Yq11beyE5jsySDK1kdSZDQ+acvGqjx8nJQ6zDPo8p4csN2ez4eXOleY6V/sa+j6VUZK2s+FJGum5jMHL+NurwTN46csecmTBIs8izyJPNDPPSbPS91raWtpa2lrahnQlRxtC9fVyLscvez27XgPoQ5QMrsEzeOkPGz/ieGyRJ5jCEJZvDZ7BS09JSfT4Ecdjyb32wLAHRnp0MtJ8a5FnmpceVZLo8SOOx5J7TfNM89Kjk5HmW4s807z0qJJEjx9xPJbca5pnmpcenYw03zaJvFYbRiTOaMpgtdTcsjlJXdlpyxFbcgOdxFGWceuWBRtrWH7OiuFJ1rQBZC8rQn2nNStE4at/f+hYDA/rexllMdt6A13IsfE5tzZZsWpfuo5aDA+d0W6gwwJpaMvYkZbf0XbOhsFYX1XwUBnDf25VpR+ZtTfQ+U5KdY39hC+QG7+e2LEaHitEB3vZQMc+bQZWkaI5G2uS4bHDSA3pKnOMNKYHUk1hGxKLOuemHowyWvQ5V1Ky4dExJ8qKvbDaDSNsx7cAgLoIJWbxJC01eMXgwSmmTcyB8XXoIe7zocSOcQ/uHdc19526ltLWVF+KwmMjTrArbqDTbhistbGmCjxCREqV3EDX24bBqvAIMUUPEb28v9cNg03gAQK05vTh9P+JCukV/neURtdQR8vXw2bwGEWIKM3UJgQ1dA51jqOV7dW0zeHRGeih9MeGECyeQx258zX2SWsXg8eOxjbQEZJvMfVYesPg4vAA0c3ZFP8rBdpZcr7GgdTaLuCx03iqzunhErrGvoVsV/DYQf+nL+hayj9QYH21bJfw6CweBEs9DNiHOfsfnWSCDIjRNowAAAAASUVORK5CYII=;" vertex="1" parent="bF2_etVDXhsBuvM0KvUb-74">
          <mxGeometry x="13.25" y="56.97000000000003" width="17.38" height="16.06" as="geometry" />
        </mxCell>
        <mxCell id="bF2_etVDXhsBuvM0KvUb-80" value="" style="shape=image;verticalLabelPosition=bottom;labelBackgroundColor=#ffffff;verticalAlign=top;aspect=fixed;imageAspect=0;image=data:image/png,iVBORw0KGgoAAAANSUhEUgAAAEoAAABCCAYAAADwg0AcAAAHyElEQVR4Ae2ciVPVOhSH/aefKOCKPMENQZ8gPFBZ5OGCICLIprI6gDCsgj4WFxBQFnEFdc6bX9/kelrSJmnae3GGM9NpbtLmnHxJ0+Qkvfu+fftGe4eawT7aEy0Ce6C0MBHtClBfvnyh9fV1Wltdo42NDfr69aum+cm7LKmgPn36RGNjY3S/8T6V/l1KOSdz6EDaAdr/x/4dR3p6Op0+dZquXb1GLS0tNDU1Rdvb28kj49EUO6jND5vU1dlFhYWFO2DIAKniykrLqL+/n7a3kgstNlDzc/NUfb06EjgyeOkH06muro6Wl5c9dR/Pz8hBvXnzhsrLy2MDJIN2+9Ztp4+LB9H/uUYKqvFeY1IBcWjo6x4/ehwbq0hAzc7M0rmz51IGiQMrKS6hd+/eRQ7MGlRPT8+uAMRhHco85Lxdo6RlBaqxMXWPGgfjF+7u7o6MVWhQd2rv7LqWJAP2sONhJLBCgaqvr/8tIAlwnY87rWEZg2pvb/+tIAlYQ0NDVrCMQI2Ojv6WkAArbX8aYYwXVrRBbaxv0NEjR61AVVZUOsY+6XuyI5/2tnZ6+/Yt1d2pc6UdP3acRkdGaW5uznoaVJBfEJaTvvegorzCVQDRpE3O3CtQXf1renPpr0uuAmQdz0rowoRYyOzsbCLeRC+/FhPyMKLVooaHh60NhLFcbt28lciz+HIxT6KTf55MpD16+CiRtri4mIjnhTcNv3r1KpGnbkALFNwdpsbIrudGpRLUlbIr3BStsBJUT3d0I29uUSpBoRKnp6a5OcqwElRubm7o1nQ+7zwNDAzQzL8zzsGtWVlZScQvLizyJHo5/zKRBs+nkK2trUQ8fFxHDh8JbRv8WiYSCGpkZCS0Iai1ifEJE1uMr+3q6rKyD32ergSCunrlqpUhukaEvW5mZsbKPriFdMUXFPzbsg7ZJI4bsba2RgsLC/Tx40daXV0lFJIfcI0gbWlpyRWPa/D4bW5uEt5WyEeILSi8XXXFF9Tg4KARqNLSUsIElB/ciNaWVqP8/CoE+QgBQK6vo6ODLl64aKRHd6jgC6rmnxpthadyTwnbfc99vX3a+flBQvzw0LCvDiRg1TsjPUNbF+DqiC+o3Bz9t53O1GCgf0Db+CBQ42PjynIdO3pMW5fumEoKKkz/1PKgxZmrYb4mDl6ioEcPUxb0F+IImlPyRw/DBaELZ7zFam/XakNChZzIOsHN9A1LQWECGlSrumlcqwwUWi0WNmWCPlL2CHFQtp25KMfnz59lJrjipKCGng4lBZSqI4UPSRRGnOMApeN+kYLCso8wzObMq8TboooKi3iybzgr65cnAbbEAerZs2e++kWCFNSD5gfGoDDLxwYLfgglOHtBYU+Bjpw5fcZlC/xWQr5//+7Sh+FCw90G1/U6FQ3viEqkoEwXMi8UXFDpceZ83OiwoMbH1W89OPu4LlUY81GVSEHBuaXKnKfn5OSo9FBvT68rz7Cg0H8GCd7YBw8cdOnitsrCeHGoRAqqtdV8FI0+p7mp2XVw5d5HD9t+dARbg3jheB+FqRDX2dTURHnn8lzX83v9wpj8q0QKKqrVX67cCwqvfmwgC5L5+fkdheagohoevHjxIsgMJ00KCqNfP/om8Vy7FxTyKSsr891dt7K8Qnl5O1tHHKCgSyVSUGF909iowQ+uXAYKsA4fOuzsqrtedZ3EgcfSr0I4qNevX7v0nT1z1vc+v/wQ/+PHD26qNCwF9fPnT2cdLChznobOUzV47GjvCFUIrgdhvBSCxNTZCLg6IgWFG03cFd7lJpnip4NPIwE1OTEpy94Vl30iW1vXjZobrnv9fviCMtmpkpmR6Tjc/JQgHgNSb+sI8xvumiCZnJw00qMzhoI+X1DPnz83Uog9lRh48oMXCAsMWMzE3gWcZQd8Q7J4xLW1tTlpyEcI5mhcX0FBgZHNqCjMJHTEFxRuNh3heluIjgE219gOD3Tnm7AxEJTt9h6TVY4wwEzd1d6K7O0NfjFwmwJBoWl7Mzf5XVRU5FoM4Iptw6gErBua2MOvxYAXjj9dCQSFTOAq5QpswtyoVK8UNzQ0cHOUYSUoDO9t4PB7uTWpBsVXoLldfmElKNxYUWG/5QfAuKQSFCbPpqIFanlpOZJWxY1LFSgsYOhMWbitCGuBwoVYaOSPUZgwFi2EYOO8yAPbioTAn4QxmUgDUCFRLHlh914Y0QaFzLEDRBQgzBlLQ3fr7zpeA+/9hZcKCR2sbGJbVVVFtbW1LoDe+3V+Y9tjWDEC9WHjA2Vn68+jdIxP1jWoCBsxAgVF+O4lWYWLSg/6pfW1X/uswgAzBgUlUTn2ogIRlA+W13XW7VTwQoFCpmOjY7u+ZaFPVPnJVIBEemhQyACDUduJc1BrsEnD9EbHxStAqM5WoJD5+/fvCbNwm0JFfS9cylF/qG0NStQERrtRF9g0P3zGEeWnZ6JsOEcGCplhQHm56HJKgFVWVsby5aeAFSkokSnW8vPz85MCrKSkhKanzfaMCztNzrGAEgZMTEw4S1Gmj5DqenxoXVNTQ/g2JlkSKyhRCOzo7evrc6BhHU8FQpaOVz3+RwF7pkwcbsIG23NSQHmNxDZCFBiLBjdv3CTsZ0ffhmkGPiDCBg78lwEWIvCNYBxfnXttUv1OCSiVUbsxfQ+UZq38BxMD4kLw9+eBAAAAAElFTkSuQmCC;" vertex="1" parent="bF2_etVDXhsBuvM0KvUb-73">
          <mxGeometry x="8.75" y="4.289999999999964" width="24" height="21.41" as="geometry" />
        </mxCell>
        <mxCell id="bF2_etVDXhsBuvM0KvUb-97" value="" style="group" vertex="1" connectable="0" parent="1">
          <mxGeometry x="500" y="194" width="105" height="100" as="geometry" />
        </mxCell>
        <mxCell id="bF2_etVDXhsBuvM0KvUb-98" value="" style="rounded=1;whiteSpace=wrap;html=1;fillColor=#f5f5f5;strokeColor=#666666;fontColor=#333333;shadow=1;" vertex="1" parent="bF2_etVDXhsBuvM0KvUb-97">
          <mxGeometry width="105" height="100" as="geometry" />
        </mxCell>
        <mxCell id="bF2_etVDXhsBuvM0KvUb-99" value="" style="group" vertex="1" connectable="0" parent="bF2_etVDXhsBuvM0KvUb-97">
          <mxGeometry x="9.370000000000005" y="10" width="86.25" height="80" as="geometry" />
        </mxCell>
        <mxCell id="bF2_etVDXhsBuvM0KvUb-100" value="" style="shape=image;verticalLabelPosition=bottom;labelBackgroundColor=#ffffff;verticalAlign=top;aspect=fixed;imageAspect=0;image=data:image/png,iVBORw0KGgoAAAANSUhEUgAAAE8AAABJCAYAAAB8bXubAAAEc0lEQVR4Ae2cvWsVQRTF8z/aap1aW9PG1jQWviYWT/DbREiQCIEQMIUpFFRsAmohItjZr5wh57EMszv3ztdOcYvHfbs7OzP3N/eenX2Zydavf38H+6Qx2DJwaeDAzeBlZF7X8H78+T3g02t2dAnv25er4c3O8+HRjQfug+9X3392B7EreIiy09W7DTTCo8W1niKxG3gXr98P61urSXAEiDIo20MqLw7v84evw9Pt/Sg0wqN9eefxgHuXhLgYPGjYWNcIRWuP7h0upofN4UGzztdn6kiLQUWdrfWwKbzLt5ciXSOow7vPBnx4HLPQQ7TRKpWbwIM2QaNizvP6k+394ePZpw0EfMc5Xo/ZVnpYFR50DZoUc5bX1zdXLqWnIgepiTIsH7Mne8dV9bAKvBRdO7l/LNIsDAjKxsDxOlK5lh4WhwfN0Uw9oGl4o5iKtqnzkAKNHqJPpfWwGDw4o5l6QMNKOIM6NHqIPqYMVmgQs+G5NNpTpNG1rpWcVlAmtHqY24cseE7ABa9U1B9oFWCHRrHEOfeA2j1Q62Fq20nwMHXQ6NqL221fpSAhaJODFrPwZTw1ksJUwfN/Kop1CmlUQtekzvjl0LYmlbV6KIaH0ZT86kGgtaYHPqDYMfWQ/YpZ+Ch9oIjhSdP0aPegqq7FYE1dhx5KpzZ4Q5mqZ3xeDC82Yq11beyE5jsySDK1kdSZDQ+acvGqjx8nJQ6zDPo8p4csN2ez4eXOleY6V/sa+j6VUZK2s+FJGum5jMHL+NurwTN46csecmTBIs8izyJPNDPPSbPS91raWtpa2lrahnQlRxtC9fVyLscvez27XgPoQ5QMrsEzeOkPGz/ieGyRJ5jCEJZvDZ7BS09JSfT4Ecdjyb32wLAHRnp0MtJ8a5FnmpceVZLo8SOOx5J7TfNM89Kjk5HmW4s807z0qJJEjx9xPJbca5pnmpcenYw03zaJvFYbRiTOaMpgtdTcsjlJXdlpyxFbcgOdxFGWceuWBRtrWH7OiuFJ1rQBZC8rQn2nNStE4at/f+hYDA/rexllMdt6A13IsfE5tzZZsWpfuo5aDA+d0W6gwwJpaMvYkZbf0XbOhsFYX1XwUBnDf25VpR+ZtTfQ+U5KdY39hC+QG7+e2LEaHitEB3vZQMc+bQZWkaI5G2uS4bHDSA3pKnOMNKYHUk1hGxKLOuemHowyWvQ5V1Ky4dExJ8qKvbDaDSNsx7cAgLoIJWbxJC01eMXgwSmmTcyB8XXoIe7zocSOcQ/uHdc19526ltLWVF+KwmMjTrArbqDTbhistbGmCjxCREqV3EDX24bBqvAIMUUPEb28v9cNg03gAQK05vTh9P+JCukV/neURtdQR8vXw2bwGEWIKM3UJgQ1dA51jqOV7dW0zeHRGeih9MeGECyeQx258zX2SWsXg8eOxjbQEZJvMfVYesPg4vAA0c3ZFP8rBdpZcr7GgdTaLuCx03iqzunhErrGvoVsV/DYQf+nL+hayj9QYH21bJfw6CweBEs9DNiHOfsfnWSCDIjRNowAAAAASUVORK5CYII=;" vertex="1" parent="bF2_etVDXhsBuvM0KvUb-99">
          <mxGeometry x="11.25" y="56.22000000000003" width="19" height="17.56" as="geometry" />
        </mxCell>
        <mxCell id="bF2_etVDXhsBuvM0KvUb-101" value="" style="group" vertex="1" connectable="0" parent="bF2_etVDXhsBuvM0KvUb-99">
          <mxGeometry width="86.25" height="80" as="geometry" />
        </mxCell>
        <mxCell id="bF2_etVDXhsBuvM0KvUb-102" value="" style="group" vertex="1" connectable="0" parent="bF2_etVDXhsBuvM0KvUb-101">
          <mxGeometry width="86.25" height="80" as="geometry" />
        </mxCell>
        <mxCell id="bF2_etVDXhsBuvM0KvUb-103" value="&lt;font style=&quot;font-size: 11px&quot;&gt;Service 2&amp;nbsp;&lt;/font&gt;" style="rounded=1;whiteSpace=wrap;html=1;align=right;" vertex="1" parent="bF2_etVDXhsBuvM0KvUb-102">
          <mxGeometry width="85.5" height="30" as="geometry" />
        </mxCell>
        <mxCell id="bF2_etVDXhsBuvM0KvUb-104" value="&lt;span style=&quot;font-size: 11px&quot;&gt;Proxy&amp;nbsp; &amp;nbsp;&amp;nbsp;&lt;/span&gt;" style="rounded=1;whiteSpace=wrap;html=1;strokeColor=#82b366;fillColor=#EBFFEA;align=right;" vertex="1" parent="bF2_etVDXhsBuvM0KvUb-102">
          <mxGeometry x="0.75" y="50" width="85.5" height="30" as="geometry" />
        </mxCell>
        <mxCell id="bF2_etVDXhsBuvM0KvUb-105" value="" style="edgeStyle=none;rounded=0;orthogonalLoop=1;jettySize=auto;html=1;entryX=0.25;entryY=1;entryDx=0;entryDy=0;" edge="1" parent="bF2_etVDXhsBuvM0KvUb-102" target="bF2_etVDXhsBuvM0KvUb-103">
          <mxGeometry relative="1" as="geometry">
            <mxPoint x="21.25" y="50" as="sourcePoint" />
            <mxPoint x="21.25" y="40" as="targetPoint" />
          </mxGeometry>
        </mxCell>
        <mxCell id="bF2_etVDXhsBuvM0KvUb-106" value="" style="edgeStyle=none;rounded=0;orthogonalLoop=1;jettySize=auto;html=1;exitX=0.75;exitY=1;exitDx=0;exitDy=0;" edge="1" parent="bF2_etVDXhsBuvM0KvUb-102" source="bF2_etVDXhsBuvM0KvUb-103">
          <mxGeometry relative="1" as="geometry">
            <mxPoint x="31.25" y="60" as="sourcePoint" />
            <mxPoint x="64.25" y="50" as="targetPoint" />
          </mxGeometry>
        </mxCell>
        <mxCell id="bF2_etVDXhsBuvM0KvUb-107" value="" style="shape=image;verticalLabelPosition=bottom;labelBackgroundColor=#ffffff;verticalAlign=top;aspect=fixed;imageAspect=0;image=data:image/png,iVBORw0KGgoAAAANSUhEUgAAAE8AAABJCAYAAAB8bXubAAAEc0lEQVR4Ae2cvWsVQRTF8z/aap1aW9PG1jQWviYWT/DbREiQCIEQMIUpFFRsAmohItjZr5wh57EMszv3ztdOcYvHfbs7OzP3N/eenX2Zydavf38H+6Qx2DJwaeDAzeBlZF7X8H78+T3g02t2dAnv25er4c3O8+HRjQfug+9X3392B7EreIiy09W7DTTCo8W1niKxG3gXr98P61urSXAEiDIo20MqLw7v84evw9Pt/Sg0wqN9eefxgHuXhLgYPGjYWNcIRWuP7h0upofN4UGzztdn6kiLQUWdrfWwKbzLt5ciXSOow7vPBnx4HLPQQ7TRKpWbwIM2QaNizvP6k+394ePZpw0EfMc5Xo/ZVnpYFR50DZoUc5bX1zdXLqWnIgepiTIsH7Mne8dV9bAKvBRdO7l/LNIsDAjKxsDxOlK5lh4WhwfN0Uw9oGl4o5iKtqnzkAKNHqJPpfWwGDw4o5l6QMNKOIM6NHqIPqYMVmgQs+G5NNpTpNG1rpWcVlAmtHqY24cseE7ABa9U1B9oFWCHRrHEOfeA2j1Q62Fq20nwMHXQ6NqL221fpSAhaJODFrPwZTw1ksJUwfN/Kop1CmlUQtekzvjl0LYmlbV6KIaH0ZT86kGgtaYHPqDYMfWQ/YpZ+Ch9oIjhSdP0aPegqq7FYE1dhx5KpzZ4Q5mqZ3xeDC82Yq11beyE5jsySDK1kdSZDQ+acvGqjx8nJQ6zDPo8p4csN2ez4eXOleY6V/sa+j6VUZK2s+FJGum5jMHL+NurwTN46csecmTBIs8izyJPNDPPSbPS91raWtpa2lrahnQlRxtC9fVyLscvez27XgPoQ5QMrsEzeOkPGz/ieGyRJ5jCEJZvDZ7BS09JSfT4Ecdjyb32wLAHRnp0MtJ8a5FnmpceVZLo8SOOx5J7TfNM89Kjk5HmW4s807z0qJJEjx9xPJbca5pnmpcenYw03zaJvFYbRiTOaMpgtdTcsjlJXdlpyxFbcgOdxFGWceuWBRtrWH7OiuFJ1rQBZC8rQn2nNStE4at/f+hYDA/rexllMdt6A13IsfE5tzZZsWpfuo5aDA+d0W6gwwJpaMvYkZbf0XbOhsFYX1XwUBnDf25VpR+ZtTfQ+U5KdY39hC+QG7+e2LEaHitEB3vZQMc+bQZWkaI5G2uS4bHDSA3pKnOMNKYHUk1hGxKLOuemHowyWvQ5V1Ky4dExJ8qKvbDaDSNsx7cAgLoIJWbxJC01eMXgwSmmTcyB8XXoIe7zocSOcQ/uHdc19526ltLWVF+KwmMjTrArbqDTbhistbGmCjxCREqV3EDX24bBqvAIMUUPEb28v9cNg03gAQK05vTh9P+JCukV/neURtdQR8vXw2bwGEWIKM3UJgQ1dA51jqOV7dW0zeHRGeih9MeGECyeQx258zX2SWsXg8eOxjbQEZJvMfVYesPg4vAA0c3ZFP8rBdpZcr7GgdTaLuCx03iqzunhErrGvoVsV/DYQf+nL+hayj9QYH21bJfw6CweBEs9DNiHOfsfnWSCDIjRNowAAAAASUVORK5CYII=;" vertex="1" parent="bF2_etVDXhsBuvM0KvUb-102">
          <mxGeometry x="13.25" y="56.97000000000003" width="17.38" height="16.06" as="geometry" />
        </mxCell>
        <mxCell id="bF2_etVDXhsBuvM0KvUb-108" value="" style="shape=image;verticalLabelPosition=bottom;labelBackgroundColor=#ffffff;verticalAlign=top;aspect=fixed;imageAspect=0;image=data:image/png,iVBORw0KGgoAAAANSUhEUgAAAEoAAABCCAYAAADwg0AcAAAHyElEQVR4Ae2ciVPVOhSH/aefKOCKPMENQZ8gPFBZ5OGCICLIprI6gDCsgj4WFxBQFnEFdc6bX9/kelrSJmnae3GGM9NpbtLmnHxJ0+Qkvfu+fftGe4eawT7aEy0Ce6C0MBHtClBfvnyh9fV1Wltdo42NDfr69aum+cm7LKmgPn36RGNjY3S/8T6V/l1KOSdz6EDaAdr/x/4dR3p6Op0+dZquXb1GLS0tNDU1Rdvb28kj49EUO6jND5vU1dlFhYWFO2DIAKniykrLqL+/n7a3kgstNlDzc/NUfb06EjgyeOkH06muro6Wl5c9dR/Pz8hBvXnzhsrLy2MDJIN2+9Ztp4+LB9H/uUYKqvFeY1IBcWjo6x4/ehwbq0hAzc7M0rmz51IGiQMrKS6hd+/eRQ7MGlRPT8+uAMRhHco85Lxdo6RlBaqxMXWPGgfjF+7u7o6MVWhQd2rv7LqWJAP2sONhJLBCgaqvr/8tIAlwnY87rWEZg2pvb/+tIAlYQ0NDVrCMQI2Ojv6WkAArbX8aYYwXVrRBbaxv0NEjR61AVVZUOsY+6XuyI5/2tnZ6+/Yt1d2pc6UdP3acRkdGaW5uznoaVJBfEJaTvvegorzCVQDRpE3O3CtQXf1renPpr0uuAmQdz0rowoRYyOzsbCLeRC+/FhPyMKLVooaHh60NhLFcbt28lciz+HIxT6KTf55MpD16+CiRtri4mIjnhTcNv3r1KpGnbkALFNwdpsbIrudGpRLUlbIr3BStsBJUT3d0I29uUSpBoRKnp6a5OcqwElRubm7o1nQ+7zwNDAzQzL8zzsGtWVlZScQvLizyJHo5/zKRBs+nkK2trUQ8fFxHDh8JbRv8WiYSCGpkZCS0Iai1ifEJE1uMr+3q6rKyD32ergSCunrlqpUhukaEvW5mZsbKPriFdMUXFPzbsg7ZJI4bsba2RgsLC/Tx40daXV0lFJIfcI0gbWlpyRWPa/D4bW5uEt5WyEeILSi8XXXFF9Tg4KARqNLSUsIElB/ciNaWVqP8/CoE+QgBQK6vo6ODLl64aKRHd6jgC6rmnxpthadyTwnbfc99vX3a+flBQvzw0LCvDiRg1TsjPUNbF+DqiC+o3Bz9t53O1GCgf0Db+CBQ42PjynIdO3pMW5fumEoKKkz/1PKgxZmrYb4mDl6ioEcPUxb0F+IImlPyRw/DBaELZ7zFam/XakNChZzIOsHN9A1LQWECGlSrumlcqwwUWi0WNmWCPlL2CHFQtp25KMfnz59lJrjipKCGng4lBZSqI4UPSRRGnOMApeN+kYLCso8wzObMq8TboooKi3iybzgr65cnAbbEAerZs2e++kWCFNSD5gfGoDDLxwYLfgglOHtBYU+Bjpw5fcZlC/xWQr5//+7Sh+FCw90G1/U6FQ3viEqkoEwXMi8UXFDpceZ83OiwoMbH1W89OPu4LlUY81GVSEHBuaXKnKfn5OSo9FBvT68rz7Cg0H8GCd7YBw8cdOnitsrCeHGoRAqqtdV8FI0+p7mp2XVw5d5HD9t+dARbg3jheB+FqRDX2dTURHnn8lzX83v9wpj8q0QKKqrVX67cCwqvfmwgC5L5+fkdheagohoevHjxIsgMJ00KCqNfP/om8Vy7FxTyKSsr891dt7K8Qnl5O1tHHKCgSyVSUGF909iowQ+uXAYKsA4fOuzsqrtedZ3EgcfSr0I4qNevX7v0nT1z1vc+v/wQ/+PHD26qNCwF9fPnT2cdLChznobOUzV47GjvCFUIrgdhvBSCxNTZCLg6IgWFG03cFd7lJpnip4NPIwE1OTEpy94Vl30iW1vXjZobrnv9fviCMtmpkpmR6Tjc/JQgHgNSb+sI8xvumiCZnJw00qMzhoI+X1DPnz83Uog9lRh48oMXCAsMWMzE3gWcZQd8Q7J4xLW1tTlpyEcI5mhcX0FBgZHNqCjMJHTEFxRuNh3heluIjgE219gOD3Tnm7AxEJTt9h6TVY4wwEzd1d6K7O0NfjFwmwJBoWl7Mzf5XVRU5FoM4Iptw6gErBua2MOvxYAXjj9dCQSFTOAq5QpswtyoVK8UNzQ0cHOUYSUoDO9t4PB7uTWpBsVXoLldfmElKNxYUWG/5QfAuKQSFCbPpqIFanlpOZJWxY1LFSgsYOhMWbitCGuBwoVYaOSPUZgwFi2EYOO8yAPbioTAn4QxmUgDUCFRLHlh914Y0QaFzLEDRBQgzBlLQ3fr7zpeA+/9hZcKCR2sbGJbVVVFtbW1LoDe+3V+Y9tjWDEC9WHjA2Vn68+jdIxP1jWoCBsxAgVF+O4lWYWLSg/6pfW1X/uswgAzBgUlUTn2ogIRlA+W13XW7VTwQoFCpmOjY7u+ZaFPVPnJVIBEemhQyACDUduJc1BrsEnD9EbHxStAqM5WoJD5+/fvCbNwm0JFfS9cylF/qG0NStQERrtRF9g0P3zGEeWnZ6JsOEcGCplhQHm56HJKgFVWVsby5aeAFSkokSnW8vPz85MCrKSkhKanzfaMCztNzrGAEgZMTEw4S1Gmj5DqenxoXVNTQ/g2JlkSKyhRCOzo7evrc6BhHU8FQpaOVz3+RwF7pkwcbsIG23NSQHmNxDZCFBiLBjdv3CTsZ0ffhmkGPiDCBg78lwEWIvCNYBxfnXttUv1OCSiVUbsxfQ+UZq38BxMD4kLw9+eBAAAAAElFTkSuQmCC;" vertex="1" parent="bF2_etVDXhsBuvM0KvUb-101">
          <mxGeometry x="8.75" y="4.289999999999964" width="24" height="21.41" as="geometry" />
        </mxCell>
        <mxCell id="bF2_etVDXhsBuvM0KvUb-113" value="" style="shape=image;verticalLabelPosition=bottom;labelBackgroundColor=#ffffff;verticalAlign=top;aspect=fixed;imageAspect=0;image=data:image/png,iVBORw0KGgoAAAANSUhEUgAAAE8AAABJCAYAAAB8bXubAAAEc0lEQVR4Ae2cvWsVQRTF8z/aap1aW9PG1jQWviYWT/DbREiQCIEQMIUpFFRsAmohItjZr5wh57EMszv3ztdOcYvHfbs7OzP3N/eenX2Zydavf38H+6Qx2DJwaeDAzeBlZF7X8H78+T3g02t2dAnv25er4c3O8+HRjQfug+9X3392B7EreIiy09W7DTTCo8W1niKxG3gXr98P61urSXAEiDIo20MqLw7v84evw9Pt/Sg0wqN9eefxgHuXhLgYPGjYWNcIRWuP7h0upofN4UGzztdn6kiLQUWdrfWwKbzLt5ciXSOow7vPBnx4HLPQQ7TRKpWbwIM2QaNizvP6k+394ePZpw0EfMc5Xo/ZVnpYFR50DZoUc5bX1zdXLqWnIgepiTIsH7Mne8dV9bAKvBRdO7l/LNIsDAjKxsDxOlK5lh4WhwfN0Uw9oGl4o5iKtqnzkAKNHqJPpfWwGDw4o5l6QMNKOIM6NHqIPqYMVmgQs+G5NNpTpNG1rpWcVlAmtHqY24cseE7ABa9U1B9oFWCHRrHEOfeA2j1Q62Fq20nwMHXQ6NqL221fpSAhaJODFrPwZTw1ksJUwfN/Kop1CmlUQtekzvjl0LYmlbV6KIaH0ZT86kGgtaYHPqDYMfWQ/YpZ+Ch9oIjhSdP0aPegqq7FYE1dhx5KpzZ4Q5mqZ3xeDC82Yq11beyE5jsySDK1kdSZDQ+acvGqjx8nJQ6zDPo8p4csN2ez4eXOleY6V/sa+j6VUZK2s+FJGum5jMHL+NurwTN46csecmTBIs8izyJPNDPPSbPS91raWtpa2lrahnQlRxtC9fVyLscvez27XgPoQ5QMrsEzeOkPGz/ieGyRJ5jCEJZvDZ7BS09JSfT4Ecdjyb32wLAHRnp0MtJ8a5FnmpceVZLo8SOOx5J7TfNM89Kjk5HmW4s807z0qJJEjx9xPJbca5pnmpcenYw03zaJvFYbRiTOaMpgtdTcsjlJXdlpyxFbcgOdxFGWceuWBRtrWH7OiuFJ1rQBZC8rQn2nNStE4at/f+hYDA/rexllMdt6A13IsfE5tzZZsWpfuo5aDA+d0W6gwwJpaMvYkZbf0XbOhsFYX1XwUBnDf25VpR+ZtTfQ+U5KdY39hC+QG7+e2LEaHitEB3vZQMc+bQZWkaI5G2uS4bHDSA3pKnOMNKYHUk1hGxKLOuemHowyWvQ5V1Ky4dExJ8qKvbDaDSNsx7cAgLoIJWbxJC01eMXgwSmmTcyB8XXoIe7zocSOcQ/uHdc19526ltLWVF+KwmMjTrArbqDTbhistbGmCjxCREqV3EDX24bBqvAIMUUPEb28v9cNg03gAQK05vTh9P+JCukV/neURtdQR8vXw2bwGEWIKM3UJgQ1dA51jqOV7dW0zeHRGeih9MeGECyeQx258zX2SWsXg8eOxjbQEZJvMfVYesPg4vAA0c3ZFP8rBdpZcr7GgdTaLuCx03iqzunhErrGvoVsV/DYQf+nL+hayj9QYH21bJfw6CweBEs9DNiHOfsfnWSCDIjRNowAAAAASUVORK5CYII=;" vertex="1" parent="1">
          <mxGeometry x="145" y="406.6" width="29" height="26.8" as="geometry" />
        </mxCell>
        <mxCell id="bF2_etVDXhsBuvM0KvUb-115" style="edgeStyle=none;rounded=0;orthogonalLoop=1;jettySize=auto;html=1;entryX=0;entryY=0.5;entryDx=0;entryDy=0;" edge="1" parent="1" source="XTH5G1iNW0wC6O9VaFi9-6" target="bF2_etVDXhsBuvM0KvUb-104">
          <mxGeometry relative="1" as="geometry" />
        </mxCell>
        <mxCell id="bF2_etVDXhsBuvM0KvUb-114" style="edgeStyle=none;rounded=0;orthogonalLoop=1;jettySize=auto;html=1;entryX=0;entryY=0.5;entryDx=0;entryDy=0;exitX=1;exitY=0.5;exitDx=0;exitDy=0;" edge="1" parent="1" source="ImLfmbIOM0FkZJiw0mNa-4" target="XTH5G1iNW0wC6O9VaFi9-6">
          <mxGeometry relative="1" as="geometry" />
        </mxCell>
        <mxCell id="bF2_etVDXhsBuvM0KvUb-117" value="" style="edgeStyle=none;rounded=0;orthogonalLoop=1;jettySize=auto;html=1;entryX=0;entryY=0.5;entryDx=0;entryDy=0;" edge="1" parent="1" source="bF2_etVDXhsBuvM0KvUb-104" target="bF2_etVDXhsBuvM0KvUb-48">
          <mxGeometry relative="1" as="geometry">
            <mxPoint x="670" y="345" as="targetPoint" />
          </mxGeometry>
        </mxCell>
        <mxCell id="bF2_etVDXhsBuvM0KvUb-118" style="edgeStyle=none;rounded=0;orthogonalLoop=1;jettySize=auto;html=1;entryX=0;entryY=0.75;entryDx=0;entryDy=0;exitX=1;exitY=0.5;exitDx=0;exitDy=0;" edge="1" parent="1" source="ImLfmbIOM0FkZJiw0mNa-4" target="bF2_etVDXhsBuvM0KvUb-87">
          <mxGeometry relative="1" as="geometry" />
        </mxCell>
        <mxCell id="bF2_etVDXhsBuvM0KvUb-133" style="edgeStyle=none;rounded=0;orthogonalLoop=1;jettySize=auto;html=1;entryX=0;entryY=0.5;entryDx=0;entryDy=0;" edge="1" parent="1" source="bF2_etVDXhsBuvM0KvUb-87" target="bF2_etVDXhsBuvM0KvUb-76">
          <mxGeometry relative="1" as="geometry" />
        </mxCell>
        <mxCell id="bF2_etVDXhsBuvM0KvUb-134" style="edgeStyle=none;rounded=0;orthogonalLoop=1;jettySize=auto;html=1;entryX=0;entryY=0.5;entryDx=0;entryDy=0;" edge="1" parent="1" source="bF2_etVDXhsBuvM0KvUb-76" target="bF2_etVDXhsBuvM0KvUb-64">
          <mxGeometry relative="1" as="geometry" />
        </mxCell>
        <mxCell id="bF2_etVDXhsBuvM0KvUb-135" value="&lt;span style=&quot;font-size: 14px ; background-color: rgb(255 , 255 , 255)&quot;&gt;Error Rate / Latency Time&lt;/span&gt;" style="text;html=1;align=center;verticalAlign=middle;resizable=0;points=[];autosize=1;" vertex="1" parent="1">
          <mxGeometry x="470" y="370" width="180" height="20" as="geometry" />
        </mxCell>
        <mxCell id="bF2_etVDXhsBuvM0KvUb-141" value="" style="edgeStyle=elbowEdgeStyle;elbow=vertical;endArrow=classic;html=1;exitX=1;exitY=0.5;exitDx=0;exitDy=0;dashed=1;" edge="1" parent="1" source="lHOtrKICiSRHSmNMq4-3-33">
          <mxGeometry width="50" height="50" relative="1" as="geometry">
            <mxPoint x="810" y="380" as="sourcePoint" />
            <mxPoint x="208" y="140" as="targetPoint" />
            <Array as="points">
              <mxPoint x="550" y="100" />
            </Array>
          </mxGeometry>
        </mxCell>
        <mxCell id="bF2_etVDXhsBuvM0KvUb-153" value="" style="shape=image;verticalLabelPosition=bottom;labelBackgroundColor=#ffffff;verticalAlign=top;aspect=fixed;imageAspect=0;image=data:image/png,iVBORw0KGgoAAAANSUhEUgAAAQUAAAFuCAYAAACIpQ0IAAAegUlEQVR4Ae2dSagcxR/HA54UjFtMNO5GcYmKoiAIXtwSjYlb3KJBEbx4EEWJuERj1LjkIngWD4IHjcYli7n9ISfBm/saTTTu29FT//k+U9rdVTXT86aXWj4Fj+6u6anl86v6vH71ZrrnFCQIQAACJQJzSvvsQgACECiQAoMAAhCoEEAKFRwcQAACSIExAAEIVAgghQoODiAAAaTAGIAABCoEkEIFBwcQgABSYAxAAAIVAkihgoMDCEAAKTAGIACBCgGkUMHBAQQggBQYAxCAQIUAUqjg4AACEEAKjAEIQKBCAClUcHAAAQggBcYABCBQIYAUKjg4gAAEkAJjAAIQqBBAChUcHEAAAkiBMQABCFQIIIUKDg4gAAGkwBiAAAQqBJBCBQcHEIAAUmAMQAACFQJIoYKDAwhAACkwBiAAgQoBpFDBwQEEIIAUGAMQgECFAFKo4OAAAhBACowBCECgQgApVHBwAAEIIAXGAAQgUCGAFCo4OIAABJACYwACEKgQQAoVHBxAAAJIgTEAAQhUCCCFCg4OIAABpMAYgAAEKgSQQgVHXge7du0q/ve//xWvvPJK8cILLxRPP/10sW7dupkf7StPr+kcnUvKgwBSyCPOxZ49e4qXX365uOuuu4rzzz+/OOCAA4o5c+ZM9KP36L0qQ2WpTFJ6BJBCejH9t0cffPDBzG/9c889d6LJP4ksVLauLlQXKQ0CSCGNOFZ68eKLLxYXXnhhZyLwSUN1qm5S3ASQQtzx+7f1f//998yawMKFC3uXQV0SaoPWJNQmUnwEkEJ8MbNa/Pzzzxfz58+fWAZz584tFi9eXFx00UXFypUri9tuu6248847Z360rzy9pnN0bn3yjztWm9Q2UlwEkEJc8aq0dseOHcUk6wWnnnpqsXr16mLjxo3Fli1bivfff3+iH71H71UZKmucFMzraqPaSoqDAFKII05WK++5555Gk1K/5e+9997irbfemkgATYShMlW26jACGLVVm0nhE0AK4ceo0kJN1iZXB8uWLZtZ9Gsyuds4RwuMqnOUFPSa2q76SOESQArhxsZqmT4bsN9++42ceCtWrCg2bdrU+lVBU3GobrVhlBzUB/WFFCYBpBBmXKxWbdiwYeREO++883q9MhgnCV05qE2j5KA+kcIjgBTCi4nVojVr1oycXPq7ftwkHep1tW2UGNQ3UlgEkEJY8bBac99993knlf4DoMvwoSZ803rVxlH/rVAfSeEQQArhxMJqydq1a71CWLp0afHee+8FLwQjDrVVbfZdNaivpDAIIIUw4mC1Qt9Q9E0gfU7ATLbYtmq7r1/qM2l4Akhh+BhYLdi2bZt34ugTh7GJoN5e9cEnBvWdNCwBpDAsf6v2vXv3Fr7vL9xxxx3RC8EIQn1xiUF9FwPScASQwnDsnTVfffXVzsmi7yGYCZXKVn1yiUEMSMMRQArDsbdq9q0jXHDBBckJwYhNfXOJgfUFa3j0loEUekM9uqLdu3cX+++/vzVB5s2bV2zfvj1ZKahv6mNdDGIhJqT+CSCF/pk7a7z99tutiaGJom8lmt+qqW7Vx7oUdCwmpP4JIIX+mVs17ty50zkpUlxH8InNt74gNqR+CSCFfnk7a1u+fLklhUMOOWTmLsq+SZRavu4YrT7XrxjEhtQvAaTQL2+rNt9VwgMPPJD8nw11sanPdSnomKsFa9h0moEUOsU7vvBVq1ZZE2HRokXZCcEIQn2vi0GMSP0RQAr9sbZq0nMT6hNAx/oegJkkuW193/fgGRPW8OksAyl0hnZ8wbrjcV0KCxYsyFYIRoBiUOciVqR+CCCFfjg7azn77LOtwZ/CdxvM5J7t1vXdCLEi9UMAKfTD2apFT1Sq/zbU8ebNm7O/UhADFxueQmUNo04ykEInWMcX+txzz1kD/5xzzsleCObqQizqYhAzUvcEkEL3jJ01LFmyxBr0d999N1LY9ywKsahLQcxI3RNACt0zdtbgeuqzHvtuflPmvhWLuhTEjNQ9AaTQPWOrBk34+oDXp/lyF0G9/65POOocUrcEkEK3fJ2l6/bndSnoic31SZH7sevJ2TzV2jmkWs1ECq3ibFbY/fffb0khpbsqtSUz192ZxI7ULQGk0C1fZ+muuyutX7+eK4XaA2/FpH5FxV2ZnEOq1Uyk0CrOZoW5npyky+K2fsOmUo7rzyyxI3VLACl0y9dZ+jHHHGP9BuziqdCxy0FM6lcKYkfqlgBS6Javs/QDDzzQGuy6n0Dsk7jt9otJXQpiR+qWAFLolq+zdNeTo2N62lPbk99XnpjUpSB2pG4JIIVu+TpLrw90HfsmRu75LlZOqGS2RgAptIayeUFcKbzfSIJcKTQfU22eiRTapNmwLNYUmkmBNYWGA6rl05BCy0CbFMd/H5pJgf8+NBlN7Z+DFNpnOrZEPqfQTAp8TmHsUOrkBKTQCdbRhfKJxmZS4BONo8dRV68iha7IjiiX7z40kwLffRgxiDp8CSl0CNdXtOuymG9J2qLgW5K+EdRtPlLolq+zdH32oP7/d+6nYEuB+yk4h0/nmUihc8TuCrjzki2B8ge1uPOSe9z0kYsU+qDsqIN7NI6WAvdodAyanrKQQk+g69VwN+fRUuBuzvUR098xUuiPdaUmnvvglwLPfagMld4PkELvyP+rkCdEucXAE6L+GyND7CGFIajvq5NnSbqlwLMkBxyURVEghQH589RpWwo8dXrAAbmvaqQwcAxWrVplfWZh0aJFjb5aXP4XXir76nv9MxxiROqPAFLoj7Wzpp07d1qTQJPigQceyE4M6nNdCDoWI1J/BJBCf6y9NS1fvtyaDPo0X073bVRfXZ9gFBtSvwSQQr+8nbX5rhZWrlyZzdWC+spVgnN49J6JFHpH7q7w9ttvd06KjRs3Ji8G9dElBDEh9U8AKfTP3Fnj7t27i/3339+aHPPmzSu2b9+erBjUN/WxLgWxEBNS/wSQQv/MvTW+8MIL1uTQZLnggguSlYL6VheCjsWCNAwBpDAMd2+trrsyaZKkuL7gW0fgeZHe4dHLC0ihF8zNK9m7d2+xcOFC52/PlJ5M7bqrkuSnvosBaTgCSGE49t6at23b5pSCJo2+FxD7B5Vc321Q3/SjvpOGJYAUhuXvrd23vqCJs3r16mjFoLYbAdS3rCN4h0OvLyCFXnFPVpnvewCaTEuXLi1iev6k2qo210VgjtVXUhgEkEIYcfC24r777vNOpFNPPbV4+eWXg79qUBvVViOA+lZ9JIVDACmEEwtvS9asWeOdUJpg9957b7BiUNvqEigfq2+ksAgghbDi4W3Nhg0bRk4uPXVKt44PZRFSbXE9CassBPWJFB4BpBBeTLwt0mW464nV5Ym2YsWKYtOmTYPJQXWrDeU21ffVB/WFFCYBpBBmXLyt0pXAueeeO3LSaRIuW7as1ysHXRmozroA6sdqu/pACpcAUgg3NiNbds8994ydgJqQixcvnllz0BOc2/7TQmVqzUB11Ce/61htJoVPACmEHyNvC3fs2NHoqsFMUP0HQJ8T0LcSt2zZMrEk9B69V2WM+m+Cqc9sdXWgtpLiIIAU4ojTyFY+//zzxfz58xv9tjYTVdu5c+fO/Ja/6KKLZr5bcdttt818YlKfONS+vpug13QloHPL722yrzapbaS4CCCFuOLlbe3ff/9d6O7Qvu9NNJnEbZ2jNqgtahMpPgJIIb6YjW2xFv1cT2xua9L7ylGdqpsUNwGkEHf8RrZeT6Fat27dROsOvgnvy9d6gepQXaQ0CCCFNOI4thd6xoQ+G3DXXXcV559/fuF66rVv4pt8vUfvVRkqS2WS0iOAFNKLaeMe7dq1a+aO0Xrs++WXX24tJCpPr+lOyzqXlAcBpJBHnMf2Un8CmCsCs1UeKT8CSCG/mDt7jBScWLLMRApZht3uNFKwmeSagxRyjXyt30ihBiTjQ6SQcfDLXUcKZRp57yOFvOP/b++Rwr8ost9BCtkPgX8AIAUGgiGAFAyJzLdIIfMBUOo+UijByHkXKeQc/WrfkUKVR7ZHSCHb0FsdRwoWkjwzkEKecXf1Gim4qGSYhxQyDLqny0jBAya3bKSQW8T9/UUKfjZZvYIUsgr3yM4ihZF48nkRKeQT63E9RQrjCGXyOlLIJNANuokUGkDK4RSkkEOUm/URKTTjlPxZSCH5EDfuIFJojCrtE5FC2vGdpHfZSEGDnp/RDMxt2MwWXqN5iU+KKRspmIHOdo51L0aYzJ4JUoiYAAN/9gMfdn52EU8Jb9O5UpjjDziTATbjxoB3ZkX8AlJACvw5McUYiHjue5uejRRYNBu/aFb/rQiz8cy8MyviF7KRQsQx6qXpEoBLCr1UTiVBEUAKQYVjuMYgheHYh1YzUggtIgO1BykMBD7AapFCgEEZoklIYQjqYdaJFMKMS++tQgq9Iw+2QqQQbGj6bRhS6Jd3yLUhhZCj02PbkEKPsAOvCikEHqC+mocU+iIdfj1IIfwY9dJCpNAL5igqQQpRhKn7RiKF7hnHUgNSiCVSHbcTKXQMOKLikUJEweqyqUihS7pxlY0U4opXZ61FCp2hja5gpBBdyLppMFLohmuMpSKFGKPWQZuRQgdQIy0SKUQauLabjRTaJhpveUgh3ti12nKk0CrOqAtDClGHr73GI4X2WMZeElKIPYIttR8ptAQygWKQQgJBbKMLSKENimmUgRTSiOPUvUAKUyNMpgCkkEwop+sIUpiOX0rvRgopRXOKviCFKeAl9lakkFhAZ9sdpDBbcum9DymkF9NZ9QgpzApbkm9CCkmGdfJOIYXJmaX6DqSQamQn7BdSmBBYwqcjhYSDO0nXkMIktNI+FymkHd/GvUMKjVElfyJSSD7EzTqIFJpxyuEspJBDlBv0ESk0gJTJKUghk0CP6yZSGEcon9eRQj6xHtlTpDAST1YvIoWswu3vLFLws8ntFaSQW8Q9/UUKHjAZZiOFDIPu6jJScFHJMw8p5Bl3q9dIwUKSbQZSyDb01Y4jhSqPnI+QQs7RL/UdKZRgZL6LFDIfAKb7SMGQYIsUGAMzBJACA8EQQAqGROZbpJD5ACh1HymUYOS8ixRyjn6170ihyiPbI6SQbeitjiMFC0meGUghz7i7eo0UXFQyzEMKGQbd02Wk4AGTWzZSyC3i/v4iBT+brF5BClmFe2RnkcJIPPm8iBTyifW4niKFcYQyeR0pZBLoBt1ECg0g5XAKUsghys36iBSacUr+LKSQfIgbdxApNEaV9olIIe34TtI7pDAJrYTPRQoJB3fCriGFCYGlejpSSDWyk/cLKUzOLMl3IIUkwzqrTiGFWWFL701IIb2YzrZHSGG25BJ7H1JILKBTdAcpTAEvpbcihZSiOV1fkMJ0/JJ5N1JIJpRTdwQpTI0wjQKQQhpxbKMXSKENigmUgRQSCGJLXUAKLYGMvRikEHsE22s/UmiPZdQlIYWow9dq45FCqzjjLQwpxBu7tluOFNomGml5SCHSwHXQbKTQAdQYi0QKMUatmzYjhW64RlcqUoguZJ01GCl0hjaugpFCXPHqsrVIoUu6EZWNFCIKVsdNRQodA46leKQQS6S6bydS6J5xFDUghSjC1EsjkUIvmMOvBCmEH6O+WogU+iIdeD1IIfAA9dg8pNAj7JCrQgohR6fftiGFfnkHWxtSCDY0vTcMKfSOPMwKkUKYcRmiVUhhCOoB1okUAgzKQE1CCgOBD61apBBaRIZrD1IYjn1QNSOFoMIxaGOQwqD4w6kcKYQTi6FbghSGjkAg9SOFQAIRQDOQQgBBCKEJSCGEKITRBqQQRhwGbwVSGDwEwTQAKQQTimEbghSG5R9S7UghpGgM2BakMCD8wKpGCoEFZKjmIIWhyIdXL1IILyaDtAgpDII9yEqRQpBh6b9RSKF/5qHWiBRCjUzP7UIKPQMPuDqkEHBw+mwaUuiTdth1IYWw49Nb65BCb6iDrwgpBB+ifhqIFPrhHEMtSCGGKPXQRqTQA+RIqkAKkQSq62Yiha4Jx1M+UognVp22FCl0ijeqwpFCVOHqrrEXX3xxMWfOnMqP8kj5EUAK+cXc6vGDDz5YkUFZDnqNlBcBpJBXvK3ebt682SsEIwedQ8qHAFLIJ9ZWT/fu3VscdNBBY6Wgc3QuKQ8CSCGPODt7eemll44Vgrla0LmkPAgghTzibPXy4Ycfdgrh+uuvL/RjZFDe6j2k9AkghfRjbPXwrbfeck76k046qfjhhx9mfrRfFoLZ13tJaRNACmnH1+qdJv3BBx/snPDbtm3793ztGxGUt3qvyiClSwAppBtbZ88uu+wy52R/6qmnrPOVVxaC2VcZpHQJIIV0Y2v1bO3atc5JvnLlSutck6HXjAzKW5VFSpMAUkgzrlav3nnnHefkXrRo0ch/N+pfkTqnLASzrzJJ6RFACunF1OqR1gAOPfRQ58TeunWrdX49Q+cYEZS3KpP1hTqt+I+RQvwxHNuDpUuXOif1k08+Ofa95gSdWxaC2VfZpLQIIIW04mn15tFHH3VO5uuuu846d1yG3mNkUN6qDlI6BJBCOrG0erJlyxbnJD7xxBOL77//3jp/XIbeo/eWhWD2VRcpDQJIIY04Wr3QAuG8efNan8A+0aguvh9hhSHKDKQQZdjGN/qKK65wCuGJJ54Y/+YxZ6gMc4VQ3qpOUvwEkEL8MbR64LqLkibvtddea5072wyVVRaC2VfdpLgJIIW442e13vfx5BNOOGFW6whWBfsytL6gMo0Mytvyx6V97yc/XAJIIdzYTNwy/U1/+OGHOydqFx808n0gSm1gfWHi8AXzBqQQTCimb8iyZcucQli/fv30hXtKUNnlqwSzr7aQ4iSAFOKMm9Xqxx9/3Dk5r7nmGuvctjNUh5FBeas2keIjgBTii5nV4nfffdc5KY8//vhW1xGsivdlaH1BdZWFYPbVNlJcBJBCXPGyWqsJuWDBAueEfPvtt63zu8pQXUYE5a3apjaS4iGAFOKJlbOly5cvd07GIS7dfX/CqI2keAgghXhiZbXU9yGiq6++2jq3rwzVXb5SMPttfGiqrz7kXg9SiHQE7Nixwzn5jjvuuEH/Hah/RaoNRgblrdpMCp8AUgg/RlYLv/vuu+KII45wTrwQbqzquzGs2qy2k8ImgBTCjo+zdVdddZVTCCF9xNj3UWu1nRQ2AaQQdnys1vluphriZPPJy3WTWKujZAxGACkMhn7yin3rCMcee+yg6wi+nmh9QW0rryuYfdYXfNSGz0cKw8egUQv27NlTLFy40DnB3nzzzUZlDHGS2mZEUN6qL+oTKTwCSCG8mDhb5PtX32OPPeY8P6RMtbEsBLM/5L9OQ+ITWluQQmgRcbRnw4YNzkm1YsUKx9lhZqmtRgblrfpGCosAUggrHlZrfN9rOOaYY6K6vbpuBa82l4Vg9vl+hBX2QTOQwqD4R1e+e/fu4uijj3ZOpM2bN49+c4Cvqs1GBOWt+qi+ksIggBTCiIOzFb5bnsV8S3XfLefbvFWcEyaZjQkghcao+j3xmWeecf5WTeHLRb4vcanPpOEJIIXhY2C1YPv27U4h6DI7hce0qQ++P4vUd9KwBJDCsPyt2r/99lvvglyM6whWB/dl+NYXtBgpBqThCCCF4dg7a/Y9mi3FR7+rT+UFR7M/m0faOWGSOSsCSGFW2Lp503PPPeecJFdeeWU3FQZQqvpmZFDeigVpGAJIYRjuVq2+5zUcddRRxY8//midn0qG+qY+loVg9nl+xDBRRgrDcK/U+s0333hvTBLy9xoqnZjiwPf9CN2sRWxI/RJACv3ydtZ2/fXXO39TPvLII87zU8xUX80VQnkrNqR+CSCFfnlbtW3cuNE5GXJ8mIrvYTZiROqPAFLoj7VV09atW51C0NeKf/rpJ+v81DPUZ9/Xw8WK1A8BpNAPZ6sW/a3se0BrDusIFpB9Gb71BbFifcFHrd18pNAuz8al3Xjjjc6rhIcffrhxGameKAbldQWzL2ak7gkghe4ZWzX4Po9wxRVXWOfmmiEWRgblLZ9f6H5EIIXuGVdq2LJli3OwH3nkkVmuI1TglA60viAmZSGYfTEkdUcAKXTH1ip5165dxYknnugc6CE8r8Fq8MAZvudHiKFYkrohgBS64eos9aabbnIK4aGHHnKeT2ZRiI25QihvxZLUDQGk0A1Xq9Rnn33WObgvv/xy61wyqgTEqCwEsy+mpPYJIIX2mVol+tYR9Bi1n3/+2TqfjCoBMfI9Jo/1hSqrNo6QQhsUR5Tx9ddfFyeddJLzNx3rCCPA1V7yrS+IrRiT2iOAFNpj6Sxp1apVTiE8+OCDzvPJ9BMQM/OnQ3krxqT2CCCF9lhaJfnus7h06VLrXDKaERC7shDMPvd3bMavyVlIoQmlWZzzzjvvOAfvggULWEeYBU/zFq0viKGRQXkr5qTpCSCF6RlaJXz11VfFySef7By4b7/9tnU+GZMREMOyDMy+mIs9aToCSGE6fs5333rrrc5ByzqCE9esMn3rC2JPmo4AUpiOn/Vu3zrCkiVLrHPJmI6AmJqrhPKW9YXpuCKF6fhV3u27rJ0/f37xyy+/VM7lYHoCYiq2ZSGYff5Mmz1fpDB7dpV3fvnll8Upp5zCAK1Q6f7AJ2LFQjEhTU4AKUzOzPkO3zoC32tw4mo10/f9CNYXZocZKcyOW+VdTz/9tPMK4bLLLqucx0F3BMTa/OlQ3io2pMkIIIXJeFln+z5+e/jhh7OOYNHqLkPrC2JeFoLZ5+Pkk3FHCpPxqpz9xRdfFKeddppzIPJBmgqqXg58HxhTjBQrUjMCSKEZJ+dZvnUE7rPoxNVLpu/+jqwvNMePFJqzqpy5YcMG5xXCpZdeWjmPg/4JKAbmT4fyVjEjjSeAFMYzss7w3YZ83rx5xa+//mqdT0a/BBQDxaIsBLOf8+3zm0YBKTQlte+8zz//vDj99NOdA44bfkwIs8PTfTe2UewUQ5KfAFLws3G+cssttziFwDqCE9egmb71BcWQ5CeAFPxsrFeeeuoppxAuueQS61wywiCg2Jg/HcpbxZLkJoAU3Fys3M2bNzsH12GHHVb89ttv1vlkhEFAsVGMykIw+4opySaAFGwmVo7+Bj3jjDOcA4t1BAtXcBm+9QXFlPUFO1xIwWZi5fjus/jII49Y55IRJgHFylwhlLfc39GOF1KwmVRynnzySedguvjiiyvncRA+AcWsLASzrxiT/iOAFP5jYe298cYbzkF06KGHso5g0Qo/Q+sLip2RQXmrWJP+IYAUPCPhs88+K8466yznANq6davnXWSHTkCxK8vA7CvWijmpKJCCZxTcfPPNzsHDOoIHWETZvvUFxZyEFJxj4IknnnAKgc8jOHFFmen7/IJin3viSqE2AnzrCIccckjx+++/187mMFYCiqViav58KG9zX19ACqVR/emnn7KOUOKR+u6o9QWNhVwTUihF/qabbnL+5li7dm3pLHZTIqDYlq8SzL7GQq4JKeyL/Pr1652Dg3WE9KeGb31BYyLHhBSKonj99dedQjj44INZR8hgVmh9QbE2VwnlrcZGbil7KXzyySfFmWee6RwQ27Zty208ZNtfxbosA7OvsaExklPKXgo33nijczCwjpDTNPinr771BY2RnFLWUvCtI3CfxZymQLWvvvs75rS+kK0UNm3a5LxCOOigg4o//vijOlI4yoaAYq8xYP58KG81ZnJIWUrh448/9t4fYfv27TnEnT6OIKAxUJaB2df9FzR2Uk9ZSuGGG25wBv3RRx9NPd70ryEBjQUjg/JWYyf1lJ0UHn/8cWewee5j6kN98v75nk+pMZRyykoKr732mlMIc+fOLf7888+U40zfZkFAY0Jjo3ylYPY1llJN2Ujho48+KhYvXuwMMOsIqQ7v6fvlW1/QWNKYSjFlIwXfOsJjjz2WYlzpU4sENEbMFUJ5m+r6QhZSWLdunTOorCO0OHMSL8q3vqCxlVpKXgqvvvqqUwisI6Q2lLvtz6j1BY2xlFLSUvjwww+96wjvvvtuSnGkLz0Q0Jgp//lg9rW+oLGWSkpaCiZIa9asqQSTdQRDhu2kBOrrCxpbqaUspKCgvfTSS8URRxxRLFmyJLUY0p+eCWgMaSxpTKWYspGCgrdz587ir7/+SjGO9KlHAhpDGkuppqykkGoQ6RcE2iSAFNqkSVkQSIAAUkggiHQBAm0SQApt0qQsCCRAACkkEES6AIE2CSCFNmlSFgQSIIAUEggiXYBAmwSQQps0KQsCCRBACgkEkS5AoE0CSKFNmpQFgQQIIIUEgkgXINAmAaTQJk3KgkACBJBCAkGkCxBokwBSaJMmZUEgAQJIIYEg0gUItEkAKbRJk7IgkAABpJBAEOkCBNokgBTapElZEEiAAFJIIIh0AQJtEkAKbdKkLAgkQAApJBBEugCBNgkghTZpUhYEEiDwf9aQV7vMDyh4AAAAAElFTkSuQmCC;" vertex="1" parent="1">
          <mxGeometry x="-30" y="214" width="57.04" height="80" as="geometry" />
        </mxCell>
        <mxCell id="bF2_etVDXhsBuvM0KvUb-154" value="" style="shape=image;verticalLabelPosition=bottom;labelBackgroundColor=#ffffff;verticalAlign=top;aspect=fixed;imageAspect=0;image=data:image/png,iVBORw0KGgoAAAANSUhEUgAAAQUAAAFuCAYAAACIpQ0IAAAegUlEQVR4Ae2dSagcxR/HA54UjFtMNO5GcYmKoiAIXtwSjYlb3KJBEbx4EEWJuERj1LjkIngWD4IHjcYli7n9ISfBm/saTTTu29FT//k+U9rdVTXT86aXWj4Fj+6u6anl86v6vH71ZrrnFCQIQAACJQJzSvvsQgACECiQAoMAAhCoEEAKFRwcQAACSIExAAEIVAgghQoODiAAAaTAGIAABCoEkEIFBwcQgABSYAxAAAIVAkihgoMDCEAAKTAGIACBCgGkUMHBAQQggBQYAxCAQIUAUqjg4AACEEAKjAEIQKBCAClUcHAAAQggBcYABCBQIYAUKjg4gAAEkAJjAAIQqBBAChUcHEAAAkiBMQABCFQIIIUKDg4gAAGkwBiAAAQqBJBCBQcHEIAAUmAMQAACFQJIoYKDAwhAACkwBiAAgQoBpFDBwQEEIIAUGAMQgECFAFKo4OAAAhBACowBCECgQgApVHBwAAEIIAXGAAQgUCGAFCo4OIAABJACYwACEKgQQAoVHBxAAAJIgTEAAQhUCCCFCg4OIAABpMAYgAAEKgSQQgVHXge7du0q/ve//xWvvPJK8cILLxRPP/10sW7dupkf7StPr+kcnUvKgwBSyCPOxZ49e4qXX365uOuuu4rzzz+/OOCAA4o5c+ZM9KP36L0qQ2WpTFJ6BJBCejH9t0cffPDBzG/9c889d6LJP4ksVLauLlQXKQ0CSCGNOFZ68eKLLxYXXnhhZyLwSUN1qm5S3ASQQtzx+7f1f//998yawMKFC3uXQV0SaoPWJNQmUnwEkEJ8MbNa/Pzzzxfz58+fWAZz584tFi9eXFx00UXFypUri9tuu6248847Z360rzy9pnN0bn3yjztWm9Q2UlwEkEJc8aq0dseOHcUk6wWnnnpqsXr16mLjxo3Fli1bivfff3+iH71H71UZKmucFMzraqPaSoqDAFKII05WK++5555Gk1K/5e+9997irbfemkgATYShMlW26jACGLVVm0nhE0AK4ceo0kJN1iZXB8uWLZtZ9Gsyuds4RwuMqnOUFPSa2q76SOESQArhxsZqmT4bsN9++42ceCtWrCg2bdrU+lVBU3GobrVhlBzUB/WFFCYBpBBmXKxWbdiwYeREO++883q9MhgnCV05qE2j5KA+kcIjgBTCi4nVojVr1oycXPq7ftwkHep1tW2UGNQ3UlgEkEJY8bBac99993knlf4DoMvwoSZ803rVxlH/rVAfSeEQQArhxMJqydq1a71CWLp0afHee+8FLwQjDrVVbfZdNaivpDAIIIUw4mC1Qt9Q9E0gfU7ATLbYtmq7r1/qM2l4Akhh+BhYLdi2bZt34ugTh7GJoN5e9cEnBvWdNCwBpDAsf6v2vXv3Fr7vL9xxxx3RC8EIQn1xiUF9FwPScASQwnDsnTVfffXVzsmi7yGYCZXKVn1yiUEMSMMRQArDsbdq9q0jXHDBBckJwYhNfXOJgfUFa3j0loEUekM9uqLdu3cX+++/vzVB5s2bV2zfvj1ZKahv6mNdDGIhJqT+CSCF/pk7a7z99tutiaGJom8lmt+qqW7Vx7oUdCwmpP4JIIX+mVs17ty50zkpUlxH8InNt74gNqR+CSCFfnk7a1u+fLklhUMOOWTmLsq+SZRavu4YrT7XrxjEhtQvAaTQL2+rNt9VwgMPPJD8nw11sanPdSnomKsFa9h0moEUOsU7vvBVq1ZZE2HRokXZCcEIQn2vi0GMSP0RQAr9sbZq0nMT6hNAx/oegJkkuW193/fgGRPW8OksAyl0hnZ8wbrjcV0KCxYsyFYIRoBiUOciVqR+CCCFfjg7azn77LOtwZ/CdxvM5J7t1vXdCLEi9UMAKfTD2apFT1Sq/zbU8ebNm7O/UhADFxueQmUNo04ykEInWMcX+txzz1kD/5xzzsleCObqQizqYhAzUvcEkEL3jJ01LFmyxBr0d999N1LY9ywKsahLQcxI3RNACt0zdtbgeuqzHvtuflPmvhWLuhTEjNQ9AaTQPWOrBk34+oDXp/lyF0G9/65POOocUrcEkEK3fJ2l6/bndSnoic31SZH7sevJ2TzV2jmkWs1ECq3ibFbY/fffb0khpbsqtSUz192ZxI7ULQGk0C1fZ+muuyutX7+eK4XaA2/FpH5FxV2ZnEOq1Uyk0CrOZoW5npyky+K2fsOmUo7rzyyxI3VLACl0y9dZ+jHHHGP9BuziqdCxy0FM6lcKYkfqlgBS6Javs/QDDzzQGuy6n0Dsk7jt9otJXQpiR+qWAFLolq+zdNeTo2N62lPbk99XnpjUpSB2pG4JIIVu+TpLrw90HfsmRu75LlZOqGS2RgAptIayeUFcKbzfSIJcKTQfU22eiRTapNmwLNYUmkmBNYWGA6rl05BCy0CbFMd/H5pJgf8+NBlN7Z+DFNpnOrZEPqfQTAp8TmHsUOrkBKTQCdbRhfKJxmZS4BONo8dRV68iha7IjiiX7z40kwLffRgxiDp8CSl0CNdXtOuymG9J2qLgW5K+EdRtPlLolq+zdH32oP7/d+6nYEuB+yk4h0/nmUihc8TuCrjzki2B8ge1uPOSe9z0kYsU+qDsqIN7NI6WAvdodAyanrKQQk+g69VwN+fRUuBuzvUR098xUuiPdaUmnvvglwLPfagMld4PkELvyP+rkCdEucXAE6L+GyND7CGFIajvq5NnSbqlwLMkBxyURVEghQH589RpWwo8dXrAAbmvaqQwcAxWrVplfWZh0aJFjb5aXP4XXir76nv9MxxiROqPAFLoj7Wzpp07d1qTQJPigQceyE4M6nNdCDoWI1J/BJBCf6y9NS1fvtyaDPo0X073bVRfXZ9gFBtSvwSQQr+8nbX5rhZWrlyZzdWC+spVgnN49J6JFHpH7q7w9ttvd06KjRs3Ji8G9dElBDEh9U8AKfTP3Fnj7t27i/3339+aHPPmzSu2b9+erBjUN/WxLgWxEBNS/wSQQv/MvTW+8MIL1uTQZLnggguSlYL6VheCjsWCNAwBpDAMd2+trrsyaZKkuL7gW0fgeZHe4dHLC0ihF8zNK9m7d2+xcOFC52/PlJ5M7bqrkuSnvosBaTgCSGE49t6at23b5pSCJo2+FxD7B5Vc321Q3/SjvpOGJYAUhuXvrd23vqCJs3r16mjFoLYbAdS3rCN4h0OvLyCFXnFPVpnvewCaTEuXLi1iev6k2qo210VgjtVXUhgEkEIYcfC24r777vNOpFNPPbV4+eWXg79qUBvVViOA+lZ9JIVDACmEEwtvS9asWeOdUJpg9957b7BiUNvqEigfq2+ksAgghbDi4W3Nhg0bRk4uPXVKt44PZRFSbXE9CassBPWJFB4BpBBeTLwt0mW464nV5Ym2YsWKYtOmTYPJQXWrDeU21ffVB/WFFCYBpBBmXLyt0pXAueeeO3LSaRIuW7as1ysHXRmozroA6sdqu/pACpcAUgg3NiNbds8994ydgJqQixcvnllz0BOc2/7TQmVqzUB11Ce/61htJoVPACmEHyNvC3fs2NHoqsFMUP0HQJ8T0LcSt2zZMrEk9B69V2WM+m+Cqc9sdXWgtpLiIIAU4ojTyFY+//zzxfz58xv9tjYTVdu5c+fO/Ja/6KKLZr5bcdttt818YlKfONS+vpug13QloHPL722yrzapbaS4CCCFuOLlbe3ff/9d6O7Qvu9NNJnEbZ2jNqgtahMpPgJIIb6YjW2xFv1cT2xua9L7ylGdqpsUNwGkEHf8RrZeT6Fat27dROsOvgnvy9d6gepQXaQ0CCCFNOI4thd6xoQ+G3DXXXcV559/fuF66rVv4pt8vUfvVRkqS2WS0iOAFNKLaeMe7dq1a+aO0Xrs++WXX24tJCpPr+lOyzqXlAcBpJBHnMf2Un8CmCsCs1UeKT8CSCG/mDt7jBScWLLMRApZht3uNFKwmeSagxRyjXyt30ihBiTjQ6SQcfDLXUcKZRp57yOFvOP/b++Rwr8ost9BCtkPgX8AIAUGgiGAFAyJzLdIIfMBUOo+UijByHkXKeQc/WrfkUKVR7ZHSCHb0FsdRwoWkjwzkEKecXf1Gim4qGSYhxQyDLqny0jBAya3bKSQW8T9/UUKfjZZvYIUsgr3yM4ihZF48nkRKeQT63E9RQrjCGXyOlLIJNANuokUGkDK4RSkkEOUm/URKTTjlPxZSCH5EDfuIFJojCrtE5FC2vGdpHfZSEGDnp/RDMxt2MwWXqN5iU+KKRspmIHOdo51L0aYzJ4JUoiYAAN/9gMfdn52EU8Jb9O5UpjjDziTATbjxoB3ZkX8AlJACvw5McUYiHjue5uejRRYNBu/aFb/rQiz8cy8MyviF7KRQsQx6qXpEoBLCr1UTiVBEUAKQYVjuMYgheHYh1YzUggtIgO1BykMBD7AapFCgEEZoklIYQjqYdaJFMKMS++tQgq9Iw+2QqQQbGj6bRhS6Jd3yLUhhZCj02PbkEKPsAOvCikEHqC+mocU+iIdfj1IIfwY9dJCpNAL5igqQQpRhKn7RiKF7hnHUgNSiCVSHbcTKXQMOKLikUJEweqyqUihS7pxlY0U4opXZ61FCp2hja5gpBBdyLppMFLohmuMpSKFGKPWQZuRQgdQIy0SKUQauLabjRTaJhpveUgh3ti12nKk0CrOqAtDClGHr73GI4X2WMZeElKIPYIttR8ptAQygWKQQgJBbKMLSKENimmUgRTSiOPUvUAKUyNMpgCkkEwop+sIUpiOX0rvRgopRXOKviCFKeAl9lakkFhAZ9sdpDBbcum9DymkF9NZ9QgpzApbkm9CCkmGdfJOIYXJmaX6DqSQamQn7BdSmBBYwqcjhYSDO0nXkMIktNI+FymkHd/GvUMKjVElfyJSSD7EzTqIFJpxyuEspJBDlBv0ESk0gJTJKUghk0CP6yZSGEcon9eRQj6xHtlTpDAST1YvIoWswu3vLFLws8ntFaSQW8Q9/UUKHjAZZiOFDIPu6jJScFHJMw8p5Bl3q9dIwUKSbQZSyDb01Y4jhSqPnI+QQs7RL/UdKZRgZL6LFDIfAKb7SMGQYIsUGAMzBJACA8EQQAqGROZbpJD5ACh1HymUYOS8ixRyjn6170ihyiPbI6SQbeitjiMFC0meGUghz7i7eo0UXFQyzEMKGQbd02Wk4AGTWzZSyC3i/v4iBT+brF5BClmFe2RnkcJIPPm8iBTyifW4niKFcYQyeR0pZBLoBt1ECg0g5XAKUsghys36iBSacUr+LKSQfIgbdxApNEaV9olIIe34TtI7pDAJrYTPRQoJB3fCriGFCYGlejpSSDWyk/cLKUzOLMl3IIUkwzqrTiGFWWFL701IIb2YzrZHSGG25BJ7H1JILKBTdAcpTAEvpbcihZSiOV1fkMJ0/JJ5N1JIJpRTdwQpTI0wjQKQQhpxbKMXSKENigmUgRQSCGJLXUAKLYGMvRikEHsE22s/UmiPZdQlIYWow9dq45FCqzjjLQwpxBu7tluOFNomGml5SCHSwHXQbKTQAdQYi0QKMUatmzYjhW64RlcqUoguZJ01GCl0hjaugpFCXPHqsrVIoUu6EZWNFCIKVsdNRQodA46leKQQS6S6bydS6J5xFDUghSjC1EsjkUIvmMOvBCmEH6O+WogU+iIdeD1IIfAA9dg8pNAj7JCrQgohR6fftiGFfnkHWxtSCDY0vTcMKfSOPMwKkUKYcRmiVUhhCOoB1okUAgzKQE1CCgOBD61apBBaRIZrD1IYjn1QNSOFoMIxaGOQwqD4w6kcKYQTi6FbghSGjkAg9SOFQAIRQDOQQgBBCKEJSCGEKITRBqQQRhwGbwVSGDwEwTQAKQQTimEbghSG5R9S7UghpGgM2BakMCD8wKpGCoEFZKjmIIWhyIdXL1IILyaDtAgpDII9yEqRQpBh6b9RSKF/5qHWiBRCjUzP7UIKPQMPuDqkEHBw+mwaUuiTdth1IYWw49Nb65BCb6iDrwgpBB+ifhqIFPrhHEMtSCGGKPXQRqTQA+RIqkAKkQSq62Yiha4Jx1M+UognVp22FCl0ijeqwpFCVOHqrrEXX3xxMWfOnMqP8kj5EUAK+cXc6vGDDz5YkUFZDnqNlBcBpJBXvK3ebt682SsEIwedQ8qHAFLIJ9ZWT/fu3VscdNBBY6Wgc3QuKQ8CSCGPODt7eemll44Vgrla0LmkPAgghTzibPXy4Ycfdgrh+uuvL/RjZFDe6j2k9AkghfRjbPXwrbfeck76k046qfjhhx9mfrRfFoLZ13tJaRNACmnH1+qdJv3BBx/snPDbtm3793ztGxGUt3qvyiClSwAppBtbZ88uu+wy52R/6qmnrPOVVxaC2VcZpHQJIIV0Y2v1bO3atc5JvnLlSutck6HXjAzKW5VFSpMAUkgzrlav3nnnHefkXrRo0ch/N+pfkTqnLASzrzJJ6RFACunF1OqR1gAOPfRQ58TeunWrdX49Q+cYEZS3KpP1hTqt+I+RQvwxHNuDpUuXOif1k08+Ofa95gSdWxaC2VfZpLQIIIW04mn15tFHH3VO5uuuu846d1yG3mNkUN6qDlI6BJBCOrG0erJlyxbnJD7xxBOL77//3jp/XIbeo/eWhWD2VRcpDQJIIY04Wr3QAuG8efNan8A+0aguvh9hhSHKDKQQZdjGN/qKK65wCuGJJ54Y/+YxZ6gMc4VQ3qpOUvwEkEL8MbR64LqLkibvtddea5072wyVVRaC2VfdpLgJIIW442e13vfx5BNOOGFW6whWBfsytL6gMo0Mytvyx6V97yc/XAJIIdzYTNwy/U1/+OGHOydqFx808n0gSm1gfWHi8AXzBqQQTCimb8iyZcucQli/fv30hXtKUNnlqwSzr7aQ4iSAFOKMm9Xqxx9/3Dk5r7nmGuvctjNUh5FBeas2keIjgBTii5nV4nfffdc5KY8//vhW1xGsivdlaH1BdZWFYPbVNlJcBJBCXPGyWqsJuWDBAueEfPvtt63zu8pQXUYE5a3apjaS4iGAFOKJlbOly5cvd07GIS7dfX/CqI2keAgghXhiZbXU9yGiq6++2jq3rwzVXb5SMPttfGiqrz7kXg9SiHQE7Nixwzn5jjvuuEH/Hah/RaoNRgblrdpMCp8AUgg/RlYLv/vuu+KII45wTrwQbqzquzGs2qy2k8ImgBTCjo+zdVdddZVTCCF9xNj3UWu1nRQ2AaQQdnys1vluphriZPPJy3WTWKujZAxGACkMhn7yin3rCMcee+yg6wi+nmh9QW0rryuYfdYXfNSGz0cKw8egUQv27NlTLFy40DnB3nzzzUZlDHGS2mZEUN6qL+oTKTwCSCG8mDhb5PtX32OPPeY8P6RMtbEsBLM/5L9OQ+ITWluQQmgRcbRnw4YNzkm1YsUKx9lhZqmtRgblrfpGCosAUggrHlZrfN9rOOaYY6K6vbpuBa82l4Vg9vl+hBX2QTOQwqD4R1e+e/fu4uijj3ZOpM2bN49+c4Cvqs1GBOWt+qi+ksIggBTCiIOzFb5bnsV8S3XfLefbvFWcEyaZjQkghcao+j3xmWeecf5WTeHLRb4vcanPpOEJIIXhY2C1YPv27U4h6DI7hce0qQ++P4vUd9KwBJDCsPyt2r/99lvvglyM6whWB/dl+NYXtBgpBqThCCCF4dg7a/Y9mi3FR7+rT+UFR7M/m0faOWGSOSsCSGFW2Lp503PPPeecJFdeeWU3FQZQqvpmZFDeigVpGAJIYRjuVq2+5zUcddRRxY8//midn0qG+qY+loVg9nl+xDBRRgrDcK/U+s0333hvTBLy9xoqnZjiwPf9CN2sRWxI/RJACv3ydtZ2/fXXO39TPvLII87zU8xUX80VQnkrNqR+CSCFfnlbtW3cuNE5GXJ8mIrvYTZiROqPAFLoj7VV09atW51C0NeKf/rpJ+v81DPUZ9/Xw8WK1A8BpNAPZ6sW/a3se0BrDusIFpB9Gb71BbFifcFHrd18pNAuz8al3Xjjjc6rhIcffrhxGameKAbldQWzL2ak7gkghe4ZWzX4Po9wxRVXWOfmmiEWRgblLZ9f6H5EIIXuGVdq2LJli3OwH3nkkVmuI1TglA60viAmZSGYfTEkdUcAKXTH1ip5165dxYknnugc6CE8r8Fq8MAZvudHiKFYkrohgBS64eos9aabbnIK4aGHHnKeT2ZRiI25QihvxZLUDQGk0A1Xq9Rnn33WObgvv/xy61wyqgTEqCwEsy+mpPYJIIX2mVol+tYR9Bi1n3/+2TqfjCoBMfI9Jo/1hSqrNo6QQhsUR5Tx9ddfFyeddJLzNx3rCCPA1V7yrS+IrRiT2iOAFNpj6Sxp1apVTiE8+OCDzvPJ9BMQM/OnQ3krxqT2CCCF9lhaJfnus7h06VLrXDKaERC7shDMPvd3bMavyVlIoQmlWZzzzjvvOAfvggULWEeYBU/zFq0viKGRQXkr5qTpCSCF6RlaJXz11VfFySef7By4b7/9tnU+GZMREMOyDMy+mIs9aToCSGE6fs5333rrrc5ByzqCE9esMn3rC2JPmo4AUpiOn/Vu3zrCkiVLrHPJmI6AmJqrhPKW9YXpuCKF6fhV3u27rJ0/f37xyy+/VM7lYHoCYiq2ZSGYff5Mmz1fpDB7dpV3fvnll8Upp5zCAK1Q6f7AJ2LFQjEhTU4AKUzOzPkO3zoC32tw4mo10/f9CNYXZocZKcyOW+VdTz/9tPMK4bLLLqucx0F3BMTa/OlQ3io2pMkIIIXJeFln+z5+e/jhh7OOYNHqLkPrC2JeFoLZ5+Pkk3FHCpPxqpz9xRdfFKeddppzIPJBmgqqXg58HxhTjBQrUjMCSKEZJ+dZvnUE7rPoxNVLpu/+jqwvNMePFJqzqpy5YcMG5xXCpZdeWjmPg/4JKAbmT4fyVjEjjSeAFMYzss7w3YZ83rx5xa+//mqdT0a/BBQDxaIsBLOf8+3zm0YBKTQlte+8zz//vDj99NOdA44bfkwIs8PTfTe2UewUQ5KfAFLws3G+cssttziFwDqCE9egmb71BcWQ5CeAFPxsrFeeeuoppxAuueQS61wywiCg2Jg/HcpbxZLkJoAU3Fys3M2bNzsH12GHHVb89ttv1vlkhEFAsVGMykIw+4opySaAFGwmVo7+Bj3jjDOcA4t1BAtXcBm+9QXFlPUFO1xIwWZi5fjus/jII49Y55IRJgHFylwhlLfc39GOF1KwmVRynnzySedguvjiiyvncRA+AcWsLASzrxiT/iOAFP5jYe298cYbzkF06KGHso5g0Qo/Q+sLip2RQXmrWJP+IYAUPCPhs88+K8466yznANq6davnXWSHTkCxK8vA7CvWijmpKJCCZxTcfPPNzsHDOoIHWETZvvUFxZyEFJxj4IknnnAKgc8jOHFFmen7/IJin3viSqE2AnzrCIccckjx+++/187mMFYCiqViav58KG9zX19ACqVR/emnn7KOUOKR+u6o9QWNhVwTUihF/qabbnL+5li7dm3pLHZTIqDYlq8SzL7GQq4JKeyL/Pr1652Dg3WE9KeGb31BYyLHhBSKonj99dedQjj44INZR8hgVmh9QbE2VwnlrcZGbil7KXzyySfFmWee6RwQ27Zty208ZNtfxbosA7OvsaExklPKXgo33nijczCwjpDTNPinr771BY2RnFLWUvCtI3CfxZymQLWvvvs75rS+kK0UNm3a5LxCOOigg4o//vijOlI4yoaAYq8xYP58KG81ZnJIWUrh448/9t4fYfv27TnEnT6OIKAxUJaB2df9FzR2Uk9ZSuGGG25wBv3RRx9NPd70ryEBjQUjg/JWYyf1lJ0UHn/8cWewee5j6kN98v75nk+pMZRyykoKr732mlMIc+fOLf7888+U40zfZkFAY0Jjo3ylYPY1llJN2Ujho48+KhYvXuwMMOsIqQ7v6fvlW1/QWNKYSjFlIwXfOsJjjz2WYlzpU4sENEbMFUJ5m+r6QhZSWLdunTOorCO0OHMSL8q3vqCxlVpKXgqvvvqqUwisI6Q2lLvtz6j1BY2xlFLSUvjwww+96wjvvvtuSnGkLz0Q0Jgp//lg9rW+oLGWSkpaCiZIa9asqQSTdQRDhu2kBOrrCxpbqaUspKCgvfTSS8URRxxRLFmyJLUY0p+eCWgMaSxpTKWYspGCgrdz587ir7/+SjGO9KlHAhpDGkuppqykkGoQ6RcE2iSAFNqkSVkQSIAAUkggiHQBAm0SQApt0qQsCCRAACkkEES6AIE2CSCFNmlSFgQSIIAUEggiXYBAmwSQQps0KQsCCRBACgkEkS5AoE0CSKFNmpQFgQQIIIUEgkgXINAmAaTQJk3KgkACBJBCAkGkCxBokwBSaJMmZUEgAQJIIYEg0gUItEkAKbRJk7IgkAABpJBAEOkCBNokgBTapElZEEiAAFJIIIh0AQJtEkAKbdKkLAgkQAApJBBEugCBNgkghTZpUhYEEiDwf9aQV7vMDyh4AAAAAElFTkSuQmCC;" vertex="1" parent="1">
          <mxGeometry x="-30" y="320" width="57.04" height="80" as="geometry" />
        </mxCell>
        <mxCell id="bF2_etVDXhsBuvM0KvUb-155" value="" style="shape=image;verticalLabelPosition=bottom;labelBackgroundColor=#ffffff;verticalAlign=top;aspect=fixed;imageAspect=0;image=data:image/png,iVBORw0KGgoAAAANSUhEUgAAAQUAAAFuCAYAAACIpQ0IAAAegUlEQVR4Ae2dSagcxR/HA54UjFtMNO5GcYmKoiAIXtwSjYlb3KJBEbx4EEWJuERj1LjkIngWD4IHjcYli7n9ISfBm/saTTTu29FT//k+U9rdVTXT86aXWj4Fj+6u6anl86v6vH71ZrrnFCQIQAACJQJzSvvsQgACECiQAoMAAhCoEEAKFRwcQAACSIExAAEIVAgghQoODiAAAaTAGIAABCoEkEIFBwcQgABSYAxAAAIVAkihgoMDCEAAKTAGIACBCgGkUMHBAQQggBQYAxCAQIUAUqjg4AACEEAKjAEIQKBCAClUcHAAAQggBcYABCBQIYAUKjg4gAAEkAJjAAIQqBBAChUcHEAAAkiBMQABCFQIIIUKDg4gAAGkwBiAAAQqBJBCBQcHEIAAUmAMQAACFQJIoYKDAwhAACkwBiAAgQoBpFDBwQEEIIAUGAMQgECFAFKo4OAAAhBACowBCECgQgApVHBwAAEIIAXGAAQgUCGAFCo4OIAABJACYwACEKgQQAoVHBxAAAJIgTEAAQhUCCCFCg4OIAABpMAYgAAEKgSQQgVHXge7du0q/ve//xWvvPJK8cILLxRPP/10sW7dupkf7StPr+kcnUvKgwBSyCPOxZ49e4qXX365uOuuu4rzzz+/OOCAA4o5c+ZM9KP36L0qQ2WpTFJ6BJBCejH9t0cffPDBzG/9c889d6LJP4ksVLauLlQXKQ0CSCGNOFZ68eKLLxYXXnhhZyLwSUN1qm5S3ASQQtzx+7f1f//998yawMKFC3uXQV0SaoPWJNQmUnwEkEJ8MbNa/Pzzzxfz58+fWAZz584tFi9eXFx00UXFypUri9tuu6248847Z360rzy9pnN0bn3yjztWm9Q2UlwEkEJc8aq0dseOHcUk6wWnnnpqsXr16mLjxo3Fli1bivfff3+iH71H71UZKmucFMzraqPaSoqDAFKII05WK++5555Gk1K/5e+9997irbfemkgATYShMlW26jACGLVVm0nhE0AK4ceo0kJN1iZXB8uWLZtZ9Gsyuds4RwuMqnOUFPSa2q76SOESQArhxsZqmT4bsN9++42ceCtWrCg2bdrU+lVBU3GobrVhlBzUB/WFFCYBpBBmXKxWbdiwYeREO++883q9MhgnCV05qE2j5KA+kcIjgBTCi4nVojVr1oycXPq7ftwkHep1tW2UGNQ3UlgEkEJY8bBac99993knlf4DoMvwoSZ803rVxlH/rVAfSeEQQArhxMJqydq1a71CWLp0afHee+8FLwQjDrVVbfZdNaivpDAIIIUw4mC1Qt9Q9E0gfU7ATLbYtmq7r1/qM2l4Akhh+BhYLdi2bZt34ugTh7GJoN5e9cEnBvWdNCwBpDAsf6v2vXv3Fr7vL9xxxx3RC8EIQn1xiUF9FwPScASQwnDsnTVfffXVzsmi7yGYCZXKVn1yiUEMSMMRQArDsbdq9q0jXHDBBckJwYhNfXOJgfUFa3j0loEUekM9uqLdu3cX+++/vzVB5s2bV2zfvj1ZKahv6mNdDGIhJqT+CSCF/pk7a7z99tutiaGJom8lmt+qqW7Vx7oUdCwmpP4JIIX+mVs17ty50zkpUlxH8InNt74gNqR+CSCFfnk7a1u+fLklhUMOOWTmLsq+SZRavu4YrT7XrxjEhtQvAaTQL2+rNt9VwgMPPJD8nw11sanPdSnomKsFa9h0moEUOsU7vvBVq1ZZE2HRokXZCcEIQn2vi0GMSP0RQAr9sbZq0nMT6hNAx/oegJkkuW193/fgGRPW8OksAyl0hnZ8wbrjcV0KCxYsyFYIRoBiUOciVqR+CCCFfjg7azn77LOtwZ/CdxvM5J7t1vXdCLEi9UMAKfTD2apFT1Sq/zbU8ebNm7O/UhADFxueQmUNo04ykEInWMcX+txzz1kD/5xzzsleCObqQizqYhAzUvcEkEL3jJ01LFmyxBr0d999N1LY9ywKsahLQcxI3RNACt0zdtbgeuqzHvtuflPmvhWLuhTEjNQ9AaTQPWOrBk34+oDXp/lyF0G9/65POOocUrcEkEK3fJ2l6/bndSnoic31SZH7sevJ2TzV2jmkWs1ECq3ibFbY/fffb0khpbsqtSUz192ZxI7ULQGk0C1fZ+muuyutX7+eK4XaA2/FpH5FxV2ZnEOq1Uyk0CrOZoW5npyky+K2fsOmUo7rzyyxI3VLACl0y9dZ+jHHHGP9BuziqdCxy0FM6lcKYkfqlgBS6Javs/QDDzzQGuy6n0Dsk7jt9otJXQpiR+qWAFLolq+zdNeTo2N62lPbk99XnpjUpSB2pG4JIIVu+TpLrw90HfsmRu75LlZOqGS2RgAptIayeUFcKbzfSIJcKTQfU22eiRTapNmwLNYUmkmBNYWGA6rl05BCy0CbFMd/H5pJgf8+NBlN7Z+DFNpnOrZEPqfQTAp8TmHsUOrkBKTQCdbRhfKJxmZS4BONo8dRV68iha7IjiiX7z40kwLffRgxiDp8CSl0CNdXtOuymG9J2qLgW5K+EdRtPlLolq+zdH32oP7/d+6nYEuB+yk4h0/nmUihc8TuCrjzki2B8ge1uPOSe9z0kYsU+qDsqIN7NI6WAvdodAyanrKQQk+g69VwN+fRUuBuzvUR098xUuiPdaUmnvvglwLPfagMld4PkELvyP+rkCdEucXAE6L+GyND7CGFIajvq5NnSbqlwLMkBxyURVEghQH589RpWwo8dXrAAbmvaqQwcAxWrVplfWZh0aJFjb5aXP4XXir76nv9MxxiROqPAFLoj7Wzpp07d1qTQJPigQceyE4M6nNdCDoWI1J/BJBCf6y9NS1fvtyaDPo0X073bVRfXZ9gFBtSvwSQQr+8nbX5rhZWrlyZzdWC+spVgnN49J6JFHpH7q7w9ttvd06KjRs3Ji8G9dElBDEh9U8AKfTP3Fnj7t27i/3339+aHPPmzSu2b9+erBjUN/WxLgWxEBNS/wSQQv/MvTW+8MIL1uTQZLnggguSlYL6VheCjsWCNAwBpDAMd2+trrsyaZKkuL7gW0fgeZHe4dHLC0ihF8zNK9m7d2+xcOFC52/PlJ5M7bqrkuSnvosBaTgCSGE49t6at23b5pSCJo2+FxD7B5Vc321Q3/SjvpOGJYAUhuXvrd23vqCJs3r16mjFoLYbAdS3rCN4h0OvLyCFXnFPVpnvewCaTEuXLi1iev6k2qo210VgjtVXUhgEkEIYcfC24r777vNOpFNPPbV4+eWXg79qUBvVViOA+lZ9JIVDACmEEwtvS9asWeOdUJpg9957b7BiUNvqEigfq2+ksAgghbDi4W3Nhg0bRk4uPXVKt44PZRFSbXE9CassBPWJFB4BpBBeTLwt0mW464nV5Ym2YsWKYtOmTYPJQXWrDeU21ffVB/WFFCYBpBBmXLyt0pXAueeeO3LSaRIuW7as1ysHXRmozroA6sdqu/pACpcAUgg3NiNbds8994ydgJqQixcvnllz0BOc2/7TQmVqzUB11Ce/61htJoVPACmEHyNvC3fs2NHoqsFMUP0HQJ8T0LcSt2zZMrEk9B69V2WM+m+Cqc9sdXWgtpLiIIAU4ojTyFY+//zzxfz58xv9tjYTVdu5c+fO/Ja/6KKLZr5bcdttt818YlKfONS+vpug13QloHPL722yrzapbaS4CCCFuOLlbe3ff/9d6O7Qvu9NNJnEbZ2jNqgtahMpPgJIIb6YjW2xFv1cT2xua9L7ylGdqpsUNwGkEHf8RrZeT6Fat27dROsOvgnvy9d6gepQXaQ0CCCFNOI4thd6xoQ+G3DXXXcV559/fuF66rVv4pt8vUfvVRkqS2WS0iOAFNKLaeMe7dq1a+aO0Xrs++WXX24tJCpPr+lOyzqXlAcBpJBHnMf2Un8CmCsCs1UeKT8CSCG/mDt7jBScWLLMRApZht3uNFKwmeSagxRyjXyt30ihBiTjQ6SQcfDLXUcKZRp57yOFvOP/b++Rwr8ost9BCtkPgX8AIAUGgiGAFAyJzLdIIfMBUOo+UijByHkXKeQc/WrfkUKVR7ZHSCHb0FsdRwoWkjwzkEKecXf1Gim4qGSYhxQyDLqny0jBAya3bKSQW8T9/UUKfjZZvYIUsgr3yM4ihZF48nkRKeQT63E9RQrjCGXyOlLIJNANuokUGkDK4RSkkEOUm/URKTTjlPxZSCH5EDfuIFJojCrtE5FC2vGdpHfZSEGDnp/RDMxt2MwWXqN5iU+KKRspmIHOdo51L0aYzJ4JUoiYAAN/9gMfdn52EU8Jb9O5UpjjDziTATbjxoB3ZkX8AlJACvw5McUYiHjue5uejRRYNBu/aFb/rQiz8cy8MyviF7KRQsQx6qXpEoBLCr1UTiVBEUAKQYVjuMYgheHYh1YzUggtIgO1BykMBD7AapFCgEEZoklIYQjqYdaJFMKMS++tQgq9Iw+2QqQQbGj6bRhS6Jd3yLUhhZCj02PbkEKPsAOvCikEHqC+mocU+iIdfj1IIfwY9dJCpNAL5igqQQpRhKn7RiKF7hnHUgNSiCVSHbcTKXQMOKLikUJEweqyqUihS7pxlY0U4opXZ61FCp2hja5gpBBdyLppMFLohmuMpSKFGKPWQZuRQgdQIy0SKUQauLabjRTaJhpveUgh3ti12nKk0CrOqAtDClGHr73GI4X2WMZeElKIPYIttR8ptAQygWKQQgJBbKMLSKENimmUgRTSiOPUvUAKUyNMpgCkkEwop+sIUpiOX0rvRgopRXOKviCFKeAl9lakkFhAZ9sdpDBbcum9DymkF9NZ9QgpzApbkm9CCkmGdfJOIYXJmaX6DqSQamQn7BdSmBBYwqcjhYSDO0nXkMIktNI+FymkHd/GvUMKjVElfyJSSD7EzTqIFJpxyuEspJBDlBv0ESk0gJTJKUghk0CP6yZSGEcon9eRQj6xHtlTpDAST1YvIoWswu3vLFLws8ntFaSQW8Q9/UUKHjAZZiOFDIPu6jJScFHJMw8p5Bl3q9dIwUKSbQZSyDb01Y4jhSqPnI+QQs7RL/UdKZRgZL6LFDIfAKb7SMGQYIsUGAMzBJACA8EQQAqGROZbpJD5ACh1HymUYOS8ixRyjn6170ihyiPbI6SQbeitjiMFC0meGUghz7i7eo0UXFQyzEMKGQbd02Wk4AGTWzZSyC3i/v4iBT+brF5BClmFe2RnkcJIPPm8iBTyifW4niKFcYQyeR0pZBLoBt1ECg0g5XAKUsghys36iBSacUr+LKSQfIgbdxApNEaV9olIIe34TtI7pDAJrYTPRQoJB3fCriGFCYGlejpSSDWyk/cLKUzOLMl3IIUkwzqrTiGFWWFL701IIb2YzrZHSGG25BJ7H1JILKBTdAcpTAEvpbcihZSiOV1fkMJ0/JJ5N1JIJpRTdwQpTI0wjQKQQhpxbKMXSKENigmUgRQSCGJLXUAKLYGMvRikEHsE22s/UmiPZdQlIYWow9dq45FCqzjjLQwpxBu7tluOFNomGml5SCHSwHXQbKTQAdQYi0QKMUatmzYjhW64RlcqUoguZJ01GCl0hjaugpFCXPHqsrVIoUu6EZWNFCIKVsdNRQodA46leKQQS6S6bydS6J5xFDUghSjC1EsjkUIvmMOvBCmEH6O+WogU+iIdeD1IIfAA9dg8pNAj7JCrQgohR6fftiGFfnkHWxtSCDY0vTcMKfSOPMwKkUKYcRmiVUhhCOoB1okUAgzKQE1CCgOBD61apBBaRIZrD1IYjn1QNSOFoMIxaGOQwqD4w6kcKYQTi6FbghSGjkAg9SOFQAIRQDOQQgBBCKEJSCGEKITRBqQQRhwGbwVSGDwEwTQAKQQTimEbghSG5R9S7UghpGgM2BakMCD8wKpGCoEFZKjmIIWhyIdXL1IILyaDtAgpDII9yEqRQpBh6b9RSKF/5qHWiBRCjUzP7UIKPQMPuDqkEHBw+mwaUuiTdth1IYWw49Nb65BCb6iDrwgpBB+ifhqIFPrhHEMtSCGGKPXQRqTQA+RIqkAKkQSq62Yiha4Jx1M+UognVp22FCl0ijeqwpFCVOHqrrEXX3xxMWfOnMqP8kj5EUAK+cXc6vGDDz5YkUFZDnqNlBcBpJBXvK3ebt682SsEIwedQ8qHAFLIJ9ZWT/fu3VscdNBBY6Wgc3QuKQ8CSCGPODt7eemll44Vgrla0LmkPAgghTzibPXy4Ycfdgrh+uuvL/RjZFDe6j2k9AkghfRjbPXwrbfeck76k046qfjhhx9mfrRfFoLZ13tJaRNACmnH1+qdJv3BBx/snPDbtm3793ztGxGUt3qvyiClSwAppBtbZ88uu+wy52R/6qmnrPOVVxaC2VcZpHQJIIV0Y2v1bO3atc5JvnLlSutck6HXjAzKW5VFSpMAUkgzrlav3nnnHefkXrRo0ch/N+pfkTqnLASzrzJJ6RFACunF1OqR1gAOPfRQ58TeunWrdX49Q+cYEZS3KpP1hTqt+I+RQvwxHNuDpUuXOif1k08+Ofa95gSdWxaC2VfZpLQIIIW04mn15tFHH3VO5uuuu846d1yG3mNkUN6qDlI6BJBCOrG0erJlyxbnJD7xxBOL77//3jp/XIbeo/eWhWD2VRcpDQJIIY04Wr3QAuG8efNan8A+0aguvh9hhSHKDKQQZdjGN/qKK65wCuGJJ54Y/+YxZ6gMc4VQ3qpOUvwEkEL8MbR64LqLkibvtddea5072wyVVRaC2VfdpLgJIIW442e13vfx5BNOOGFW6whWBfsytL6gMo0Mytvyx6V97yc/XAJIIdzYTNwy/U1/+OGHOydqFx808n0gSm1gfWHi8AXzBqQQTCimb8iyZcucQli/fv30hXtKUNnlqwSzr7aQ4iSAFOKMm9Xqxx9/3Dk5r7nmGuvctjNUh5FBeas2keIjgBTii5nV4nfffdc5KY8//vhW1xGsivdlaH1BdZWFYPbVNlJcBJBCXPGyWqsJuWDBAueEfPvtt63zu8pQXUYE5a3apjaS4iGAFOKJlbOly5cvd07GIS7dfX/CqI2keAgghXhiZbXU9yGiq6++2jq3rwzVXb5SMPttfGiqrz7kXg9SiHQE7Nixwzn5jjvuuEH/Hah/RaoNRgblrdpMCp8AUgg/RlYLv/vuu+KII45wTrwQbqzquzGs2qy2k8ImgBTCjo+zdVdddZVTCCF9xNj3UWu1nRQ2AaQQdnys1vluphriZPPJy3WTWKujZAxGACkMhn7yin3rCMcee+yg6wi+nmh9QW0rryuYfdYXfNSGz0cKw8egUQv27NlTLFy40DnB3nzzzUZlDHGS2mZEUN6qL+oTKTwCSCG8mDhb5PtX32OPPeY8P6RMtbEsBLM/5L9OQ+ITWluQQmgRcbRnw4YNzkm1YsUKx9lhZqmtRgblrfpGCosAUggrHlZrfN9rOOaYY6K6vbpuBa82l4Vg9vl+hBX2QTOQwqD4R1e+e/fu4uijj3ZOpM2bN49+c4Cvqs1GBOWt+qi+ksIggBTCiIOzFb5bnsV8S3XfLefbvFWcEyaZjQkghcao+j3xmWeecf5WTeHLRb4vcanPpOEJIIXhY2C1YPv27U4h6DI7hce0qQ++P4vUd9KwBJDCsPyt2r/99lvvglyM6whWB/dl+NYXtBgpBqThCCCF4dg7a/Y9mi3FR7+rT+UFR7M/m0faOWGSOSsCSGFW2Lp503PPPeecJFdeeWU3FQZQqvpmZFDeigVpGAJIYRjuVq2+5zUcddRRxY8//midn0qG+qY+loVg9nl+xDBRRgrDcK/U+s0333hvTBLy9xoqnZjiwPf9CN2sRWxI/RJACv3ydtZ2/fXXO39TPvLII87zU8xUX80VQnkrNqR+CSCFfnlbtW3cuNE5GXJ8mIrvYTZiROqPAFLoj7VV09atW51C0NeKf/rpJ+v81DPUZ9/Xw8WK1A8BpNAPZ6sW/a3se0BrDusIFpB9Gb71BbFifcFHrd18pNAuz8al3Xjjjc6rhIcffrhxGameKAbldQWzL2ak7gkghe4ZWzX4Po9wxRVXWOfmmiEWRgblLZ9f6H5EIIXuGVdq2LJli3OwH3nkkVmuI1TglA60viAmZSGYfTEkdUcAKXTH1ip5165dxYknnugc6CE8r8Fq8MAZvudHiKFYkrohgBS64eos9aabbnIK4aGHHnKeT2ZRiI25QihvxZLUDQGk0A1Xq9Rnn33WObgvv/xy61wyqgTEqCwEsy+mpPYJIIX2mVol+tYR9Bi1n3/+2TqfjCoBMfI9Jo/1hSqrNo6QQhsUR5Tx9ddfFyeddJLzNx3rCCPA1V7yrS+IrRiT2iOAFNpj6Sxp1apVTiE8+OCDzvPJ9BMQM/OnQ3krxqT2CCCF9lhaJfnus7h06VLrXDKaERC7shDMPvd3bMavyVlIoQmlWZzzzjvvOAfvggULWEeYBU/zFq0viKGRQXkr5qTpCSCF6RlaJXz11VfFySef7By4b7/9tnU+GZMREMOyDMy+mIs9aToCSGE6fs5333rrrc5ByzqCE9esMn3rC2JPmo4AUpiOn/Vu3zrCkiVLrHPJmI6AmJqrhPKW9YXpuCKF6fhV3u27rJ0/f37xyy+/VM7lYHoCYiq2ZSGYff5Mmz1fpDB7dpV3fvnll8Upp5zCAK1Q6f7AJ2LFQjEhTU4AKUzOzPkO3zoC32tw4mo10/f9CNYXZocZKcyOW+VdTz/9tPMK4bLLLqucx0F3BMTa/OlQ3io2pMkIIIXJeFln+z5+e/jhh7OOYNHqLkPrC2JeFoLZ5+Pkk3FHCpPxqpz9xRdfFKeddppzIPJBmgqqXg58HxhTjBQrUjMCSKEZJ+dZvnUE7rPoxNVLpu/+jqwvNMePFJqzqpy5YcMG5xXCpZdeWjmPg/4JKAbmT4fyVjEjjSeAFMYzss7w3YZ83rx5xa+//mqdT0a/BBQDxaIsBLOf8+3zm0YBKTQlte+8zz//vDj99NOdA44bfkwIs8PTfTe2UewUQ5KfAFLws3G+cssttziFwDqCE9egmb71BcWQ5CeAFPxsrFeeeuoppxAuueQS61wywiCg2Jg/HcpbxZLkJoAU3Fys3M2bNzsH12GHHVb89ttv1vlkhEFAsVGMykIw+4opySaAFGwmVo7+Bj3jjDOcA4t1BAtXcBm+9QXFlPUFO1xIwWZi5fjus/jII49Y55IRJgHFylwhlLfc39GOF1KwmVRynnzySedguvjiiyvncRA+AcWsLASzrxiT/iOAFP5jYe298cYbzkF06KGHso5g0Qo/Q+sLip2RQXmrWJP+IYAUPCPhs88+K8466yznANq6davnXWSHTkCxK8vA7CvWijmpKJCCZxTcfPPNzsHDOoIHWETZvvUFxZyEFJxj4IknnnAKgc8jOHFFmen7/IJin3viSqE2AnzrCIccckjx+++/187mMFYCiqViav58KG9zX19ACqVR/emnn7KOUOKR+u6o9QWNhVwTUihF/qabbnL+5li7dm3pLHZTIqDYlq8SzL7GQq4JKeyL/Pr1652Dg3WE9KeGb31BYyLHhBSKonj99dedQjj44INZR8hgVmh9QbE2VwnlrcZGbil7KXzyySfFmWee6RwQ27Zty208ZNtfxbosA7OvsaExklPKXgo33nijczCwjpDTNPinr771BY2RnFLWUvCtI3CfxZymQLWvvvs75rS+kK0UNm3a5LxCOOigg4o//vijOlI4yoaAYq8xYP58KG81ZnJIWUrh448/9t4fYfv27TnEnT6OIKAxUJaB2df9FzR2Uk9ZSuGGG25wBv3RRx9NPd70ryEBjQUjg/JWYyf1lJ0UHn/8cWewee5j6kN98v75nk+pMZRyykoKr732mlMIc+fOLf7888+U40zfZkFAY0Jjo3ylYPY1llJN2Ujho48+KhYvXuwMMOsIqQ7v6fvlW1/QWNKYSjFlIwXfOsJjjz2WYlzpU4sENEbMFUJ5m+r6QhZSWLdunTOorCO0OHMSL8q3vqCxlVpKXgqvvvqqUwisI6Q2lLvtz6j1BY2xlFLSUvjwww+96wjvvvtuSnGkLz0Q0Jgp//lg9rW+oLGWSkpaCiZIa9asqQSTdQRDhu2kBOrrCxpbqaUspKCgvfTSS8URRxxRLFmyJLUY0p+eCWgMaSxpTKWYspGCgrdz587ir7/+SjGO9KlHAhpDGkuppqykkGoQ6RcE2iSAFNqkSVkQSIAAUkggiHQBAm0SQApt0qQsCCRAACkkEES6AIE2CSCFNmlSFgQSIIAUEggiXYBAmwSQQps0KQsCCRBACgkEkS5AoE0CSKFNmpQFgQQIIIUEgkgXINAmAaTQJk3KgkACBJBCAkGkCxBokwBSaJMmZUEgAQJIIYEg0gUItEkAKbRJk7IgkAABpJBAEOkCBNokgBTapElZEEiAAFJIIIh0AQJtEkAKbdKkLAgkQAApJBBEugCBNgkghTZpUhYEEiDwf9aQV7vMDyh4AAAAAElFTkSuQmCC;" vertex="1" parent="1">
          <mxGeometry x="-30" y="428" width="57.04" height="80" as="geometry" />
        </mxCell>
        <mxCell id="bF2_etVDXhsBuvM0KvUb-156" value="" style="shape=image;verticalLabelPosition=bottom;labelBackgroundColor=#ffffff;verticalAlign=top;aspect=fixed;imageAspect=0;image=data:image/png,iVBORw0KGgoAAAANSUhEUgAAAQUAAAFuCAYAAACIpQ0IAAAegUlEQVR4Ae2dSagcxR/HA54UjFtMNO5GcYmKoiAIXtwSjYlb3KJBEbx4EEWJuERj1LjkIngWD4IHjcYli7n9ISfBm/saTTTu29FT//k+U9rdVTXT86aXWj4Fj+6u6anl86v6vH71ZrrnFCQIQAACJQJzSvvsQgACECiQAoMAAhCoEEAKFRwcQAACSIExAAEIVAgghQoODiAAAaTAGIAABCoEkEIFBwcQgABSYAxAAAIVAkihgoMDCEAAKTAGIACBCgGkUMHBAQQggBQYAxCAQIUAUqjg4AACEEAKjAEIQKBCAClUcHAAAQggBcYABCBQIYAUKjg4gAAEkAJjAAIQqBBAChUcHEAAAkiBMQABCFQIIIUKDg4gAAGkwBiAAAQqBJBCBQcHEIAAUmAMQAACFQJIoYKDAwhAACkwBiAAgQoBpFDBwQEEIIAUGAMQgECFAFKo4OAAAhBACowBCECgQgApVHBwAAEIIAXGAAQgUCGAFCo4OIAABJACYwACEKgQQAoVHBxAAAJIgTEAAQhUCCCFCg4OIAABpMAYgAAEKgSQQgVHXge7du0q/ve//xWvvPJK8cILLxRPP/10sW7dupkf7StPr+kcnUvKgwBSyCPOxZ49e4qXX365uOuuu4rzzz+/OOCAA4o5c+ZM9KP36L0qQ2WpTFJ6BJBCejH9t0cffPDBzG/9c889d6LJP4ksVLauLlQXKQ0CSCGNOFZ68eKLLxYXXnhhZyLwSUN1qm5S3ASQQtzx+7f1f//998yawMKFC3uXQV0SaoPWJNQmUnwEkEJ8MbNa/Pzzzxfz58+fWAZz584tFi9eXFx00UXFypUri9tuu6248847Z360rzy9pnN0bn3yjztWm9Q2UlwEkEJc8aq0dseOHcUk6wWnnnpqsXr16mLjxo3Fli1bivfff3+iH71H71UZKmucFMzraqPaSoqDAFKII05WK++5555Gk1K/5e+9997irbfemkgATYShMlW26jACGLVVm0nhE0AK4ceo0kJN1iZXB8uWLZtZ9Gsyuds4RwuMqnOUFPSa2q76SOESQArhxsZqmT4bsN9++42ceCtWrCg2bdrU+lVBU3GobrVhlBzUB/WFFCYBpBBmXKxWbdiwYeREO++883q9MhgnCV05qE2j5KA+kcIjgBTCi4nVojVr1oycXPq7ftwkHep1tW2UGNQ3UlgEkEJY8bBac99993knlf4DoMvwoSZ803rVxlH/rVAfSeEQQArhxMJqydq1a71CWLp0afHee+8FLwQjDrVVbfZdNaivpDAIIIUw4mC1Qt9Q9E0gfU7ATLbYtmq7r1/qM2l4Akhh+BhYLdi2bZt34ugTh7GJoN5e9cEnBvWdNCwBpDAsf6v2vXv3Fr7vL9xxxx3RC8EIQn1xiUF9FwPScASQwnDsnTVfffXVzsmi7yGYCZXKVn1yiUEMSMMRQArDsbdq9q0jXHDBBckJwYhNfXOJgfUFa3j0loEUekM9uqLdu3cX+++/vzVB5s2bV2zfvj1ZKahv6mNdDGIhJqT+CSCF/pk7a7z99tutiaGJom8lmt+qqW7Vx7oUdCwmpP4JIIX+mVs17ty50zkpUlxH8InNt74gNqR+CSCFfnk7a1u+fLklhUMOOWTmLsq+SZRavu4YrT7XrxjEhtQvAaTQL2+rNt9VwgMPPJD8nw11sanPdSnomKsFa9h0moEUOsU7vvBVq1ZZE2HRokXZCcEIQn2vi0GMSP0RQAr9sbZq0nMT6hNAx/oegJkkuW193/fgGRPW8OksAyl0hnZ8wbrjcV0KCxYsyFYIRoBiUOciVqR+CCCFfjg7azn77LOtwZ/CdxvM5J7t1vXdCLEi9UMAKfTD2apFT1Sq/zbU8ebNm7O/UhADFxueQmUNo04ykEInWMcX+txzz1kD/5xzzsleCObqQizqYhAzUvcEkEL3jJ01LFmyxBr0d999N1LY9ywKsahLQcxI3RNACt0zdtbgeuqzHvtuflPmvhWLuhTEjNQ9AaTQPWOrBk34+oDXp/lyF0G9/65POOocUrcEkEK3fJ2l6/bndSnoic31SZH7sevJ2TzV2jmkWs1ECq3ibFbY/fffb0khpbsqtSUz192ZxI7ULQGk0C1fZ+muuyutX7+eK4XaA2/FpH5FxV2ZnEOq1Uyk0CrOZoW5npyky+K2fsOmUo7rzyyxI3VLACl0y9dZ+jHHHGP9BuziqdCxy0FM6lcKYkfqlgBS6Javs/QDDzzQGuy6n0Dsk7jt9otJXQpiR+qWAFLolq+zdNeTo2N62lPbk99XnpjUpSB2pG4JIIVu+TpLrw90HfsmRu75LlZOqGS2RgAptIayeUFcKbzfSIJcKTQfU22eiRTapNmwLNYUmkmBNYWGA6rl05BCy0CbFMd/H5pJgf8+NBlN7Z+DFNpnOrZEPqfQTAp8TmHsUOrkBKTQCdbRhfKJxmZS4BONo8dRV68iha7IjiiX7z40kwLffRgxiDp8CSl0CNdXtOuymG9J2qLgW5K+EdRtPlLolq+zdH32oP7/d+6nYEuB+yk4h0/nmUihc8TuCrjzki2B8ge1uPOSe9z0kYsU+qDsqIN7NI6WAvdodAyanrKQQk+g69VwN+fRUuBuzvUR098xUuiPdaUmnvvglwLPfagMld4PkELvyP+rkCdEucXAE6L+GyND7CGFIajvq5NnSbqlwLMkBxyURVEghQH589RpWwo8dXrAAbmvaqQwcAxWrVplfWZh0aJFjb5aXP4XXir76nv9MxxiROqPAFLoj7Wzpp07d1qTQJPigQceyE4M6nNdCDoWI1J/BJBCf6y9NS1fvtyaDPo0X073bVRfXZ9gFBtSvwSQQr+8nbX5rhZWrlyZzdWC+spVgnN49J6JFHpH7q7w9ttvd06KjRs3Ji8G9dElBDEh9U8AKfTP3Fnj7t27i/3339+aHPPmzSu2b9+erBjUN/WxLgWxEBNS/wSQQv/MvTW+8MIL1uTQZLnggguSlYL6VheCjsWCNAwBpDAMd2+trrsyaZKkuL7gW0fgeZHe4dHLC0ihF8zNK9m7d2+xcOFC52/PlJ5M7bqrkuSnvosBaTgCSGE49t6at23b5pSCJo2+FxD7B5Vc321Q3/SjvpOGJYAUhuXvrd23vqCJs3r16mjFoLYbAdS3rCN4h0OvLyCFXnFPVpnvewCaTEuXLi1iev6k2qo210VgjtVXUhgEkEIYcfC24r777vNOpFNPPbV4+eWXg79qUBvVViOA+lZ9JIVDACmEEwtvS9asWeOdUJpg9957b7BiUNvqEigfq2+ksAgghbDi4W3Nhg0bRk4uPXVKt44PZRFSbXE9CassBPWJFB4BpBBeTLwt0mW464nV5Ym2YsWKYtOmTYPJQXWrDeU21ffVB/WFFCYBpBBmXLyt0pXAueeeO3LSaRIuW7as1ysHXRmozroA6sdqu/pACpcAUgg3NiNbds8994ydgJqQixcvnllz0BOc2/7TQmVqzUB11Ce/61htJoVPACmEHyNvC3fs2NHoqsFMUP0HQJ8T0LcSt2zZMrEk9B69V2WM+m+Cqc9sdXWgtpLiIIAU4ojTyFY+//zzxfz58xv9tjYTVdu5c+fO/Ja/6KKLZr5bcdttt818YlKfONS+vpug13QloHPL722yrzapbaS4CCCFuOLlbe3ff/9d6O7Qvu9NNJnEbZ2jNqgtahMpPgJIIb6YjW2xFv1cT2xua9L7ylGdqpsUNwGkEHf8RrZeT6Fat27dROsOvgnvy9d6gepQXaQ0CCCFNOI4thd6xoQ+G3DXXXcV559/fuF66rVv4pt8vUfvVRkqS2WS0iOAFNKLaeMe7dq1a+aO0Xrs++WXX24tJCpPr+lOyzqXlAcBpJBHnMf2Un8CmCsCs1UeKT8CSCG/mDt7jBScWLLMRApZht3uNFKwmeSagxRyjXyt30ihBiTjQ6SQcfDLXUcKZRp57yOFvOP/b++Rwr8ost9BCtkPgX8AIAUGgiGAFAyJzLdIIfMBUOo+UijByHkXKeQc/WrfkUKVR7ZHSCHb0FsdRwoWkjwzkEKecXf1Gim4qGSYhxQyDLqny0jBAya3bKSQW8T9/UUKfjZZvYIUsgr3yM4ihZF48nkRKeQT63E9RQrjCGXyOlLIJNANuokUGkDK4RSkkEOUm/URKTTjlPxZSCH5EDfuIFJojCrtE5FC2vGdpHfZSEGDnp/RDMxt2MwWXqN5iU+KKRspmIHOdo51L0aYzJ4JUoiYAAN/9gMfdn52EU8Jb9O5UpjjDziTATbjxoB3ZkX8AlJACvw5McUYiHjue5uejRRYNBu/aFb/rQiz8cy8MyviF7KRQsQx6qXpEoBLCr1UTiVBEUAKQYVjuMYgheHYh1YzUggtIgO1BykMBD7AapFCgEEZoklIYQjqYdaJFMKMS++tQgq9Iw+2QqQQbGj6bRhS6Jd3yLUhhZCj02PbkEKPsAOvCikEHqC+mocU+iIdfj1IIfwY9dJCpNAL5igqQQpRhKn7RiKF7hnHUgNSiCVSHbcTKXQMOKLikUJEweqyqUihS7pxlY0U4opXZ61FCp2hja5gpBBdyLppMFLohmuMpSKFGKPWQZuRQgdQIy0SKUQauLabjRTaJhpveUgh3ti12nKk0CrOqAtDClGHr73GI4X2WMZeElKIPYIttR8ptAQygWKQQgJBbKMLSKENimmUgRTSiOPUvUAKUyNMpgCkkEwop+sIUpiOX0rvRgopRXOKviCFKeAl9lakkFhAZ9sdpDBbcum9DymkF9NZ9QgpzApbkm9CCkmGdfJOIYXJmaX6DqSQamQn7BdSmBBYwqcjhYSDO0nXkMIktNI+FymkHd/GvUMKjVElfyJSSD7EzTqIFJpxyuEspJBDlBv0ESk0gJTJKUghk0CP6yZSGEcon9eRQj6xHtlTpDAST1YvIoWswu3vLFLws8ntFaSQW8Q9/UUKHjAZZiOFDIPu6jJScFHJMw8p5Bl3q9dIwUKSbQZSyDb01Y4jhSqPnI+QQs7RL/UdKZRgZL6LFDIfAKb7SMGQYIsUGAMzBJACA8EQQAqGROZbpJD5ACh1HymUYOS8ixRyjn6170ihyiPbI6SQbeitjiMFC0meGUghz7i7eo0UXFQyzEMKGQbd02Wk4AGTWzZSyC3i/v4iBT+brF5BClmFe2RnkcJIPPm8iBTyifW4niKFcYQyeR0pZBLoBt1ECg0g5XAKUsghys36iBSacUr+LKSQfIgbdxApNEaV9olIIe34TtI7pDAJrYTPRQoJB3fCriGFCYGlejpSSDWyk/cLKUzOLMl3IIUkwzqrTiGFWWFL701IIb2YzrZHSGG25BJ7H1JILKBTdAcpTAEvpbcihZSiOV1fkMJ0/JJ5N1JIJpRTdwQpTI0wjQKQQhpxbKMXSKENigmUgRQSCGJLXUAKLYGMvRikEHsE22s/UmiPZdQlIYWow9dq45FCqzjjLQwpxBu7tluOFNomGml5SCHSwHXQbKTQAdQYi0QKMUatmzYjhW64RlcqUoguZJ01GCl0hjaugpFCXPHqsrVIoUu6EZWNFCIKVsdNRQodA46leKQQS6S6bydS6J5xFDUghSjC1EsjkUIvmMOvBCmEH6O+WogU+iIdeD1IIfAA9dg8pNAj7JCrQgohR6fftiGFfnkHWxtSCDY0vTcMKfSOPMwKkUKYcRmiVUhhCOoB1okUAgzKQE1CCgOBD61apBBaRIZrD1IYjn1QNSOFoMIxaGOQwqD4w6kcKYQTi6FbghSGjkAg9SOFQAIRQDOQQgBBCKEJSCGEKITRBqQQRhwGbwVSGDwEwTQAKQQTimEbghSG5R9S7UghpGgM2BakMCD8wKpGCoEFZKjmIIWhyIdXL1IILyaDtAgpDII9yEqRQpBh6b9RSKF/5qHWiBRCjUzP7UIKPQMPuDqkEHBw+mwaUuiTdth1IYWw49Nb65BCb6iDrwgpBB+ifhqIFPrhHEMtSCGGKPXQRqTQA+RIqkAKkQSq62Yiha4Jx1M+UognVp22FCl0ijeqwpFCVOHqrrEXX3xxMWfOnMqP8kj5EUAK+cXc6vGDDz5YkUFZDnqNlBcBpJBXvK3ebt682SsEIwedQ8qHAFLIJ9ZWT/fu3VscdNBBY6Wgc3QuKQ8CSCGPODt7eemll44Vgrla0LmkPAgghTzibPXy4Ycfdgrh+uuvL/RjZFDe6j2k9AkghfRjbPXwrbfeck76k046qfjhhx9mfrRfFoLZ13tJaRNACmnH1+qdJv3BBx/snPDbtm3793ztGxGUt3qvyiClSwAppBtbZ88uu+wy52R/6qmnrPOVVxaC2VcZpHQJIIV0Y2v1bO3atc5JvnLlSutck6HXjAzKW5VFSpMAUkgzrlav3nnnHefkXrRo0ch/N+pfkTqnLASzrzJJ6RFACunF1OqR1gAOPfRQ58TeunWrdX49Q+cYEZS3KpP1hTqt+I+RQvwxHNuDpUuXOif1k08+Ofa95gSdWxaC2VfZpLQIIIW04mn15tFHH3VO5uuuu846d1yG3mNkUN6qDlI6BJBCOrG0erJlyxbnJD7xxBOL77//3jp/XIbeo/eWhWD2VRcpDQJIIY04Wr3QAuG8efNan8A+0aguvh9hhSHKDKQQZdjGN/qKK65wCuGJJ54Y/+YxZ6gMc4VQ3qpOUvwEkEL8MbR64LqLkibvtddea5072wyVVRaC2VfdpLgJIIW442e13vfx5BNOOGFW6whWBfsytL6gMo0Mytvyx6V97yc/XAJIIdzYTNwy/U1/+OGHOydqFx808n0gSm1gfWHi8AXzBqQQTCimb8iyZcucQli/fv30hXtKUNnlqwSzr7aQ4iSAFOKMm9Xqxx9/3Dk5r7nmGuvctjNUh5FBeas2keIjgBTii5nV4nfffdc5KY8//vhW1xGsivdlaH1BdZWFYPbVNlJcBJBCXPGyWqsJuWDBAueEfPvtt63zu8pQXUYE5a3apjaS4iGAFOKJlbOly5cvd07GIS7dfX/CqI2keAgghXhiZbXU9yGiq6++2jq3rwzVXb5SMPttfGiqrz7kXg9SiHQE7Nixwzn5jjvuuEH/Hah/RaoNRgblrdpMCp8AUgg/RlYLv/vuu+KII45wTrwQbqzquzGs2qy2k8ImgBTCjo+zdVdddZVTCCF9xNj3UWu1nRQ2AaQQdnys1vluphriZPPJy3WTWKujZAxGACkMhn7yin3rCMcee+yg6wi+nmh9QW0rryuYfdYXfNSGz0cKw8egUQv27NlTLFy40DnB3nzzzUZlDHGS2mZEUN6qL+oTKTwCSCG8mDhb5PtX32OPPeY8P6RMtbEsBLM/5L9OQ+ITWluQQmgRcbRnw4YNzkm1YsUKx9lhZqmtRgblrfpGCosAUggrHlZrfN9rOOaYY6K6vbpuBa82l4Vg9vl+hBX2QTOQwqD4R1e+e/fu4uijj3ZOpM2bN49+c4Cvqs1GBOWt+qi+ksIggBTCiIOzFb5bnsV8S3XfLefbvFWcEyaZjQkghcao+j3xmWeecf5WTeHLRb4vcanPpOEJIIXhY2C1YPv27U4h6DI7hce0qQ++P4vUd9KwBJDCsPyt2r/99lvvglyM6whWB/dl+NYXtBgpBqThCCCF4dg7a/Y9mi3FR7+rT+UFR7M/m0faOWGSOSsCSGFW2Lp503PPPeecJFdeeWU3FQZQqvpmZFDeigVpGAJIYRjuVq2+5zUcddRRxY8//midn0qG+qY+loVg9nl+xDBRRgrDcK/U+s0333hvTBLy9xoqnZjiwPf9CN2sRWxI/RJACv3ydtZ2/fXXO39TPvLII87zU8xUX80VQnkrNqR+CSCFfnlbtW3cuNE5GXJ8mIrvYTZiROqPAFLoj7VV09atW51C0NeKf/rpJ+v81DPUZ9/Xw8WK1A8BpNAPZ6sW/a3se0BrDusIFpB9Gb71BbFifcFHrd18pNAuz8al3Xjjjc6rhIcffrhxGameKAbldQWzL2ak7gkghe4ZWzX4Po9wxRVXWOfmmiEWRgblLZ9f6H5EIIXuGVdq2LJli3OwH3nkkVmuI1TglA60viAmZSGYfTEkdUcAKXTH1ip5165dxYknnugc6CE8r8Fq8MAZvudHiKFYkrohgBS64eos9aabbnIK4aGHHnKeT2ZRiI25QihvxZLUDQGk0A1Xq9Rnn33WObgvv/xy61wyqgTEqCwEsy+mpPYJIIX2mVol+tYR9Bi1n3/+2TqfjCoBMfI9Jo/1hSqrNo6QQhsUR5Tx9ddfFyeddJLzNx3rCCPA1V7yrS+IrRiT2iOAFNpj6Sxp1apVTiE8+OCDzvPJ9BMQM/OnQ3krxqT2CCCF9lhaJfnus7h06VLrXDKaERC7shDMPvd3bMavyVlIoQmlWZzzzjvvOAfvggULWEeYBU/zFq0viKGRQXkr5qTpCSCF6RlaJXz11VfFySef7By4b7/9tnU+GZMREMOyDMy+mIs9aToCSGE6fs5333rrrc5ByzqCE9esMn3rC2JPmo4AUpiOn/Vu3zrCkiVLrHPJmI6AmJqrhPKW9YXpuCKF6fhV3u27rJ0/f37xyy+/VM7lYHoCYiq2ZSGYff5Mmz1fpDB7dpV3fvnll8Upp5zCAK1Q6f7AJ2LFQjEhTU4AKUzOzPkO3zoC32tw4mo10/f9CNYXZocZKcyOW+VdTz/9tPMK4bLLLqucx0F3BMTa/OlQ3io2pMkIIIXJeFln+z5+e/jhh7OOYNHqLkPrC2JeFoLZ5+Pkk3FHCpPxqpz9xRdfFKeddppzIPJBmgqqXg58HxhTjBQrUjMCSKEZJ+dZvnUE7rPoxNVLpu/+jqwvNMePFJqzqpy5YcMG5xXCpZdeWjmPg/4JKAbmT4fyVjEjjSeAFMYzss7w3YZ83rx5xa+//mqdT0a/BBQDxaIsBLOf8+3zm0YBKTQlte+8zz//vDj99NOdA44bfkwIs8PTfTe2UewUQ5KfAFLws3G+cssttziFwDqCE9egmb71BcWQ5CeAFPxsrFeeeuoppxAuueQS61wywiCg2Jg/HcpbxZLkJoAU3Fys3M2bNzsH12GHHVb89ttv1vlkhEFAsVGMykIw+4opySaAFGwmVo7+Bj3jjDOcA4t1BAtXcBm+9QXFlPUFO1xIwWZi5fjus/jII49Y55IRJgHFylwhlLfc39GOF1KwmVRynnzySedguvjiiyvncRA+AcWsLASzrxiT/iOAFP5jYe298cYbzkF06KGHso5g0Qo/Q+sLip2RQXmrWJP+IYAUPCPhs88+K8466yznANq6davnXWSHTkCxK8vA7CvWijmpKJCCZxTcfPPNzsHDOoIHWETZvvUFxZyEFJxj4IknnnAKgc8jOHFFmen7/IJin3viSqE2AnzrCIccckjx+++/187mMFYCiqViav58KG9zX19ACqVR/emnn7KOUOKR+u6o9QWNhVwTUihF/qabbnL+5li7dm3pLHZTIqDYlq8SzL7GQq4JKeyL/Pr1652Dg3WE9KeGb31BYyLHhBSKonj99dedQjj44INZR8hgVmh9QbE2VwnlrcZGbil7KXzyySfFmWee6RwQ27Zty208ZNtfxbosA7OvsaExklPKXgo33nijczCwjpDTNPinr771BY2RnFLWUvCtI3CfxZymQLWvvvs75rS+kK0UNm3a5LxCOOigg4o//vijOlI4yoaAYq8xYP58KG81ZnJIWUrh448/9t4fYfv27TnEnT6OIKAxUJaB2df9FzR2Uk9ZSuGGG25wBv3RRx9NPd70ryEBjQUjg/JWYyf1lJ0UHn/8cWewee5j6kN98v75nk+pMZRyykoKr732mlMIc+fOLf7888+U40zfZkFAY0Jjo3ylYPY1llJN2Ujho48+KhYvXuwMMOsIqQ7v6fvlW1/QWNKYSjFlIwXfOsJjjz2WYlzpU4sENEbMFUJ5m+r6QhZSWLdunTOorCO0OHMSL8q3vqCxlVpKXgqvvvqqUwisI6Q2lLvtz6j1BY2xlFLSUvjwww+96wjvvvtuSnGkLz0Q0Jgp//lg9rW+oLGWSkpaCiZIa9asqQSTdQRDhu2kBOrrCxpbqaUspKCgvfTSS8URRxxRLFmyJLUY0p+eCWgMaSxpTKWYspGCgrdz587ir7/+SjGO9KlHAhpDGkuppqykkGoQ6RcE2iSAFNqkSVkQSIAAUkggiHQBAm0SQApt0qQsCCRAACkkEES6AIE2CSCFNmlSFgQSIIAUEggiXYBAmwSQQps0KQsCCRBACgkEkS5AoE0CSKFNmpQFgQQIIIUEgkgXINAmAaTQJk3KgkACBJBCAkGkCxBokwBSaJMmZUEgAQJIIYEg0gUItEkAKbRJk7IgkAABpJBAEOkCBNokgBTapElZEEiAAFJIIIh0AQJtEkAKbdKkLAgkQAApJBBEugCBNgkghTZpUhYEEiDwf9aQV7vMDyh4AAAAAElFTkSuQmCC;" vertex="1" parent="1">
          <mxGeometry x="-30" y="540" width="57.04" height="80" as="geometry" />
        </mxCell>
        <mxCell id="bF2_etVDXhsBuvM0KvUb-157" value="Based On Http Header" style="text;html=1;align=center;verticalAlign=middle;resizable=0;points=[];autosize=1;" vertex="1" parent="1">
          <mxGeometry x="-70" y="290" width="140" height="20" as="geometry" />
        </mxCell>
        <mxCell id="bF2_etVDXhsBuvM0KvUb-158" value="Based On IP Address" style="text;html=1;align=center;verticalAlign=middle;resizable=0;points=[];autosize=1;" vertex="1" parent="1">
          <mxGeometry x="-66.48" y="400" width="130" height="20" as="geometry" />
        </mxCell>
        <mxCell id="bF2_etVDXhsBuvM0KvUb-159" value="Based On Cookie" style="text;html=1;align=center;verticalAlign=middle;resizable=0;points=[];autosize=1;" vertex="1" parent="1">
          <mxGeometry x="-56.480000000000004" y="508" width="110" height="20" as="geometry" />
        </mxCell>
        <mxCell id="bF2_etVDXhsBuvM0KvUb-160" value="Based On Others ..." style="text;html=1;align=center;verticalAlign=middle;resizable=0;points=[];autosize=1;" vertex="1" parent="1">
          <mxGeometry x="-61.480000000000004" y="620" width="120" height="20" as="geometry" />
        </mxCell>
        <mxCell id="bF2_etVDXhsBuvM0KvUb-162" value="" style="edgeStyle=elbowEdgeStyle;elbow=horizontal;endArrow=classic;html=1;dashed=1;exitX=1;exitY=0.5;exitDx=0;exitDy=0;entryX=0.009;entryY=0.881;entryDx=0;entryDy=0;entryPerimeter=0;" edge="1" parent="1" source="bF2_etVDXhsBuvM0KvUb-156" target="ImLfmbIOM0FkZJiw0mNa-4">
          <mxGeometry width="50" height="50" relative="1" as="geometry">
            <mxPoint x="150" y="610" as="sourcePoint" />
            <mxPoint x="200" y="560" as="targetPoint" />
          </mxGeometry>
        </mxCell>
        <mxCell id="bF2_etVDXhsBuvM0KvUb-163" value="" style="edgeStyle=elbowEdgeStyle;elbow=horizontal;endArrow=classic;html=1;dashed=1;" edge="1" parent="1">
          <mxGeometry width="50" height="50" relative="1" as="geometry">
            <mxPoint x="30" y="250" as="sourcePoint" />
            <mxPoint x="145" y="407" as="targetPoint" />
          </mxGeometry>
        </mxCell>
        <mxCell id="bF2_etVDXhsBuvM0KvUb-165" value="" style="edgeStyle=elbowEdgeStyle;elbow=horizontal;endArrow=classic;html=1;dashed=1;entryX=0;entryY=0.5;entryDx=0;entryDy=0;" edge="1" parent="1">
          <mxGeometry width="50" height="50" relative="1" as="geometry">
            <mxPoint x="25" y="356" as="sourcePoint" />
            <mxPoint x="145" y="418" as="targetPoint" />
            <Array as="points">
              <mxPoint x="75" y="388" />
            </Array>
          </mxGeometry>
        </mxCell>
        <mxCell id="bF2_etVDXhsBuvM0KvUb-166" value="" style="edgeStyle=elbowEdgeStyle;elbow=horizontal;endArrow=classic;html=1;dashed=1;exitX=1;exitY=0.5;exitDx=0;exitDy=0;" edge="1" parent="1" source="bF2_etVDXhsBuvM0KvUb-155">
          <mxGeometry width="50" height="50" relative="1" as="geometry">
            <mxPoint x="24" y="498" as="sourcePoint" />
            <mxPoint x="144" y="428" as="targetPoint" />
            <Array as="points">
              <mxPoint x="74" y="458" />
            </Array>
          </mxGeometry>
        </mxCell>
      </root>
    </mxGraphModel>
  </diagram>
</mxfile>
